SplineFontDB: 3.0
FontName: Economica-Regular
FullName: Economica
FamilyName: Economica
Weight: Book
Copyright: Copyright (c) 2012, Vicente Lamonaca (produccion.taller@gmail.com www.tipografia-montevideo.info www.tipotype.com)
Version: 1.101
ItalicAngle: 0
UnderlinePosition: -25
UnderlineWidth: 24
Ascent: 800
Descent: 200
sfntRevision: 0x000119db
LayerCount: 2
Layer: 0 1 "Back"  1
Layer: 1 1 "Fore"  0
XUID: [1021 55 2145938331 8421520]
FSType: 0
OS2Version: 2
OS2_WeightWidthSlopeOnly: 0
OS2_UseTypoMetrics: 1
CreationTime: 1330105211
ModificationTime: 1330123051
PfmFamily: 17
TTFWeight: 400
TTFWidth: 5
LineGap: 0
VLineGap: 0
Panose: 2 0 5 6 4 0 0 2 0 4
OS2TypoAscent: 149
OS2TypoAOffset: 1
OS2TypoDescent: 0
OS2TypoDOffset: 1
OS2TypoLinegap: 0
OS2WinAscent: 22
OS2WinAOffset: 1
OS2WinDescent: 0
OS2WinDOffset: 1
HheadAscent: 22
HheadAOffset: 1
HheadDescent: 0
HheadDOffset: 1
OS2SubXSize: 700
OS2SubYSize: 650
OS2SubXOff: 0
OS2SubYOff: 140
OS2SupXSize: 700
OS2SupYSize: 650
OS2SupXOff: 0
OS2SupYOff: 477
OS2StrikeYSize: 50
OS2StrikeYPos: 250
OS2FamilyClass: 2050
OS2CodePages: 20000001.00000000
OS2UnicodeRanges: 800000af.4000204a.00000000.00000000
Lookup: 4 0 1 "'liga' Standard Ligatures in Latin lookup 0"  {"'liga' Standard Ligatures in Latin lookup 0 subtable"  } ['liga' ('latn' <'dflt' > ) ]
Lookup: 258 0 0 "'kern' Horizontal Kerning in Latin lookup 0"  {"'kern' Horizontal Kerning in Latin lookup 0 subtable"  } ['kern' ('latn' <'dflt' > ) ]
DEI: 91125
TtTable: prep
PUSHW_1
 511
SCANCTRL
PUSHB_1
 4
SCANTYPE
EndTTInstrs
ShortTable: maxp 16
  1
  0
  257
  79
  5
  73
  4
  2
  0
  1
  1
  0
  64
  0
  2
  1
EndShort

StartChar: exclam
Encoding: 33 33 4
Width: 161
GlyphClass: 2
Flags: W
LayerCount: 2
Fore
SplineSet
112.5 80.5 m 128,-1,1
 126 67 126 67 126 48.5 c 128,-1,2
 126 30 126 30 112.5 17 c 128,-1,3
 99 4 99 4 80.5 4 c 128,-1,4
 62 4 62 4 48 17 c 128,-1,5
 34 30 34 30 34 48 c 2,6,-1
 34 52 l 1,7,8
 35 70 35 70 49 82 c 128,-1,9
 63 94 63 94 81 94 c 128,-1,0
 99 94 99 94 112.5 80.5 c 128,-1,1
78 714.5 m 128,-1,11
 85 723 85 723 99 723 c 128,-1,12
 113 723 113 723 141 721 c 1,13,-1
 123 230 l 2,14,15
 121 189 121 189 110 187 c 0,16,17
 105 186 105 186 97.5 186 c 128,-1,18
 90 186 90 186 64 188 c 1,19,-1
 71 680 l 2,20,10
 71 706 71 706 78 714.5 c 128,-1,11
EndSplineSet
EndChar

StartChar: quotedbl
Encoding: 34 34 5
Width: 332
GlyphClass: 2
Flags: W
LayerCount: 2
Fore
SplineSet
72 620 m 128,-1,1
 72 646 72 646 63 665.5 c 128,-1,2
 54 685 54 685 54 687 c 0,3,4
 54 706 54 706 66 719 c 128,-1,5
 78 732 78 732 96.5 732 c 128,-1,6
 115 732 115 732 126.5 718.5 c 128,-1,7
 138 705 138 705 138 686 c 0,8,9
 138 648 138 648 106 544 c 1,10,-1
 96 510 l 1,11,-1
 57 530 l 1,12,0
 72 594 72 594 72 620 c 128,-1,1
216 620 m 128,-1,14
 216 646 216 646 207 665.5 c 128,-1,15
 198 685 198 685 198 687 c 0,16,17
 198 706 198 706 210 719 c 128,-1,18
 222 732 222 732 240.5 732 c 128,-1,19
 259 732 259 732 270.5 718.5 c 128,-1,20
 282 705 282 705 282 686 c 0,21,22
 282 648 282 648 250 544 c 1,23,-1
 240 510 l 1,24,-1
 201 530 l 1,25,13
 216 594 216 594 216 620 c 128,-1,14
EndSplineSet
EndChar

StartChar: numbersign
Encoding: 35 35 6
Width: 655
GlyphClass: 2
Flags: W
LayerCount: 2
Fore
SplineSet
591 239 m 1,0,-1
 417 239 l 1,1,-1
 321 0 l 1,2,-1
 253 0 l 1,3,-1
 349 239 l 1,4,-1
 204 239 l 1,5,-1
 108 0 l 1,6,-1
 40 0 l 1,7,-1
 136 239 l 1,8,-1
 22 239 l 1,9,-1
 22 302 l 1,10,-1
 161 302 l 1,11,-1
 218 444 l 1,12,-1
 65 444 l 1,13,-1
 65 507 l 1,14,-1
 244 507 l 1,15,-1
 334 732 l 1,16,-1
 402 732 l 1,17,-1
 312 507 l 1,18,-1
 457 507 l 1,19,-1
 547 732 l 1,20,-1
 615 732 l 1,21,-1
 525 507 l 1,22,-1
 634 507 l 1,23,-1
 634 444 l 1,24,-1
 499 444 l 1,25,-1
 442 302 l 1,26,-1
 591 302 l 1,27,-1
 591 239 l 1,0,-1
374 302 m 1,28,-1
 431 444 l 1,29,-1
 286 444 l 1,30,-1
 229 302 l 1,31,-1
 374 302 l 1,28,-1
EndSplineSet
EndChar

StartChar: dollar
Encoding: 36 36 7
Width: 392
GlyphClass: 2
Flags: W
LayerCount: 2
Fore
SplineSet
75 56 m 1,0,1
 145 46 145 46 177.5 46 c 128,-1,2
 210 46 210 46 223 52 c 128,-1,3
 236 58 236 58 243 65.5 c 128,-1,4
 250 73 250 73 253 90 c 0,5,6
 257 112 257 112 257 160 c 0,7,8
 257 182 257 182 227 211.5 c 128,-1,9
 197 241 197 241 160.5 266.5 c 128,-1,10
 124 292 124 292 94 329.5 c 128,-1,11
 64 367 64 367 64 398.5 c 128,-1,12
 64 430 64 430 65 444.5 c 128,-1,13
 66 459 66 459 71.5 479.5 c 128,-1,14
 77 500 77 500 88 511 c 0,15,16
 116 539 116 539 173 543 c 1,17,-1
 174 631 l 1,18,19
 210 631 210 631 215.5 625.5 c 128,-1,20
 221 620 221 620 222 585 c 2,21,-1
 223 537 l 1,22,-1
 287 528 l 1,23,24
 287 484 287 484 251 484 c 0,25,26
 244 484 244 484 237 485 c 2,27,-1
 202 491 l 1,28,29
 145 491 145 491 132 465 c 0,30,31
 123 445 123 445 123 408 c 0,32,33
 123 384 123 384 154.5 353.5 c 128,-1,34
 186 323 186 323 223 298.5 c 128,-1,35
 260 274 260 274 291.5 238 c 128,-1,36
 323 202 323 202 323 170 c 128,-1,37
 323 138 323 138 322.5 122.5 c 128,-1,38
 322 107 322 107 317 81 c 128,-1,39
 312 55 312 55 302 41 c 0,40,41
 278 5 278 5 227 -4 c 1,42,-1
 226 -121 l 1,43,44
 190 -121 190 -121 184.5 -115.5 c 128,-1,45
 179 -110 179 -110 178 -75 c 2,46,-1
 177 -7 l 1,47,48
 166 -6 166 -6 75 10 c 1,49,-1
 75 56 l 1,0,1
EndSplineSet
EndChar

StartChar: percent
Encoding: 37 37 8
Width: 611
GlyphClass: 2
Flags: W
LayerCount: 2
Fore
SplineSet
142 415 m 128,-1,1
 89 415 89 415 68 448.5 c 128,-1,2
 47 482 47 482 47 566 c 128,-1,3
 47 650 47 650 57.5 683.5 c 128,-1,4
 68 717 68 717 86 726.5 c 128,-1,5
 104 736 104 736 141.5 736 c 128,-1,6
 179 736 179 736 198 726 c 0,7,8
 237 706 237 706 237 594 c 128,-1,9
 237 482 237 482 216 448.5 c 128,-1,0
 195 415 195 415 142 415 c 128,-1,1
142 463 m 128,-1,11
 169 463 169 463 180 485 c 128,-1,12
 191 507 191 507 191 569 c 128,-1,13
 191 631 191 631 184.5 655 c 128,-1,14
 178 679 178 679 169.5 683.5 c 128,-1,15
 161 688 161 688 142 688 c 128,-1,16
 123 688 123 688 114 684 c 0,17,18
 93 672 93 672 93 589.5 c 128,-1,19
 93 507 93 507 104 485 c 128,-1,10
 115 463 115 463 142 463 c 128,-1,11
438 -7 m 128,-1,21
 385 -7 385 -7 364 26.5 c 128,-1,22
 343 60 343 60 343 144 c 128,-1,23
 343 228 343 228 353.5 261.5 c 128,-1,24
 364 295 364 295 382 304.5 c 128,-1,25
 400 314 400 314 437.5 314 c 128,-1,26
 475 314 475 314 494 304 c 0,27,28
 533 284 533 284 533 172 c 128,-1,29
 533 60 533 60 512 26.5 c 128,-1,20
 491 -7 491 -7 438 -7 c 128,-1,21
438 41 m 128,-1,31
 465 41 465 41 476 63 c 128,-1,32
 487 85 487 85 487 147 c 128,-1,33
 487 209 487 209 480.5 233 c 128,-1,34
 474 257 474 257 465.5 261.5 c 128,-1,35
 457 266 457 266 438 266 c 128,-1,36
 419 266 419 266 410 262 c 0,37,38
 389 250 389 250 389 167.5 c 128,-1,39
 389 85 389 85 400 63 c 128,-1,30
 411 41 411 41 438 41 c 128,-1,31
182 0 m 1,40,-1
 114 0 l 1,41,-1
 408 732 l 1,42,-1
 476 732 l 1,43,-1
 182 0 l 1,40,-1
EndSplineSet
EndChar

StartChar: ampersand
Encoding: 38 38 9
Width: 536
GlyphClass: 2
Flags: W
LayerCount: 2
Fore
SplineSet
329 692 m 1,0,-1
 328 666 l 2,1,2
 328 661 328 661 325.5 658.5 c 128,-1,3
 323 656 323 656 322.5 654 c 128,-1,4
 322 652 322 652 316 651 c 128,-1,5
 310 650 310 650 307.5 649 c 128,-1,6
 305 648 305 648 295 647 c 128,-1,7
 285 646 285 646 279 645 c 1,8,-1
 209 645 l 2,9,10
 170 645 170 645 150.5 622.5 c 128,-1,11
 131 600 131 600 131 530 c 0,12,13
 131 456 131 456 155 439 c 0,14,15
 169 429 169 429 182.5 427 c 128,-1,16
 196 425 196 425 223 425 c 1,17,-1
 223 366 l 1,18,19
 175 366 175 366 143 323.5 c 128,-1,20
 111 281 111 281 111 207 c 0,21,22
 111 49 111 49 238.5 49 c 128,-1,23
 366 49 366 49 366 207 c 2,24,-1
 366 341 l 1,25,-1
 370 366 l 1,26,-1
 317 366 l 1,27,-1
 317 420 l 1,28,-1
 370 420 l 1,29,-1
 366 445 l 1,30,-1
 366 489 l 1,31,32
 412 489 412 489 421 483 c 128,-1,33
 430 477 430 477 430 443 c 1,34,-1
 426 420 l 1,35,-1
 507 420 l 1,36,37
 507 384 507 384 499.5 375 c 128,-1,38
 492 366 492 366 457 366 c 2,39,-1
 426 366 l 1,40,-1
 430 341 l 1,41,-1
 430 207 l 2,42,43
 430 100 430 100 384.5 46.5 c 128,-1,44
 339 -7 339 -7 239 -7 c 128,-1,45
 139 -7 139 -7 93.5 46 c 128,-1,46
 48 99 48 99 48 208 c 0,47,48
 48 271 48 271 72.5 320 c 128,-1,49
 97 369 97 369 134 397 c 1,50,51
 109 415 109 415 98.5 425 c 128,-1,52
 88 435 88 435 77.5 462.5 c 128,-1,53
 67 490 67 490 67 530 c 0,54,55
 67 701 67 701 209 701 c 1,56,-1
 329 692 l 1,0,-1
EndSplineSet
EndChar

StartChar: quotesingle
Encoding: 39 39 10
Width: 165
GlyphClass: 2
Flags: W
LayerCount: 2
Fore
SplineSet
32 530 m 1,0,1
 56 616 56 616 56 648 c 1,2,-1
 53 687 l 1,3,4
 53 706 53 706 66.5 719 c 128,-1,5
 80 732 80 732 99 732 c 128,-1,6
 118 732 118 732 131.5 718.5 c 128,-1,7
 145 705 145 705 145 685.5 c 128,-1,8
 145 666 145 666 126.5 621 c 128,-1,9
 108 576 108 576 90 540 c 1,10,-1
 71 505 l 1,11,-1
 32 530 l 1,0,1
EndSplineSet
EndChar

StartChar: parenleft
Encoding: 40 40 11
Width: 248
GlyphClass: 2
Flags: W
LayerCount: 2
Fore
SplineSet
237 -110 m 1,0,1
 201 -110 201 -110 174 -105 c 128,-1,2
 147 -100 147 -100 126.5 -83.5 c 128,-1,3
 106 -67 106 -67 92.5 -53 c 128,-1,4
 79 -39 79 -39 70 -4 c 128,-1,5
 61 31 61 31 56 54.5 c 128,-1,6
 51 78 51 78 49 132 c 0,7,8
 46 213 46 213 46 317 c 128,-1,9
 46 421 46 421 47 465.5 c 128,-1,10
 48 510 48 510 53.5 573.5 c 128,-1,11
 59 637 59 637 70.5 664 c 128,-1,12
 82 691 82 691 103 721.5 c 128,-1,13
 124 752 124 752 157 762 c 128,-1,14
 190 772 190 772 237 772 c 1,15,16
 237 737 237 737 230.5 731 c 128,-1,17
 224 725 224 725 187 725 c 0,18,19
 134 725 134 725 121.5 642.5 c 128,-1,20
 109 560 109 560 109 345 c 0,21,22
 109 335 109 335 109 317 c 0,23,24
 109 96 109 96 121 16.5 c 128,-1,25
 133 -63 133 -63 187 -63 c 0,26,27
 224 -63 224 -63 230.5 -69 c 128,-1,28
 237 -75 237 -75 237 -110 c 1,0,1
EndSplineSet
EndChar

StartChar: parenright
Encoding: 41 41 12
Width: 249
GlyphClass: 2
Flags: W
LayerCount: 2
Fore
SplineSet
11 -110 m 1,0,1
 11 -75 11 -75 17.5 -69 c 128,-1,2
 24 -63 24 -63 61 -63 c 0,3,4
 114 -63 114 -63 126.5 15.5 c 128,-1,5
 139 94 139 94 139 326.5 c 128,-1,6
 139 559 139 559 129 624 c 1,7,8
 110 721 110 721 61 725 c 1,9,10
 24 725 24 725 17.5 731 c 128,-1,11
 11 737 11 737 11 772 c 1,12,13
 58 772 58 772 91 762 c 128,-1,14
 124 752 124 752 145 721.5 c 128,-1,15
 166 691 166 691 177.5 664 c 128,-1,16
 189 637 189 637 194 574 c 0,17,18
 202 487 202 487 202 370 c 128,-1,19
 202 253 202 253 201.5 219.5 c 128,-1,20
 201 186 201 186 199 132 c 128,-1,21
 197 78 197 78 192 54.5 c 128,-1,22
 187 31 187 31 178 -4 c 128,-1,23
 169 -39 169 -39 155.5 -53 c 128,-1,24
 142 -67 142 -67 121.5 -83.5 c 128,-1,25
 101 -100 101 -100 74 -105 c 128,-1,26
 47 -110 47 -110 11 -110 c 1,0,1
EndSplineSet
EndChar

StartChar: asterisk
Encoding: 42 42 13
Width: 302
GlyphClass: 2
Flags: W
LayerCount: 2
Fore
SplineSet
234 520 m 1,0,-1
 189 495 l 1,1,-1
 149 573 l 1,2,-1
 111 497 l 1,3,-1
 67 522 l 1,4,-1
 114 592 l 1,5,-1
 29 587 l 1,6,-1
 29 638 l 1,7,-1
 116 633 l 1,8,-1
 67 706 l 1,9,-1
 111 732 l 1,10,-1
 151 654 l 1,11,-1
 189 731 l 1,12,-1
 233 705 l 1,13,-1
 186 633 l 1,14,-1
 270 638 l 1,15,-1
 271 587 l 1,16,-1
 183 592 l 1,17,-1
 234 520 l 1,0,-1
EndSplineSet
EndChar

StartChar: plus
Encoding: 43 43 14
Width: 243
GlyphClass: 2
Flags: W
LayerCount: 2
Fore
SplineSet
147 208 m 1,0,-1
 96 208 l 1,1,-1
 96 275 l 1,2,-1
 100 300 l 1,3,-1
 15 300 l 1,4,-1
 15 351 l 1,5,-1
 100 351 l 1,6,-1
 96 376 l 1,7,-1
 96 442 l 1,8,-1
 147 442 l 1,9,-1
 147 376 l 1,10,-1
 143 351 l 1,11,-1
 229 351 l 1,12,-1
 229 300 l 1,13,-1
 143 300 l 1,14,-1
 147 275 l 1,15,-1
 147 208 l 1,0,-1
EndSplineSet
EndChar

StartChar: comma
Encoding: 44 44 15
Width: 154
GlyphClass: 2
Flags: W
LayerCount: 2
Fore
SplineSet
32 -96 m 1,0,1
 58 -34 58 -34 58 -7 c 128,-1,2
 58 20 58 20 52.5 32.5 c 128,-1,3
 47 45 47 45 47 46 c 0,4,5
 47 65 47 65 60.5 78 c 128,-1,6
 74 91 74 91 93 91 c 0,7,8
 133 91 133 91 133 51 c 0,9,10
 133 14 133 14 82 -82 c 2,11,-1
 65 -114 l 1,12,-1
 32 -96 l 1,0,1
EndSplineSet
EndChar

StartChar: hyphen
Encoding: 45 45 16
Width: 336
GlyphClass: 2
Flags: W
LayerCount: 2
Fore
SplineSet
274 300 m 1,0,-1
 60 300 l 1,1,-1
 60 351 l 1,2,-1
 274 351 l 1,3,-1
 274 300 l 1,0,-1
EndSplineSet
EndChar

StartChar: period
Encoding: 46 46 17
Width: 177
GlyphClass: 2
Flags: W
LayerCount: 2
Fore
SplineSet
89 0 m 128,-1,1
 70 0 70 0 56.5 13.5 c 128,-1,2
 43 27 43 27 43 46 c 128,-1,3
 43 65 43 65 56.5 78 c 128,-1,4
 70 91 70 91 89 91 c 128,-1,5
 108 91 108 91 121.5 78 c 128,-1,6
 135 65 135 65 135 46 c 128,-1,7
 135 27 135 27 121.5 13.5 c 128,-1,0
 108 0 108 0 89 0 c 128,-1,1
EndSplineSet
EndChar

StartChar: slash
Encoding: 47 47 18
Width: 372
GlyphClass: 2
Flags: W
LayerCount: 2
Fore
SplineSet
73 -200 m 1,0,-1
 9 -200 l 1,1,-1
 303 732 l 1,2,-1
 367 732 l 1,3,-1
 73 -200 l 1,0,-1
EndSplineSet
EndChar

StartChar: zero
Encoding: 48 48 19
Width: 410
GlyphClass: 2
Flags: W
LayerCount: 2
Fore
SplineSet
206 -7 m 128,-1,1
 170 -7 170 -7 144.5 1 c 128,-1,2
 119 9 119 9 103 35 c 128,-1,3
 87 61 87 61 78 83 c 128,-1,4
 69 105 69 105 65 158.5 c 128,-1,5
 61 212 61 212 60.5 248.5 c 128,-1,6
 60 285 60 285 60 366 c 128,-1,7
 60 447 60 447 60.5 483 c 128,-1,8
 61 519 61 519 65 572 c 128,-1,9
 69 625 69 625 78 646 c 128,-1,10
 87 667 87 667 103 692 c 128,-1,11
 119 717 119 717 144.5 724.5 c 128,-1,12
 170 732 170 732 206 732 c 128,-1,13
 242 732 242 732 267 724 c 128,-1,14
 292 716 292 716 308 691.5 c 128,-1,15
 324 667 324 667 333 646 c 128,-1,16
 342 625 342 625 346 572 c 128,-1,17
 350 519 350 519 350.5 483 c 128,-1,18
 351 447 351 447 351 366 c 128,-1,19
 351 285 351 285 350.5 248.5 c 128,-1,20
 350 212 350 212 346 158.5 c 128,-1,21
 342 105 342 105 333 83 c 128,-1,22
 324 61 324 61 308 35 c 128,-1,23
 292 9 292 9 267 1 c 128,-1,0
 242 -7 242 -7 206 -7 c 128,-1,1
136 124.5 m 128,-1,25
 149 59 149 59 205.5 59 c 128,-1,26
 262 59 262 59 275 124.5 c 128,-1,27
 288 190 288 190 288 365 c 128,-1,28
 288 540 288 540 275 603.5 c 128,-1,29
 262 667 262 667 205.5 667 c 128,-1,30
 149 667 149 667 136 604 c 128,-1,31
 123 541 123 541 123 365.5 c 128,-1,24
 123 190 123 190 136 124.5 c 128,-1,25
EndSplineSet
EndChar

StartChar: one
Encoding: 49 49 20
Width: 410
GlyphClass: 2
Flags: W
LayerCount: 2
Fore
SplineSet
118 57 m 2,0,-1
 173 57 l 1,1,-1
 173 667 l 1,2,-1
 110 657 l 1,3,-1
 110 710 l 1,4,-1
 173 720 l 1,5,-1
 178 720 l 2,6,7
 221 720 221 720 228.5 714 c 128,-1,8
 236 708 236 708 236 674 c 2,9,-1
 236 57 l 1,10,-1
 343 57 l 1,11,-1
 343 0 l 1,12,-1
 60 0 l 1,13,14
 60 41 60 41 67.5 49 c 128,-1,15
 75 57 75 57 118 57 c 2,0,-1
EndSplineSet
EndChar

StartChar: two
Encoding: 50 50 21
Width: 410
GlyphClass: 2
Flags: W
LayerCount: 2
Fore
SplineSet
335 0 m 1,0,-1
 62 0 l 1,1,-1
 62 229 l 2,2,3
 62 300 62 300 134 377 c 0,4,5
 164 409 164 409 194 440 c 0,6,7
 266 514 266 514 266 573 c 0,8,9
 266 601 266 601 264 615 c 128,-1,10
 262 629 262 629 252 646 c 0,11,12
 236 675 236 675 160 675 c 2,13,-1
 110 675 l 2,14,15
 73 675 73 675 66.5 681 c 128,-1,16
 60 687 60 687 60 722 c 1,17,-1
 166 732 l 1,18,19
 225 732 225 732 274 718 c 0,20,21
 300 710 300 710 322 676 c 0,22,23
 333 659 333 659 334 627 c 128,-1,24
 335 595 335 595 335 566 c 0,25,26
 335 516 335 516 302.5 464 c 128,-1,27
 270 412 270 412 232 375 c 0,28,29
 128 276 128 276 128 221 c 2,30,-1
 128 82 l 1,31,-1
 124 57 l 1,32,-1
 335 57 l 1,33,-1
 335 0 l 1,0,-1
EndSplineSet
EndChar

StartChar: three
Encoding: 51 51 22
Width: 410
GlyphClass: 2
Flags: W
LayerCount: 2
Fore
SplineSet
60 59 m 1,0,1
 130 49 130 49 164 49 c 0,2,3
 223 49 223 49 235 81.5 c 128,-1,4
 247 114 247 114 247 241 c 128,-1,5
 247 368 247 368 235 399.5 c 128,-1,6
 223 431 223 431 164 431 c 2,7,-1
 115 431 l 1,8,-1
 213 667 l 1,9,-1
 61 667 l 1,10,-1
 61 720 l 1,11,-1
 300 720 l 1,12,-1
 203 483 l 1,13,14
 230 481 230 481 247.5 476 c 128,-1,15
 265 471 265 471 277.5 457.5 c 128,-1,16
 290 444 290 444 296 431.5 c 128,-1,17
 302 419 302 419 306 388 c 0,18,19
 310 349 310 349 310 227.5 c 128,-1,20
 310 106 310 106 301 68 c 0,21,22
 289 15 289 15 243 1 c 0,23,24
 216 -7 216 -7 184.5 -7 c 128,-1,25
 153 -7 153 -7 135 -4.5 c 128,-1,26
 117 -2 117 -2 94 3 c 128,-1,27
 71 8 71 8 60 10 c 1,28,-1
 60 59 l 1,0,1
EndSplineSet
EndChar

StartChar: four
Encoding: 52 52 23
Width: 410
GlyphClass: 2
Flags: W
LayerCount: 2
Fore
SplineSet
294 0 m 1,0,-1
 292 0 l 2,1,2
 249 0 249 0 241.5 6 c 128,-1,3
 234 12 234 12 234 46 c 2,4,-1
 234 223 l 1,5,-1
 238 248 l 1,6,-1
 20 248 l 1,7,-1
 220 720 l 1,8,-1
 294 720 l 1,9,-1
 294 325 l 1,10,-1
 290 300 l 1,11,-1
 334 300 l 1,12,-1
 334 248 l 1,13,-1
 290 248 l 1,14,-1
 294 223 l 1,15,-1
 294 0 l 1,0,-1
234 620 m 1,16,-1
 226 620 l 1,17,-1
 112 300 l 1,18,-1
 238 300 l 1,19,-1
 234 325 l 1,20,-1
 234 620 l 1,16,-1
EndSplineSet
EndChar

StartChar: five
Encoding: 53 53 24
Width: 410
GlyphClass: 2
Flags: W
LayerCount: 2
Fore
SplineSet
60 46 m 1,0,-1
 164 46 l 2,1,2
 223 46 223 46 235 80 c 128,-1,3
 247 114 247 114 247 241 c 128,-1,4
 247 368 247 368 235 399.5 c 128,-1,5
 223 431 223 431 164 431 c 2,6,-1
 61 431 l 1,7,-1
 61 720 l 1,8,-1
 300 720 l 1,9,-1
 300 667 l 1,10,-1
 120 667 l 1,11,-1
 124 642 l 1,12,-1
 124 509 l 1,13,-1
 120 484 l 1,14,-1
 196 484 l 2,15,16
 257 484 257 484 276 460 c 0,17,18
 285 450 285 450 290.5 442.5 c 128,-1,19
 296 435 296 435 300 416 c 128,-1,20
 304 397 304 397 306 384.5 c 128,-1,21
 308 372 308 372 309 343.5 c 128,-1,22
 310 315 310 315 310 298 c 2,23,-1
 310 186 l 2,24,25
 310 112 310 112 303.5 80.5 c 128,-1,26
 297 49 297 49 292 42 c 128,-1,27
 287 35 287 35 279.5 23.5 c 128,-1,28
 272 12 272 12 262 8.5 c 128,-1,29
 252 5 252 5 238 0 c 0,30,31
 218 -7 218 -7 169 -7 c 1,32,-1
 60 0 l 1,33,-1
 60 46 l 1,0,-1
EndSplineSet
EndChar

StartChar: six
Encoding: 54 54 25
Width: 410
GlyphClass: 2
Flags: W
LayerCount: 2
Fore
SplineSet
189 53 m 0,0,1
 248 53 248 53 260 86 c 128,-1,2
 272 119 272 119 272 247 c 128,-1,3
 272 375 272 375 260 406.5 c 128,-1,4
 248 438 248 438 189 438 c 1,5,-1
 126 415 l 1,6,7
 119 316 119 316 122 232 c 128,-1,8
 125 148 125 148 131 112.5 c 128,-1,9
 137 77 137 77 151 65 c 128,-1,10
 165 53 165 53 189 53 c 0,0,1
335 304 m 2,11,-1
 335 248 l 2,12,13
 335 88 335 88 313.5 44 c 128,-1,14
 292 0 292 0 189 0 c 0,15,16
 124 0 124 0 100 34 c 1,17,18
 85 53 85 53 77 72.5 c 128,-1,19
 69 92 69 92 66 132 c 0,20,21
 60 196 60 196 60 273.5 c 128,-1,22
 60 351 60 351 60.5 386 c 128,-1,23
 61 421 61 421 63 467 c 128,-1,24
 65 513 65 513 69 542 c 128,-1,25
 73 571 73 571 79.5 605 c 128,-1,26
 86 639 86 639 96.5 659 c 128,-1,27
 107 679 107 679 122 698 c 0,28,29
 149 732 149 732 201 732 c 1,30,-1
 321 722 l 1,31,32
 321 687 321 687 314.5 681 c 128,-1,33
 308 675 308 675 271 675 c 2,34,-1
 201 675 l 2,35,36
 165 675 165 675 153 633 c 128,-1,37
 141 591 141 591 130 466 c 1,38,-1
 189 491 l 1,39,40
 240 491 240 491 257.5 485.5 c 128,-1,41
 275 480 275 480 285 476.5 c 128,-1,42
 295 473 295 473 303.5 462 c 128,-1,43
 312 451 312 451 317 444.5 c 128,-1,44
 322 438 322 438 325.5 419 c 128,-1,45
 329 400 329 400 331 388 c 0,46,47
 335 366 335 366 335 304 c 2,11,-1
EndSplineSet
EndChar

StartChar: seven
Encoding: 55 55 26
Width: 410
GlyphClass: 2
Flags: W
LayerCount: 2
Fore
SplineSet
80 667 m 1,0,-1
 80 720 l 1,1,-1
 356 720 l 1,2,-1
 356 667 l 1,3,-1
 124 0 l 1,4,-1
 60 0 l 1,5,-1
 287 667 l 1,6,-1
 80 667 l 1,0,-1
EndSplineSet
EndChar

StartChar: eight
Encoding: 56 56 27
Width: 410
GlyphClass: 2
Flags: W
LayerCount: 2
Fore
SplineSet
79 559 m 0,0,1
 79 740 79 740 211 740 c 0,2,3
 270 740 270 740 306 697.5 c 128,-1,4
 342 655 342 655 342 559 c 0,5,6
 342 435 342 435 277 388 c 1,7,8
 362 324 362 324 362 214.5 c 128,-1,9
 362 105 362 105 321.5 49 c 128,-1,10
 281 -7 281 -7 210.5 -7 c 128,-1,11
 140 -7 140 -7 100 48 c 128,-1,12
 60 103 60 103 60 208 c 0,13,14
 60 271 60 271 84.5 320 c 128,-1,15
 109 369 109 369 146 397 c 1,16,17
 79 446 79 446 79 559 c 0,0,1
123 207 m 0,18,19
 123 49 123 49 210.5 49 c 128,-1,20
 298 49 298 49 298 207 c 0,21,22
 298 280 298 280 272 323 c 128,-1,23
 246 366 246 366 210.5 366 c 128,-1,24
 175 366 175 366 149 323 c 128,-1,25
 123 280 123 280 123 207 c 0,18,19
211 425 m 128,-1,27
 246 425 246 425 262.5 455 c 128,-1,28
 279 485 279 485 279 558 c 128,-1,29
 279 631 279 631 262.5 657.5 c 128,-1,30
 246 684 246 684 210.5 684 c 128,-1,31
 175 684 175 684 159 658 c 128,-1,32
 143 632 143 632 143 558.5 c 128,-1,33
 143 485 143 485 159.5 455 c 128,-1,26
 176 425 176 425 211 425 c 128,-1,27
EndSplineSet
EndChar

StartChar: nine
Encoding: 57 57 28
Width: 410
GlyphClass: 2
Flags: W
LayerCount: 2
Fore
SplineSet
270 326 m 1,0,1
 272 364 272 364 272 402.5 c 128,-1,2
 272 441 272 441 272 452 c 0,3,4
 272 605 272 605 262.5 642 c 128,-1,5
 253 679 253 679 200 679 c 128,-1,6
 147 679 147 679 135 646 c 128,-1,7
 123 613 123 613 123 485 c 128,-1,8
 123 357 123 357 135 325.5 c 128,-1,9
 147 294 147 294 206 294 c 1,10,-1
 270 326 l 1,0,1
64 57 m 1,11,-1
 184 57 l 2,12,13
 218 57 218 57 237 108.5 c 128,-1,14
 256 160 256 160 266 275 c 1,15,-1
 206 241 l 1,16,17
 155 241 155 241 137.5 246.5 c 128,-1,18
 120 252 120 252 110 255.5 c 128,-1,19
 100 259 100 259 91.5 270 c 128,-1,20
 83 281 83 281 78 287.5 c 128,-1,21
 73 294 73 294 69.5 313 c 128,-1,22
 66 332 66 332 64 343.5 c 128,-1,23
 62 355 62 355 61 383 c 128,-1,24
 60 411 60 411 60 428 c 2,25,-1
 60 484 l 2,26,27
 60 644 60 644 81.5 688 c 128,-1,28
 103 732 103 732 206 732 c 0,29,30
 276 732 276 732 296 709 c 0,31,32
 305 698 305 698 312 689.5 c 128,-1,33
 319 681 319 681 323 659.5 c 128,-1,34
 327 638 327 638 329.5 621.5 c 128,-1,35
 332 605 332 605 333 571 c 0,36,37
 335 503 335 503 335 446 c 2,38,-1
 335 363 l 2,39,40
 335 276 335 276 331.5 243 c 128,-1,41
 328 210 328 210 324.5 177.5 c 128,-1,42
 321 145 321 145 315.5 126 c 128,-1,43
 310 107 310 107 302 83.5 c 128,-1,44
 294 60 294 60 282.5 47.5 c 128,-1,45
 271 35 271 35 257 22 c 0,46,47
 232 0 232 0 184 0 c 1,48,-1
 64 10 l 1,49,-1
 64 57 l 1,11,-1
EndSplineSet
EndChar

StartChar: colon
Encoding: 58 58 29
Width: 181
GlyphClass: 2
Flags: W
LayerCount: 2
Fore
SplineSet
87 0 m 128,-1,1
 68 0 68 0 54.5 13.5 c 128,-1,2
 41 27 41 27 41 46 c 128,-1,3
 41 65 41 65 54.5 78 c 128,-1,4
 68 91 68 91 87 91 c 128,-1,5
 106 91 106 91 119.5 78 c 128,-1,6
 133 65 133 65 133 46 c 128,-1,7
 133 27 133 27 119.5 13.5 c 128,-1,0
 106 0 106 0 87 0 c 128,-1,1
94 446 m 128,-1,9
 75 446 75 446 61.5 459.5 c 128,-1,10
 48 473 48 473 48 492 c 128,-1,11
 48 511 48 511 61.5 524 c 128,-1,12
 75 537 75 537 94 537 c 128,-1,13
 113 537 113 537 126.5 524 c 128,-1,14
 140 511 140 511 140 492 c 128,-1,15
 140 473 140 473 126.5 459.5 c 128,-1,8
 113 446 113 446 94 446 c 128,-1,9
EndSplineSet
EndChar

StartChar: semicolon
Encoding: 59 59 30
Width: 153
GlyphClass: 2
Flags: W
LayerCount: 2
Fore
SplineSet
88 446 m 128,-1,1
 69 446 69 446 55.5 459.5 c 128,-1,2
 42 473 42 473 42 492 c 128,-1,3
 42 511 42 511 55.5 524 c 128,-1,4
 69 537 69 537 88 537 c 128,-1,5
 107 537 107 537 120.5 524 c 128,-1,6
 134 511 134 511 134 492 c 128,-1,7
 134 473 134 473 120.5 459.5 c 128,-1,0
 107 446 107 446 88 446 c 128,-1,1
32 -96 m 1,8,9
 58 -34 58 -34 58 -7 c 128,-1,10
 58 20 58 20 52.5 32.5 c 128,-1,11
 47 45 47 45 47 46 c 0,12,13
 47 65 47 65 60.5 78 c 128,-1,14
 74 91 74 91 93 91 c 0,15,16
 133 91 133 91 133 51 c 0,17,18
 133 14 133 14 82 -82 c 2,19,-1
 65 -114 l 1,20,-1
 32 -96 l 1,8,9
EndSplineSet
EndChar

StartChar: less
Encoding: 60 60 31
Width: 237
GlyphClass: 2
Flags: W
LayerCount: 2
Fore
SplineSet
198 57 m 1,0,-1
 143 57 l 1,1,-1
 10 288 l 1,2,-1
 10 314 l 1,3,-1
 143 537 l 1,4,-1
 197 537 l 1,5,-1
 59 301 l 1,6,-1
 198 57 l 1,0,-1
EndSplineSet
EndChar

StartChar: equal
Encoding: 61 61 32
Width: 363
GlyphClass: 2
Flags: W
LayerCount: 2
Fore
SplineSet
333 351 m 1,0,-1
 60 351 l 1,1,-1
 60 402 l 1,2,-1
 333 402 l 1,3,-1
 333 351 l 1,0,-1
333 247 m 1,4,-1
 60 247 l 1,5,-1
 60 298 l 1,6,-1
 333 298 l 1,7,-1
 333 247 l 1,4,-1
EndSplineSet
EndChar

StartChar: greater
Encoding: 62 62 33
Width: 236
GlyphClass: 2
Flags: W
LayerCount: 2
Fore
SplineSet
93 57 m 1,0,-1
 38 57 l 1,1,-1
 177 301 l 1,2,-1
 39 537 l 1,3,-1
 93 537 l 1,4,-1
 226 314 l 1,5,-1
 226 288 l 1,6,-1
 93 57 l 1,0,-1
EndSplineSet
EndChar

StartChar: question
Encoding: 63 63 34
Width: 339
GlyphClass: 2
Flags: W
LayerCount: 2
Fore
SplineSet
106 0 m 128,-1,1
 87 0 87 0 73.5 13.5 c 128,-1,2
 60 27 60 27 60 46 c 128,-1,3
 60 65 60 65 73.5 78 c 128,-1,4
 87 91 87 91 106 91 c 128,-1,5
 125 91 125 91 138.5 78 c 128,-1,6
 152 65 152 65 152 46 c 128,-1,7
 152 27 152 27 138.5 13.5 c 128,-1,0
 125 0 125 0 106 0 c 128,-1,1
133 198 m 1,8,-1
 75 198 l 1,9,-1
 75 229 l 2,10,11
 75 300 75 300 133 377 c 0,12,13
 157 409 157 409 181 440 c 0,14,15
 239 515 239 515 239 570.5 c 128,-1,16
 239 626 239 626 219 650.5 c 128,-1,17
 199 675 199 675 127 675 c 2,18,-1
 87 675 l 2,19,20
 50 675 50 675 43.5 681 c 128,-1,21
 37 687 37 687 37 722 c 1,22,-1
 133 732 l 1,23,24
 238 732 238 732 269 700 c 0,25,26
 281 687 281 687 287.5 677 c 128,-1,27
 294 667 294 667 297 646 c 0,28,29
 301 618 301 618 301 568.5 c 128,-1,30
 301 519 301 519 274.5 467.5 c 128,-1,31
 248 416 248 416 217 380 c 0,32,33
 133 284 133 284 133 229 c 2,34,-1
 133 198 l 1,8,-1
EndSplineSet
EndChar

StartChar: at
Encoding: 64 64 35
Width: 556
GlyphClass: 2
Flags: W
LayerCount: 2
Fore
SplineSet
318 350 m 1,0,1
 242 350 242 350 242 330 c 2,2,-1
 241 264 l 2,3,4
 241 258 241 258 241 232 c 128,-1,5
 241 206 241 206 248 204 c 1,6,-1
 320 236 l 1,7,-1
 318 247 l 1,8,-1
 318 350 l 1,0,1
428 -16 m 1,9,-1
 192 -16 l 2,10,11
 110 -16 110 -16 82 43.5 c 128,-1,12
 54 103 54 103 52 282 c 0,13,14
 52 315 52 315 52 391 c 128,-1,15
 52 467 52 467 74 496 c 128,-1,16
 96 525 96 525 176 531 c 1,17,-1
 418 544 l 2,18,19
 424 544 424 544 430 544 c 0,20,21
 478 544 478 544 496.5 520.5 c 128,-1,22
 515 497 515 497 515 447 c 2,23,-1
 515 290 l 2,24,25
 515 197 515 197 498 182 c 0,26,27
 476 161 476 161 447.5 159 c 128,-1,28
 419 157 419 157 385 157 c 128,-1,29
 351 157 351 157 338.5 164.5 c 128,-1,30
 326 172 326 172 319 189 c 1,31,-1
 257 152 l 1,32,33
 237 152 237 152 227.5 152.5 c 128,-1,34
 218 153 218 153 208.5 158.5 c 128,-1,35
 199 164 199 164 196 169.5 c 128,-1,36
 193 175 193 175 190 193.5 c 128,-1,37
 187 212 187 212 187 228 c 2,38,-1
 187 319 l 2,39,40
 187 400 187 400 323 402 c 1,41,-1
 369 402 l 1,42,-1
 369 229 l 1,43,-1
 362 210 l 1,44,-1
 386 210 l 2,45,46
 439 210 439 210 449 223 c 128,-1,47
 459 236 459 236 459 288 c 2,48,-1
 459 453 l 2,49,50
 459 489 459 489 423 489 c 0,51,52
 421 489 421 489 419 489 c 2,53,-1
 176 473 l 1,54,55
 130 471 130 471 118 448 c 0,56,57
 110 433 110 433 110 401 c 0,58,59
 110 182 110 182 123 109.5 c 128,-1,60
 136 37 136 37 195 37 c 2,61,-1
 376 37 l 2,62,63
 415 37 415 37 421.5 30 c 128,-1,64
 428 23 428 23 428 -16 c 1,9,-1
EndSplineSet
EndChar

StartChar: A
Encoding: 65 65 36
Width: 435
GlyphClass: 2
Flags: W
LayerCount: 2
Fore
SplineSet
405 0 m 2,0,1
 360 0 360 0 351.5 6 c 128,-1,2
 343 12 343 12 335 46 c 2,3,-1
 291 245 l 1,4,-1
 139 245 l 1,5,-1
 85 0 l 1,6,7
 69 0 69 0 57 0 c 128,-1,8
 45 0 45 0 37 2 c 128,-1,9
 29 4 29 4 27 7 c 128,-1,10
 25 10 25 10 25 17 c 128,-1,11
 25 24 25 24 183 720 c 1,12,-1
 247 720 l 1,13,-1
 410 0 l 1,14,-1
 405 0 l 2,0,1
284 300 m 1,15,-1
 275 325 l 1,16,-1
 225 592 l 1,17,-1
 206 592 l 1,18,-1
 157 325 l 1,19,-1
 148 300 l 1,20,-1
 284 300 l 1,15,-1
EndSplineSet
EndChar

StartChar: B
Encoding: 66 66 37
Width: 421
GlyphClass: 2
Flags: W
LayerCount: 2
Fore
SplineSet
353.5 586 m 128,-1,1
 354 570 354 570 354 531 c 128,-1,2
 354 492 354 492 353 472 c 0,3,4
 350 419 350 419 323 395 c 1,5,6
 366 371 366 371 376 311 c 0,7,8
 384 267 384 267 384 214.5 c 128,-1,9
 384 162 384 162 383.5 145 c 128,-1,10
 383 128 383 128 379.5 102.5 c 128,-1,11
 376 77 376 77 369 64 c 128,-1,12
 362 51 362 51 348.5 35 c 128,-1,13
 335 19 335 19 316 12 c 0,14,15
 267 -7 267 -7 199 -7 c 1,16,-1
 75 0 l 1,17,-1
 75 722 l 1,18,-1
 179 732 l 1,19,20
 290 732 290 732 322 692 c 0,21,22
 334 676 334 676 340.5 664 c 128,-1,23
 347 652 347 652 350 627 c 128,-1,0
 353 602 353 602 353.5 586 c 128,-1,1
169 419 m 2,24,25
 221 419 221 419 236.5 423 c 128,-1,26
 252 427 252 427 260 429.5 c 128,-1,27
 268 432 268 432 274 441 c 128,-1,28
 280 450 280 450 282.5 455.5 c 128,-1,29
 285 461 285 461 287 477 c 128,-1,30
 289 493 289 493 289 504 c 2,31,-1
 289 537 l 2,32,33
 289 627 289 627 274 644 c 0,34,35
 253 668 253 668 226 671.5 c 128,-1,36
 199 675 199 675 169 675 c 2,37,-1
 134 675 l 1,38,-1
 138 650 l 1,39,-1
 138 444 l 1,40,-1
 134 419 l 1,41,-1
 169 419 l 2,24,25
199 50 m 2,42,43
 260 50 260 50 293 72 c 0,44,45
 315 86 315 86 318 140 c 0,46,47
 319 157 319 157 319 188 c 2,48,-1
 319 228 l 2,49,50
 319 274 319 274 317 282 c 128,-1,51
 315 290 315 290 312.5 304.5 c 128,-1,52
 310 319 310 319 306 323.5 c 128,-1,53
 302 328 302 328 296 337 c 128,-1,54
 290 346 290 346 282 348.5 c 128,-1,55
 274 351 274 351 264 356 c 1,56,57
 248 362 248 362 209 362 c 2,58,-1
 134 362 l 1,59,-1
 138 337 l 1,60,-1
 138 75 l 1,61,-1
 134 50 l 1,62,-1
 199 50 l 2,42,43
EndSplineSet
EndChar

StartChar: C
Encoding: 67 67 38
Width: 377
GlyphClass: 2
Flags: W
LayerCount: 2
Fore
SplineSet
292.5 0.5 m 128,-1,1
 259 -7 259 -7 233.5 -7 c 128,-1,2
 208 -7 208 -7 185 -0.5 c 128,-1,3
 162 6 162 6 145.5 15.5 c 128,-1,4
 129 25 129 25 116 44.5 c 128,-1,5
 103 64 103 64 94.5 80 c 128,-1,6
 86 96 86 96 80 126.5 c 128,-1,7
 74 157 74 157 71 177 c 128,-1,8
 68 197 68 197 66.5 236.5 c 128,-1,9
 65 276 65 276 65 298 c 2,10,-1
 65 427 l 2,11,12
 65 503 65 503 68.5 529 c 128,-1,13
 72 555 72 555 76 583.5 c 128,-1,14
 80 612 80 612 86.5 627 c 128,-1,15
 93 642 93 642 102 662 c 128,-1,16
 111 682 111 682 123.5 692.5 c 128,-1,17
 136 703 136 703 152 714 c 1,18,19
 182 732 182 732 236 732 c 1,20,-1
 336 712 l 1,21,22
 336 683 336 683 325 676 c 128,-1,23
 314 669 314 669 302.5 669 c 128,-1,24
 291 669 291 669 286 669 c 2,25,-1
 236 675 l 1,26,27
 194 675 194 675 174 650 c 1,28,29
 162 637 162 637 154 624 c 128,-1,30
 146 611 146 611 141.5 585 c 128,-1,31
 137 559 137 559 134 540.5 c 128,-1,32
 131 522 131 522 129.5 486.5 c 128,-1,33
 128 451 128 451 128 430 c 2,34,-1
 128 303 l 2,35,36
 128 228 128 228 132.5 201 c 128,-1,37
 137 174 137 174 141.5 148 c 128,-1,38
 146 122 146 122 154 109 c 128,-1,39
 162 96 162 96 174 82 c 0,40,41
 194 57 194 57 236 57 c 0,42,43
 259 57 259 57 291 61.5 c 128,-1,44
 323 66 323 66 337 67 c 1,45,-1
 337 10 l 1,46,0
 326 8 326 8 292.5 0.5 c 128,-1,1
EndSplineSet
EndChar

StartChar: D
Encoding: 68 68 39
Width: 472
GlyphClass: 2
Flags: W
LayerCount: 2
Fore
SplineSet
407 427 m 2,0,-1
 407 298 l 2,1,2
 407 217 407 217 402.5 187 c 128,-1,3
 398 157 398 157 392 126.5 c 128,-1,4
 386 96 386 96 377.5 80 c 128,-1,5
 369 64 369 64 356 44.5 c 128,-1,6
 343 25 343 25 326 16 c 0,7,8
 287 -7 287 -7 236 -7 c 1,9,-1
 75 0 l 1,10,-1
 75 722 l 1,11,-1
 236 732 l 1,12,13
 290 732 290 732 313 717.5 c 128,-1,14
 336 703 336 703 348.5 692.5 c 128,-1,15
 361 682 361 682 370 662 c 128,-1,16
 379 642 379 642 385.5 627 c 128,-1,17
 392 612 392 612 396 583.5 c 128,-1,18
 400 555 400 555 402 536 c 0,19,20
 407 503 407 503 407 427 c 2,0,-1
236 50 m 2,21,22
 277 50 277 50 298 76 c 0,23,24
 310 90 310 90 318 104 c 128,-1,25
 326 118 326 118 330.5 144.5 c 128,-1,26
 335 171 335 171 338 189.5 c 128,-1,27
 341 208 341 208 342.5 244.5 c 128,-1,28
 344 281 344 281 344 302 c 2,29,-1
 344 430 l 2,30,31
 344 504 344 504 339.5 531.5 c 128,-1,32
 335 559 335 559 330.5 585 c 128,-1,33
 326 611 326 611 318 624 c 128,-1,34
 310 637 310 637 298 650 c 1,35,36
 278 675 278 675 236 675 c 2,37,-1
 134 675 l 1,38,-1
 138 650 l 1,39,-1
 138 75 l 1,40,-1
 134 50 l 1,41,-1
 236 50 l 2,21,22
EndSplineSet
EndChar

StartChar: E
Encoding: 69 69 40
Width: 385
GlyphClass: 2
Flags: W
LayerCount: 2
Fore
SplineSet
348 0 m 1,0,-1
 75 0 l 1,1,-1
 75 720 l 1,2,-1
 338 720 l 1,3,-1
 338 667 l 1,4,-1
 137 667 l 1,5,-1
 141 642 l 1,6,-1
 141 443 l 1,7,-1
 137 418 l 1,8,-1
 324 418 l 1,9,-1
 324 361 l 1,10,-1
 137 361 l 1,11,-1
 141 336 l 1,12,-1
 141 82 l 1,13,-1
 137 57 l 1,14,-1
 348 57 l 1,15,-1
 348 0 l 1,0,-1
EndSplineSet
EndChar

StartChar: F
Encoding: 70 70 41
Width: 375
GlyphClass: 2
Flags: W
LayerCount: 2
Fore
SplineSet
141 0 m 1,0,-1
 133 0 l 2,1,2
 90 0 90 0 82.5 6 c 128,-1,3
 75 12 75 12 75 46 c 2,4,-1
 75 720 l 1,5,-1
 338 720 l 1,6,-1
 338 667 l 1,7,-1
 137 667 l 1,8,-1
 141 642 l 1,9,-1
 141 443 l 1,10,-1
 137 418 l 1,11,-1
 324 418 l 1,12,-1
 324 361 l 1,13,-1
 137 361 l 1,14,-1
 141 336 l 1,15,-1
 141 0 l 1,0,-1
EndSplineSet
EndChar

StartChar: G
Encoding: 71 71 42
Width: 446
GlyphClass: 2
Flags: W
LayerCount: 2
Fore
SplineSet
323 307 m 2,0,1
 323 350 323 350 329 357.5 c 128,-1,2
 335 365 335 365 369 365 c 2,3,-1
 386 365 l 1,4,-1
 386 10 l 1,5,6
 371 8 371 8 342 3 c 0,7,8
 284 -7 284 -7 251 -7 c 128,-1,9
 218 -7 218 -7 195 -0.5 c 128,-1,10
 172 6 172 6 155.5 15.5 c 128,-1,11
 139 25 139 25 126 44.5 c 128,-1,12
 113 64 113 64 104.5 80 c 128,-1,13
 96 96 96 96 90 126.5 c 128,-1,14
 84 157 84 157 81 177 c 128,-1,15
 78 197 78 197 76.5 236.5 c 128,-1,16
 75 276 75 276 75 298 c 2,17,-1
 75 427 l 2,18,19
 75 503 75 503 78.5 529 c 128,-1,20
 82 555 82 555 86 583.5 c 128,-1,21
 90 612 90 612 96.5 627 c 128,-1,22
 103 642 103 642 112 662 c 128,-1,23
 121 682 121 682 133.5 692.5 c 128,-1,24
 146 703 146 703 162 714 c 1,25,26
 192 732 192 732 246 732 c 1,27,-1
 366 712 l 1,28,29
 366 683 366 683 355 676 c 128,-1,30
 344 669 344 669 332.5 669 c 128,-1,31
 321 669 321 669 316 669 c 2,32,-1
 246 675 l 1,33,34
 204 675 204 675 184 650 c 1,35,36
 172 637 172 637 164 624 c 128,-1,37
 156 611 156 611 151.5 585 c 128,-1,38
 147 559 147 559 144 540.5 c 128,-1,39
 141 522 141 522 139.5 486.5 c 128,-1,40
 138 451 138 451 138 430 c 2,41,-1
 138 302 l 2,42,43
 138 226 138 226 142.5 198.5 c 128,-1,44
 147 171 147 171 151.5 144.5 c 128,-1,45
 156 118 156 118 164 104 c 128,-1,46
 172 90 172 90 184 76 c 0,47,48
 205 50 205 50 246 50 c 0,49,50
 277 50 277 50 327 60 c 1,51,-1
 323 85 l 1,52,-1
 323 307 l 2,0,1
EndSplineSet
EndChar

StartChar: H
Encoding: 72 72 43
Width: 457
GlyphClass: 2
Flags: W
LayerCount: 2
Fore
SplineSet
382 0 m 1,0,-1
 378 0 l 2,1,2
 335 0 335 0 327.5 6 c 128,-1,3
 320 12 320 12 320 46 c 2,4,-1
 320 336 l 1,5,-1
 324 361 l 1,6,-1
 133 361 l 1,7,-1
 137 336 l 1,8,-1
 137 46 l 2,9,10
 137 12 137 12 129.5 6 c 128,-1,11
 122 0 122 0 79 0 c 2,12,-1
 75 0 l 1,13,-1
 75 720 l 1,14,-1
 79 720 l 2,15,16
 122 720 122 720 129.5 714 c 128,-1,17
 137 708 137 708 137 674 c 2,18,-1
 137 443 l 1,19,-1
 133 418 l 1,20,-1
 324 418 l 1,21,-1
 320 443 l 1,22,-1
 320 720 l 1,23,-1
 324 720 l 2,24,25
 367 720 367 720 374.5 714 c 128,-1,26
 382 708 382 708 382 674 c 2,27,-1
 382 0 l 1,0,-1
EndSplineSet
EndChar

StartChar: I
Encoding: 73 73 44
Width: 213
GlyphClass: 2
Flags: W
LayerCount: 2
Fore
SplineSet
138 0 m 1,0,-1
 133 0 l 2,1,2
 90 0 90 0 82.5 6 c 128,-1,3
 75 12 75 12 75 46 c 2,4,-1
 75 720 l 1,5,-1
 80 720 l 2,6,7
 123 720 123 720 130.5 714 c 128,-1,8
 138 708 138 708 138 674 c 2,9,-1
 138 0 l 1,0,-1
EndSplineSet
EndChar

StartChar: J
Encoding: 74 74 45
Width: 246
GlyphClass: 2
Flags: W
LayerCount: 2
Fore
SplineSet
15 -200 m 1,0,-1
 15 -150 l 1,1,2
 56 -150 56 -150 74 -128 c 0,3,4
 85 -116 85 -116 92.5 -105 c 128,-1,5
 100 -94 100 -94 105 -70 c 128,-1,6
 110 -46 110 -46 112.5 -29.5 c 128,-1,7
 115 -13 115 -13 116.5 21.5 c 128,-1,8
 118 56 118 56 118 76 c 2,9,-1
 118 720 l 1,10,-1
 123 720 l 2,11,12
 166 720 166 720 173.5 714 c 128,-1,13
 181 708 181 708 181 674 c 2,14,-1
 181 139 l 2,15,16
 181 60 181 60 179.5 22.5 c 128,-1,17
 178 -15 178 -15 170 -67.5 c 128,-1,18
 162 -120 162 -120 145 -142.5 c 128,-1,19
 128 -165 128 -165 96 -182.5 c 128,-1,20
 64 -200 64 -200 15 -200 c 1,0,-1
EndSplineSet
EndChar

StartChar: K
Encoding: 75 75 46
Width: 412
GlyphClass: 2
Flags: W
LayerCount: 2
Fore
SplineSet
371 0 m 2,0,1
 324 0 324 0 310 6.5 c 128,-1,2
 296 13 296 13 280 46 c 1,3,-1
 151 363 l 1,4,-1
 300 720 l 1,5,-1
 304 720 l 2,6,7
 336 720 336 720 346.5 718 c 128,-1,8
 357 716 357 716 357 710 c 128,-1,9
 357 704 357 704 219 363 c 1,10,-1
 375 0 l 1,11,-1
 371 0 l 2,0,1
79 0 m 2,12,-1
 75 0 l 1,13,-1
 75 720 l 1,14,-1
 79 720 l 2,15,16
 122 720 122 720 129.5 714 c 128,-1,17
 137 708 137 708 137 674 c 2,18,-1
 137 46 l 2,19,20
 137 12 137 12 129.5 6 c 128,-1,21
 122 0 122 0 79 0 c 2,12,-1
EndSplineSet
EndChar

StartChar: L
Encoding: 76 76 47
Width: 361
GlyphClass: 2
Flags: W
LayerCount: 2
Fore
SplineSet
324 0 m 1,0,-1
 75 0 l 1,1,-1
 75 720 l 1,2,-1
 83 720 l 2,3,4
 126 720 126 720 133.5 714 c 128,-1,5
 141 708 141 708 141 674 c 2,6,-1
 141 82 l 1,7,-1
 137 57 l 1,8,-1
 266 57 l 2,9,10
 309 57 309 57 316.5 51 c 128,-1,11
 324 45 324 45 324 11 c 2,12,-1
 324 0 l 1,0,-1
EndSplineSet
EndChar

StartChar: M
Encoding: 77 77 48
Width: 584
GlyphClass: 2
Flags: W
LayerCount: 2
Fore
SplineSet
508 0 m 1,0,-1
 504 0 l 2,1,2
 461 0 461 0 454 6 c 128,-1,3
 447 12 447 12 446 46 c 1,4,-1
 450 578 l 1,5,-1
 439 578 l 1,6,-1
 435 560 l 1,7,-1
 334 347 l 1,8,-1
 310 301 l 1,9,-1
 270 301 l 1,10,-1
 245 346 l 1,11,-1
 142 560 l 1,12,-1
 139 578 l 1,13,-1
 129 578 l 1,14,-1
 132 46 l 2,15,16
 132 12 132 12 125 6 c 128,-1,17
 118 0 118 0 75 0 c 2,18,-1
 71 0 l 1,19,-1
 71 720 l 1,20,-1
 76 720 l 2,21,22
 119 720 119 720 128.5 714 c 128,-1,23
 138 708 138 708 155 674 c 1,24,-1
 282 400 l 1,25,-1
 297 400 l 1,26,-1
 446 720 l 1,27,-1
 451 720 l 2,28,29
 494 720 494 720 501 714 c 128,-1,30
 508 708 508 708 508 674 c 2,31,-1
 508 0 l 1,0,-1
EndSplineSet
EndChar

StartChar: N
Encoding: 78 78 49
Width: 455
GlyphClass: 2
Flags: W
LayerCount: 2
Fore
SplineSet
384 0 m 1,0,-1
 380 0 l 2,1,2
 337 0 337 0 328 5.5 c 128,-1,3
 319 11 319 11 306 46 c 1,4,-1
 144 521 l 1,5,-1
 139 548 l 1,6,-1
 132 548 l 1,7,-1
 132 46 l 2,8,9
 132 12 132 12 125 6 c 128,-1,10
 118 0 118 0 75 0 c 2,11,-1
 71 0 l 1,12,-1
 71 720 l 1,13,-1
 76 720 l 2,14,15
 118 720 118 720 127 714.5 c 128,-1,16
 136 709 136 709 149 674 c 1,17,-1
 311 188 l 1,18,-1
 316 161 l 1,19,-1
 323 161 l 1,20,-1
 323 720 l 1,21,-1
 327 720 l 2,22,23
 370 720 370 720 377 714 c 128,-1,24
 384 708 384 708 384 674 c 2,25,-1
 384 0 l 1,0,-1
EndSplineSet
EndChar

StartChar: O
Encoding: 79 79 50
Width: 481
GlyphClass: 2
Flags: W
LayerCount: 2
Fore
SplineSet
241 -7 m 128,-1,1
 137 -7 137 -7 101 78.5 c 128,-1,2
 65 164 65 164 65 365.5 c 128,-1,3
 65 567 65 567 101 649.5 c 128,-1,4
 137 732 137 732 241 732 c 128,-1,5
 345 732 345 732 380.5 649.5 c 128,-1,6
 416 567 416 567 416 365.5 c 128,-1,7
 416 164 416 164 380.5 78.5 c 128,-1,0
 345 -7 345 -7 241 -7 c 128,-1,1
241 50 m 0,8,9
 304 50 304 50 326.5 126.5 c 128,-1,10
 349 203 349 203 349 365 c 0,11,12
 349 521 349 521 328 594 c 0,13,14
 304 675 304 675 241 675 c 128,-1,15
 178 675 178 675 155 600.5 c 128,-1,16
 132 526 132 526 132 392.5 c 128,-1,17
 132 259 132 259 140 194 c 0,18,19
 158 50 158 50 241 50 c 0,8,9
EndSplineSet
EndChar

StartChar: P
Encoding: 80 80 51
Width: 459
GlyphClass: 2
Flags: W
LayerCount: 2
Fore
SplineSet
80 0 m 2,0,-1
 75 0 l 1,1,-1
 75 722 l 1,2,-1
 209 732 l 1,3,4
 326 732 326 732 360 692 c 0,5,6
 373 676 373 676 379.5 664 c 128,-1,7
 386 652 386 652 390 627 c 0,8,9
 394 595 394 595 394 543.5 c 128,-1,10
 394 492 394 492 392.5 470 c 128,-1,11
 391 448 391 448 381.5 418.5 c 128,-1,12
 372 389 372 389 353 376 c 0,13,14
 306 342 306 342 209 342 c 2,15,-1
 134 342 l 1,16,-1
 138 317 l 1,17,-1
 138 46 l 2,18,19
 138 12 138 12 130 6 c 128,-1,20
 122 0 122 0 80 0 c 2,0,-1
209 399 m 2,21,22
 272 399 272 399 289.5 410.5 c 128,-1,23
 307 422 307 422 314 430 c 128,-1,24
 321 438 321 438 324.5 458 c 128,-1,25
 328 478 328 478 328.5 492 c 128,-1,26
 329 506 329 506 329 537 c 128,-1,27
 329 568 329 568 328.5 582 c 128,-1,28
 328 596 328 596 324.5 616 c 128,-1,29
 321 636 321 636 314 644 c 128,-1,30
 307 652 307 652 294 661 c 0,31,32
 272 675 272 675 209 675 c 2,33,-1
 134 675 l 1,34,-1
 138 650 l 1,35,-1
 138 424 l 1,36,-1
 134 399 l 1,37,-1
 209 399 l 2,21,22
EndSplineSet
EndChar

StartChar: Q
Encoding: 81 81 52
Width: 468
GlyphClass: 2
Flags: W
LayerCount: 2
Fore
SplineSet
125 -124 m 1,0,-1
 113 -125 l 1,1,-1
 100 -123 l 1,2,-1
 100 -106 l 2,3,4
 100 -83 100 -83 107 -79 c 1,5,-1
 201 -3 l 1,6,7
 123 12 123 12 94 98.5 c 128,-1,8
 65 185 65 185 65 375 c 128,-1,9
 65 565 65 565 102 648.5 c 128,-1,10
 139 732 139 732 241 732 c 128,-1,11
 343 732 343 732 379.5 648.5 c 128,-1,12
 416 565 416 565 416 380.5 c 128,-1,13
 416 196 416 196 391.5 110.5 c 128,-1,14
 367 25 367 25 301 2 c 1,15,-1
 191 -77 l 1,16,17
 218 -79 218 -79 359.5 -97 c 128,-1,18
 501 -115 501 -115 526 -115 c 128,-1,19
 551 -115 551 -115 555 -114 c 1,20,-1
 568 -116 l 1,21,-1
 568 -135 l 2,22,23
 568 -162 568 -162 560.5 -166.5 c 128,-1,24
 553 -171 553 -171 516 -171 c 128,-1,25
 479 -171 479 -171 319.5 -147.5 c 128,-1,26
 160 -124 160 -124 125 -124 c 1,0,-1
241 50 m 0,27,28
 305 50 305 50 329 127 c 128,-1,29
 353 204 353 204 353 365 c 0,30,31
 353 604 353 604 297 655 c 0,32,33
 275 675 275 675 241 675 c 0,34,35
 176 675 176 675 152 600.5 c 128,-1,36
 128 526 128 526 128 366 c 0,37,38
 128 123 128 123 186 70 c 0,39,40
 208 50 208 50 241 50 c 0,27,28
EndSplineSet
EndChar

StartChar: R
Encoding: 82 82 53
Width: 453
GlyphClass: 2
Flags: W
LayerCount: 2
Fore
SplineSet
412 0 m 2,0,1
 361 0 361 0 349 6 c 128,-1,2
 337 12 337 12 322 46 c 2,3,-1
 187 342 l 1,4,-1
 134 342 l 1,5,-1
 138 317 l 1,6,-1
 138 46 l 1,7,-1
 139 46 l 1,8,9
 139 12 139 12 131.5 6 c 128,-1,10
 124 0 124 0 81 0 c 2,11,-1
 75 0 l 1,12,-1
 75 722 l 1,13,-1
 189 732 l 1,14,15
 293 732 293 732 323 692 c 0,16,17
 335 676 335 676 341 664 c 128,-1,18
 347 652 347 652 350 627 c 0,19,20
 354 594 354 594 354 546.5 c 128,-1,21
 354 499 354 499 352.5 474.5 c 128,-1,22
 351 450 351 450 345 423.5 c 128,-1,23
 339 397 339 397 328 382 c 0,24,25
 303 347 303 347 250 343 c 1,26,-1
 416 0 l 1,27,-1
 412 0 l 2,0,1
189 399 m 2,28,29
 240 399 240 399 268 418 c 1,30,31
 285 431 285 431 288 484 c 0,32,33
 289 500 289 500 289 537 c 128,-1,34
 289 574 289 574 288 590 c 128,-1,35
 287 606 287 606 282.5 627 c 128,-1,36
 278 648 278 648 268 656 c 1,37,38
 240 675 240 675 189 675 c 2,39,-1
 138 675 l 1,40,-1
 138 424 l 1,41,-1
 134 399 l 1,42,-1
 189 399 l 2,28,29
EndSplineSet
EndChar

StartChar: S
Encoding: 83 83 54
Width: 391
GlyphClass: 2
Flags: W
LayerCount: 2
Fore
SplineSet
353 233 m 2,0,-1
 353 211 l 2,1,2
 353 111 353 111 335 70 c 1,3,4
 299 -6 299 -6 182 -7 c 1,5,-1
 37 13 l 1,6,-1
 37 69 l 1,7,-1
 183 59 l 1,8,9
 251 59 251 59 270 89 c 0,10,11
 277 101 277 101 281 108.5 c 128,-1,12
 285 116 285 116 286.5 134 c 128,-1,13
 288 152 288 152 288.5 160.5 c 128,-1,14
 289 169 289 169 288.5 191 c 128,-1,15
 288 213 288 213 288 221 c 0,16,17
 288 270 288 270 200 346 c 0,18,19
 164 377 164 377 127 410 c 128,-1,20
 90 443 90 443 64.5 484 c 128,-1,21
 39 525 39 525 39 560.5 c 128,-1,22
 39 596 39 596 39.5 608.5 c 128,-1,23
 40 621 40 621 42.5 643.5 c 128,-1,24
 45 666 45 666 51 675.5 c 128,-1,25
 57 685 57 685 68.5 699 c 128,-1,26
 80 713 80 713 98 718 c 0,27,28
 147 732 147 732 201 732 c 1,29,-1
 307 712 l 1,30,31
 307 674 307 674 287 671 c 0,32,33
 279 670 279 670 263 671 c 2,34,-1
 207 677 l 1,35,36
 135 677 135 677 118 646 c 1,37,38
 108 630 108 630 105.5 615 c 128,-1,39
 103 600 103 600 103 572.5 c 128,-1,40
 103 545 103 545 121.5 516.5 c 128,-1,41
 140 488 140 488 168 464.5 c 128,-1,42
 196 441 196 441 228 413 c 128,-1,43
 260 385 260 385 288 359.5 c 128,-1,44
 316 334 316 334 334.5 300.5 c 128,-1,45
 353 267 353 267 353 233 c 2,0,-1
EndSplineSet
EndChar

StartChar: T
Encoding: 84 84 55
Width: 333
GlyphClass: 2
Flags: W
LayerCount: 2
Fore
SplineSet
141 0 m 2,0,-1
 133 0 l 1,1,-1
 133 642 l 1,2,-1
 137 667 l 1,3,-1
 25 667 l 1,4,-1
 25 720 l 1,5,-1
 308 720 l 1,6,-1
 308 667 l 1,7,-1
 195 667 l 1,8,-1
 199 642 l 1,9,-1
 199 46 l 2,10,11
 199 12 199 12 191.5 6 c 128,-1,12
 184 0 184 0 141 0 c 2,0,-1
EndSplineSet
EndChar

StartChar: U
Encoding: 85 85 56
Width: 468
GlyphClass: 2
Flags: W
LayerCount: 2
Fore
SplineSet
333 297 m 2,0,-1
 333 720 l 1,1,-1
 340 720 l 2,2,3
 383 720 383 720 390.5 714 c 128,-1,4
 398 708 398 708 398 674 c 2,5,-1
 398 297 l 2,6,7
 398 220 398 220 396.5 184.5 c 128,-1,8
 395 149 395 149 387 103 c 128,-1,9
 379 57 379 57 362 39 c 0,10,11
 319 -7 319 -7 235 -7 c 128,-1,12
 151 -7 151 -7 123 26 c 0,13,14
 111 40 111 40 103 50.5 c 128,-1,15
 95 61 95 61 90 85 c 128,-1,16
 85 109 85 109 82 124.5 c 128,-1,17
 79 140 79 140 77.5 174 c 128,-1,18
 76 208 76 208 76 228 c 2,19,-1
 76 720 l 1,20,-1
 83 720 l 2,21,22
 126 720 126 720 133.5 714 c 128,-1,23
 141 708 141 708 141 674 c 2,24,-1
 141 297 l 2,25,26
 141 290 141 290 141 258.5 c 128,-1,27
 141 227 141 227 141.5 204.5 c 128,-1,28
 142 182 142 182 144.5 149.5 c 128,-1,29
 147 117 147 117 152.5 103.5 c 128,-1,30
 158 90 158 90 168 75 c 0,31,32
 186 50 186 50 235 50 c 0,33,34
 303 50 303 50 318 99.5 c 128,-1,35
 333 149 333 149 333 297 c 2,0,-1
EndSplineSet
EndChar

StartChar: V
Encoding: 86 86 57
Width: 416
GlyphClass: 2
Flags: W
LayerCount: 2
Fore
SplineSet
40 720 m 2,0,1
 77 720 77 720 85 714 c 128,-1,2
 93 708 93 708 100 674 c 2,3,-1
 208 127 l 1,4,-1
 221 127 l 1,5,-1
 330 720 l 1,6,-1
 345 720 l 2,7,8
 373 720 373 720 381.5 718 c 128,-1,9
 390 716 390 716 390 705 c 0,10,11
 390 653 390 653 242 0 c 1,12,-1
 178 0 l 1,13,-1
 25 720 l 1,14,-1
 40 720 l 2,0,1
EndSplineSet
EndChar

StartChar: W
Encoding: 87 87 58
Width: 609
GlyphClass: 2
Flags: W
LayerCount: 2
Fore
SplineSet
47 720 m 2,0,1
 85 720 85 720 93 714 c 128,-1,2
 101 708 101 708 107 674 c 1,3,-1
 178 128 l 1,4,-1
 191 128 l 1,5,-1
 260 466 l 1,6,-1
 276 520 l 1,7,-1
 338 520 l 1,8,-1
 353 465 l 1,9,-1
 422 128 l 1,10,-1
 435 128 l 1,11,-1
 515 720 l 1,12,-1
 532 720 l 2,13,14
 561 720 561 720 569.5 718 c 128,-1,15
 578 716 578 716 578 705 c 0,16,17
 578 649 578 649 460 0 c 1,18,-1
 396 0 l 1,19,-1
 314 409 l 1,20,-1
 301 409 l 1,21,-1
 217 0 l 1,22,-1
 153 0 l 1,23,-1
 30 720 l 1,24,-1
 47 720 l 2,0,1
EndSplineSet
EndChar

StartChar: X
Encoding: 88 88 59
Width: 383
GlyphClass: 2
Flags: W
LayerCount: 2
Fore
SplineSet
334 0 m 2,0,1
 301 0 301 0 293.5 5.5 c 128,-1,2
 286 11 286 11 274 46 c 1,3,-1
 203 283 l 1,4,-1
 184 283 l 1,5,-1
 108 46 l 1,6,7
 95 12 95 12 87.5 6 c 128,-1,8
 80 0 80 0 48 0 c 2,9,-1
 25 0 l 1,10,-1
 157 356 l 1,11,-1
 35 720 l 1,12,-1
 58 720 l 2,13,14
 90 720 90 720 98 714 c 128,-1,15
 106 708 106 708 118 674 c 1,16,-1
 193 421 l 1,17,-1
 212 421 l 1,18,-1
 300 720 l 1,19,-1
 306 720 l 2,20,21
 337 720 337 720 347 718 c 128,-1,22
 357 716 357 716 357 708 c 0,23,24
 357 677 357 677 233 356 c 1,25,-1
 355 0 l 1,26,-1
 334 0 l 2,0,1
EndSplineSet
EndChar

StartChar: Y
Encoding: 89 89 60
Width: 375
GlyphClass: 2
Flags: W
LayerCount: 2
Fore
SplineSet
221 0 m 1,0,-1
 216 0 l 2,1,2
 173 0 173 0 165.5 6 c 128,-1,3
 158 12 158 12 158 46 c 2,4,-1
 158 347 l 1,5,-1
 25 720 l 1,6,-1
 40 720 l 2,7,8
 78 720 78 720 86.5 714.5 c 128,-1,9
 95 709 95 709 107 674 c 2,10,-1
 188 432 l 1,11,-1
 193 432 l 1,12,-1
 294 720 l 1,13,-1
 305 720 l 2,14,15
 332 720 332 720 340.5 718.5 c 128,-1,16
 349 717 349 717 349 709 c 0,17,18
 349 676 349 676 221 347 c 1,19,-1
 221 0 l 1,0,-1
EndSplineSet
EndChar

StartChar: Z
Encoding: 90 90 61
Width: 370
GlyphClass: 2
Flags: W
LayerCount: 2
Fore
SplineSet
320 0 m 1,0,-1
 37 0 l 1,1,-1
 37 57 l 1,2,-1
 264 667 l 1,3,-1
 47 667 l 1,4,5
 47 707 47 707 52.5 713.5 c 128,-1,6
 58 720 58 720 93 720 c 2,7,-1
 333 720 l 1,8,-1
 333 667 l 1,9,-1
 103 57 l 1,10,-1
 262 57 l 2,11,12
 305 57 305 57 312.5 49 c 128,-1,13
 320 41 320 41 320 0 c 1,0,-1
EndSplineSet
EndChar

StartChar: bracketleft
Encoding: 91 91 62
Width: 201
GlyphClass: 2
Flags: W
LayerCount: 2
Fore
SplineSet
193 -70 m 1,0,-1
 113 -70 l 2,1,2
 73 -70 73 -70 66.5 -64.5 c 128,-1,3
 60 -59 60 -59 60 -24 c 2,4,-1
 60 772 l 1,5,-1
 140 772 l 2,6,7
 180 772 180 772 186.5 766 c 128,-1,8
 193 760 193 760 193 726 c 1,9,-1
 113 726 l 1,10,-1
 113 -24 l 1,11,-1
 140 -24 l 2,12,13
 180 -24 180 -24 186.5 -30 c 128,-1,14
 193 -36 193 -36 193 -70 c 1,0,-1
EndSplineSet
EndChar

StartChar: backslash
Encoding: 92 92 63
Width: 372
GlyphClass: 2
Flags: W
LayerCount: 2
Fore
SplineSet
363 -200 m 1,0,-1
 299 -200 l 1,1,-1
 5 732 l 1,2,-1
 69 732 l 1,3,-1
 363 -200 l 1,0,-1
EndSplineSet
EndChar

StartChar: bracketright
Encoding: 93 93 64
Width: 204
GlyphClass: 2
Flags: W
LayerCount: 2
Fore
SplineSet
88 -70 m 2,0,-1
 8 -70 l 1,1,2
 8 -36 8 -36 14.5 -30 c 128,-1,3
 21 -24 21 -24 61 -24 c 2,4,-1
 88 -24 l 1,5,-1
 88 726 l 1,6,-1
 8 726 l 1,7,8
 8 760 8 760 14.5 766 c 128,-1,9
 21 772 21 772 61 772 c 2,10,-1
 141 772 l 1,11,-1
 141 -24 l 2,12,13
 141 -59 141 -59 134.5 -64.5 c 128,-1,14
 128 -70 128 -70 88 -70 c 2,0,-1
EndSplineSet
EndChar

StartChar: asciicircum
Encoding: 94 94 65
Width: 411
GlyphClass: 2
Flags: W
LayerCount: 2
Fore
SplineSet
373 607 m 1,0,-1
 205 683 l 1,1,-1
 38 607 l 1,2,-1
 38 662 l 1,3,-1
 192 732 l 1,4,-1
 218 732 l 1,5,-1
 373 661 l 1,6,-1
 373 607 l 1,0,-1
EndSplineSet
EndChar

StartChar: underscore
Encoding: 95 95 66
Width: 613
GlyphClass: 2
Flags: W
LayerCount: 2
Fore
SplineSet
552 -1 m 1,0,-1
 60 -1 l 1,1,-1
 60 50 l 1,2,-1
 552 50 l 1,3,-1
 552 -1 l 1,0,-1
EndSplineSet
EndChar

StartChar: grave
Encoding: 96 96 67
Width: 172
GlyphClass: 2
Flags: W
LayerCount: 2
Fore
SplineSet
9 701 m 1,0,1
 40 732 40 732 49 732 c 128,-1,2
 58 732 58 732 91 699 c 1,3,-1
 159 623 l 1,4,-1
 124 587 l 1,5,-1
 9 701 l 1,0,1
EndSplineSet
EndChar

StartChar: a
Encoding: 97 97 68
Width: 342
GlyphClass: 2
Flags: W
LayerCount: 2
Fore
SplineSet
230 377 m 1,0,-1
 230 433 l 2,1,2
 230 473 230 473 220.5 483.5 c 128,-1,3
 211 494 211 494 175 494 c 1,4,-1
 125 484 l 2,5,6
 115 482 115 482 110 482 c 0,7,8
 75 482 75 482 75 527 c 1,9,-1
 175 544 l 1,10,11
 250 544 250 544 266 524 c 0,12,13
 274 514 274 514 278.5 507 c 128,-1,14
 283 500 283 500 284 482 c 0,15,16
 287 453 287 453 287 415 c 2,17,-1
 287 0 l 1,18,19
 242 0 242 0 234 6.5 c 128,-1,20
 226 13 226 13 226 50 c 1,21,22
 216 44 216 44 198 28 c 0,23,24
 160 -7 160 -7 134 -7 c 0,25,26
 73 -7 73 -7 61.5 31.5 c 128,-1,27
 50 70 50 70 50 245 c 0,28,29
 50 312 50 312 108 334 c 0,30,31
 156 352 156 352 230 352 c 2,32,-1
 234 352 l 1,33,-1
 230 377 l 1,0,-1
226 296 m 2,34,35
 168 296 168 296 138.5 287.5 c 128,-1,36
 109 279 109 279 109 253 c 0,37,38
 109 70 109 70 117 53 c 0,39,40
 121 46 121 46 135 46 c 128,-1,41
 149 46 149 46 165.5 54 c 128,-1,42
 182 62 182 62 200.5 75.5 c 128,-1,43
 219 89 219 89 230 94 c 1,44,-1
 226 119 l 1,45,-1
 226 271 l 1,46,-1
 230 296 l 1,47,-1
 226 296 l 2,34,35
EndSplineSet
EndChar

StartChar: b
Encoding: 98 98 69
Width: 373
GlyphClass: 2
Flags: W
LayerCount: 2
Fore
SplineSet
55 0 m 1,0,-1
 55 732 l 1,1,2
 98 732 98 732 105.5 726 c 128,-1,3
 113 720 113 720 113 686 c 2,4,-1
 113 516 l 1,5,-1
 187 544 l 1,6,7
 259 544 259 544 282 516 c 0,8,9
 292 504 292 504 299 494 c 128,-1,10
 306 484 306 484 310.5 463.5 c 128,-1,11
 315 443 315 443 317.5 427.5 c 128,-1,12
 320 412 320 412 321 382 c 0,13,14
 323 320 323 320 323 256.5 c 128,-1,15
 323 193 323 193 322 160.5 c 128,-1,16
 321 128 321 128 315 86.5 c 128,-1,17
 309 45 309 45 295 30 c 0,18,19
 259 -7 259 -7 192 -7 c 1,20,-1
 113 53 l 1,21,22
 113 13 113 13 105.5 6.5 c 128,-1,23
 98 0 98 0 55 0 c 1,0,-1
253 89 m 128,-1,25
 264 132 264 132 264 269 c 128,-1,26
 264 406 264 406 253 443 c 1,27,28
 236 490 236 490 191 491 c 1,29,-1
 109 466 l 1,30,-1
 113 441 l 1,31,-1
 113 117 l 1,32,-1
 109 92 l 1,33,-1
 191 46 l 1,34,24
 242 46 242 46 253 89 c 128,-1,25
EndSplineSet
EndChar

StartChar: c
Encoding: 99 99 70
Width: 313
GlyphClass: 2
Flags: W
LayerCount: 2
Fore
SplineSet
50 268 m 2,0,-1
 50 332 l 2,1,2
 50 405 50 405 53.5 424 c 128,-1,3
 57 443 57 443 61.5 465 c 128,-1,4
 66 487 66 487 72.5 495.5 c 128,-1,5
 79 504 79 504 88.5 516 c 128,-1,6
 98 528 98 528 112 532 c 0,7,8
 146 544 146 544 181 544 c 1,9,-1
 264 531 l 1,10,11
 264 487 264 487 228 487 c 0,12,13
 221 487 221 487 214 488 c 2,14,-1
 181 491 l 1,15,16
 130 491 130 491 119 448.5 c 128,-1,17
 108 406 108 406 108 302 c 128,-1,18
 108 198 108 198 109 167 c 128,-1,19
 110 136 110 136 117 101.5 c 128,-1,20
 124 67 124 67 139 56.5 c 128,-1,21
 154 46 154 46 181 46 c 1,22,-1
 268 56 l 1,23,-1
 268 10 l 1,24,-1
 181 -7 l 1,25,26
 127 -7 127 -7 109 6 c 128,-1,27
 91 19 91 19 82 27.5 c 128,-1,28
 73 36 73 36 66.5 58 c 128,-1,29
 60 80 60 80 57 95 c 128,-1,30
 54 110 54 110 52 144 c 0,31,32
 50 202 50 202 50 268 c 2,0,-1
EndSplineSet
EndChar

StartChar: d
Encoding: 100 100 71
Width: 378
GlyphClass: 2
Flags: W
LayerCount: 2
Fore
SplineSet
51 160 m 0,0,1
 50 193 50 193 50 250 c 128,-1,2
 50 307 50 307 50.5 329 c 128,-1,3
 51 351 51 351 52 381.5 c 128,-1,4
 53 412 53 412 55.5 427.5 c 128,-1,5
 58 443 58 443 62.5 463.5 c 128,-1,6
 67 484 67 484 74 494 c 128,-1,7
 81 504 81 504 91 516 c 128,-1,8
 101 528 101 528 114 532 c 0,9,10
 149 544 149 544 186 544 c 1,11,-1
 260 516 l 1,12,-1
 260 732 l 1,13,14
 304 732 304 732 311 726 c 128,-1,15
 318 720 318 720 318 686 c 2,16,-1
 318 0 l 1,17,18
 274 0 274 0 267 6.5 c 128,-1,19
 260 13 260 13 260 53 c 1,20,-1
 181 -7 l 1,21,22
 114 -7 114 -7 78 30 c 0,23,24
 54 55 54 55 51 160 c 0,0,1
109.5 342.5 m 128,-1,26
 109 321 109 321 109 225.5 c 128,-1,27
 109 130 109 130 118 95 c 1,28,29
 139 49 139 49 182 46 c 1,30,-1
 264 91 l 1,31,-1
 260 116 l 1,32,-1
 260 440 l 1,33,-1
 264 465 l 1,34,-1
 182 491 l 1,35,36
 145 491 145 491 131 466 c 0,37,38
 115 436 115 436 112.5 400 c 128,-1,25
 110 364 110 364 109.5 342.5 c 128,-1,26
EndSplineSet
EndChar

StartChar: e
Encoding: 101 101 72
Width: 353
GlyphClass: 2
Flags: W
LayerCount: 2
Fore
SplineSet
306 10 m 1,0,1
 229 -7 229 -7 198.5 -7 c 128,-1,2
 168 -7 168 -7 151.5 -5.5 c 128,-1,3
 135 -4 135 -4 121.5 2.5 c 128,-1,4
 108 9 108 9 98 13.5 c 128,-1,5
 88 18 88 18 80 31.5 c 128,-1,6
 72 45 72 45 67 53.5 c 128,-1,7
 62 62 62 62 59 83 c 128,-1,8
 56 104 56 104 54 117 c 128,-1,9
 52 130 52 130 51 159.5 c 128,-1,10
 50 189 50 189 50 207 c 2,11,-1
 50 320 l 2,12,13
 50 386 50 386 53 405.5 c 128,-1,14
 56 425 56 425 59 447 c 128,-1,15
 62 469 62 469 67 478.5 c 128,-1,16
 72 488 72 488 80 502 c 128,-1,17
 88 516 88 516 98 521.5 c 128,-1,18
 108 527 108 527 121.5 533.5 c 128,-1,19
 135 540 135 540 151.5 542 c 128,-1,20
 168 544 168 544 189 544 c 128,-1,21
 210 544 210 544 227 541 c 128,-1,22
 244 538 244 538 255.5 529 c 128,-1,23
 267 520 267 520 275.5 512 c 128,-1,24
 284 504 284 504 289.5 486 c 128,-1,25
 295 468 295 468 298 455.5 c 128,-1,26
 301 443 301 443 302.5 416.5 c 128,-1,27
 304 390 304 390 304 374 c 2,28,-1
 304 322 l 1,29,-1
 308 268 l 1,30,-1
 104 263 l 1,31,-1
 108 238 l 1,32,33
 108 110 108 110 118 90 c 0,34,35
 134 57 134 57 155 52 c 0,36,37
 169 48 169 48 209.5 48 c 128,-1,38
 250 48 250 48 306 61 c 1,39,-1
 306 10 l 1,0,1
114 396 m 0,40,41
 114 378 114 378 114 342 c 1,42,-1
 110 317 l 1,43,-1
 252 317 l 1,44,-1
 247 343 l 1,45,46
 247 423 247 423 236 457 c 128,-1,47
 225 491 225 491 186.5 491 c 128,-1,48
 148 491 148 491 132 470.5 c 128,-1,49
 116 450 116 450 114 396 c 0,40,41
EndSplineSet
EndChar

StartChar: f
Encoding: 102 102 73
Width: 231
GlyphClass: 2
Flags: W
LayerCount: 2
Fore
SplineSet
18 483 m 1,0,-1
 18 537 l 1,1,-1
 72 537 l 1,2,-1
 67 567 l 1,3,-1
 67 578 l 2,4,5
 67 662 67 662 74 675 c 128,-1,6
 81 688 81 688 89 699 c 128,-1,7
 97 710 97 710 109 714.5 c 128,-1,8
 121 719 121 719 139 724 c 0,9,10
 169 731 169 731 235 731 c 1,11,-1
 235 684 l 1,12,13
 157 684 157 684 141.5 668.5 c 128,-1,14
 126 653 126 653 126 578 c 2,15,-1
 126 567 l 1,16,-1
 121 537 l 1,17,-1
 211 537 l 1,18,-1
 211 483 l 1,19,-1
 120 483 l 1,20,-1
 125 453 l 1,21,-1
 125 -143 l 1,22,23
 124 -186 124 -186 117 -193 c 128,-1,24
 110 -200 110 -200 66 -200 c 1,25,-1
 67 453 l 1,26,-1
 72 483 l 1,27,-1
 18 483 l 1,0,-1
EndSplineSet
EndChar

StartChar: g
Encoding: 103 103 74
Width: 398
GlyphClass: 2
Flags: W
LayerCount: 2
Fore
SplineSet
207 -200 m 2,0,-1
 162 -200 l 2,1,2
 125 -200 125 -200 118.5 -194 c 128,-1,3
 112 -188 112 -188 112 -153 c 1,4,-1
 207 -146 l 1,5,6
 262 -146 262 -146 276 -126 c 1,7,8
 283 -114 283 -114 284.5 -102.5 c 128,-1,9
 286 -91 286 -91 286 -71 c 128,-1,10
 286 -51 286 -51 284.5 -42 c 128,-1,11
 283 -33 283 -33 276 -24 c 0,12,13
 264 -7 264 -7 210 -7 c 0,14,15
 92 -7 92 -7 71.5 4 c 128,-1,16
 51 15 51 15 51 71 c 128,-1,17
 51 127 51 127 63.5 149.5 c 128,-1,18
 76 172 76 172 102 184 c 1,19,20
 73 205 73 205 62 234.5 c 128,-1,21
 51 264 51 264 51 326 c 128,-1,22
 51 388 51 388 52.5 412 c 128,-1,23
 54 436 54 436 59 461 c 128,-1,24
 64 486 64 486 73.5 499 c 128,-1,25
 83 512 83 512 99 524 c 0,26,27
 128 544 128 544 198 544 c 2,28,-1
 353 544 l 1,29,30
 353 507 353 507 346.5 500.5 c 128,-1,31
 340 494 340 494 302 494 c 1,32,33
 318 464 318 464 321 438 c 128,-1,34
 324 412 324 412 324 333 c 128,-1,35
 324 254 324 254 321 229.5 c 128,-1,36
 318 205 318 205 305.5 183 c 128,-1,37
 293 161 293 161 267.5 152.5 c 128,-1,38
 242 144 242 144 208 144 c 128,-1,39
 174 144 174 144 160 143.5 c 128,-1,40
 146 143 146 143 135 140 c 128,-1,41
 124 137 124 137 119 134.5 c 128,-1,42
 114 132 114 132 111 123 c 128,-1,43
 108 114 108 114 108 108 c 2,44,-1
 108 77 l 2,45,46
 108 57 108 57 123 53 c 128,-1,47
 138 49 138 49 216 49 c 128,-1,48
 294 49 294 49 318.5 29 c 128,-1,49
 343 9 343 9 343 -67.5 c 128,-1,50
 343 -144 343 -144 318 -172 c 128,-1,51
 293 -200 293 -200 207 -200 c 2,0,-1
126.5 231 m 128,-1,53
 143 197 143 197 195 197 c 128,-1,54
 247 197 247 197 258 222 c 128,-1,55
 269 247 269 247 269 339 c 128,-1,56
 269 431 269 431 261 454 c 0,57,58
 248 491 248 491 194 491 c 128,-1,59
 140 491 140 491 125 466 c 128,-1,60
 110 441 110 441 110 353 c 128,-1,52
 110 265 110 265 126.5 231 c 128,-1,53
EndSplineSet
EndChar

StartChar: h
Encoding: 104 104 75
Width: 395
GlyphClass: 2
Flags: W
LayerCount: 2
Fore
SplineSet
281 46 m 2,0,-1
 281 267 l 2,1,2
 281 395 281 395 271 443 c 128,-1,3
 261 491 261 491 218 491 c 1,4,-1
 120 456 l 1,5,-1
 124 431 l 1,6,-1
 124 46 l 2,7,8
 124 12 124 12 116.5 6 c 128,-1,9
 109 0 109 0 65 0 c 1,10,-1
 65 732 l 1,11,12
 108 732 108 732 115.5 726 c 128,-1,13
 123 720 123 720 123 686 c 2,14,-1
 123 507 l 1,15,-1
 218 544 l 1,16,17
 303 544 303 544 321.5 489 c 128,-1,18
 340 434 340 434 340 266 c 2,19,-1
 340 0 l 1,20,21
 296 0 296 0 288.5 6 c 128,-1,22
 281 12 281 12 281 46 c 2,0,-1
EndSplineSet
EndChar

StartChar: i
Encoding: 105 105 76
Width: 203
GlyphClass: 2
Flags: W
LayerCount: 2
Fore
SplineSet
102 629 m 128,-1,1
 83 629 83 629 69.5 642.5 c 128,-1,2
 56 656 56 656 56 675.5 c 128,-1,3
 56 695 56 695 69.5 707.5 c 128,-1,4
 83 720 83 720 102 720 c 128,-1,5
 121 720 121 720 134.5 707 c 128,-1,6
 148 694 148 694 148 675 c 128,-1,7
 148 656 148 656 134.5 642.5 c 128,-1,0
 121 629 121 629 102 629 c 128,-1,1
73 42 m 2,8,-1
 73 537 l 1,9,10
 117 537 117 537 124.5 531.5 c 128,-1,11
 132 526 132 526 132 491 c 2,12,-1
 132 -4 l 1,13,14
 88 -4 88 -4 80.5 2 c 128,-1,15
 73 8 73 8 73 42 c 2,8,-1
EndSplineSet
EndChar

StartChar: j
Encoding: 106 106 77
Width: 193
GlyphClass: 2
Flags: W
LayerCount: 2
Fore
SplineSet
87 629 m 128,-1,1
 68 629 68 629 54.5 642.5 c 128,-1,2
 41 656 41 656 41 675 c 128,-1,3
 41 694 41 694 54.5 707 c 128,-1,4
 68 720 68 720 87 720 c 128,-1,5
 106 720 106 720 119.5 707 c 128,-1,6
 133 694 133 694 133 675 c 128,-1,7
 133 656 133 656 119.5 642.5 c 128,-1,0
 106 629 106 629 87 629 c 128,-1,1
-49 -200 m 1,8,-1
 -49 -156 l 1,9,10
 8 -156 8 -156 36 -132 c 0,11,12
 56 -114 56 -114 59 -57 c 0,13,14
 60 -38 60 -38 60 0 c 2,15,-1
 60 537 l 1,16,17
 104 537 104 537 110.5 531.5 c 128,-1,18
 117 526 117 526 117 491 c 2,19,-1
 117 0 l 2,20,21
 117 -95 117 -95 104 -123 c 0,22,23
 84 -166 84 -166 56 -180 c 0,24,25
 14 -200 14 -200 -49 -200 c 1,8,-1
EndSplineSet
EndChar

StartChar: k
Encoding: 107 107 78
Width: 355
GlyphClass: 2
Flags: W
LayerCount: 2
Fore
SplineSet
65 46 m 2,0,-1
 65 732 l 1,1,2
 109 732 109 732 116.5 726 c 128,-1,3
 124 720 124 720 124 686 c 2,4,-1
 124 0 l 1,5,6
 80 0 80 0 72.5 6 c 128,-1,7
 65 12 65 12 65 46 c 2,0,-1
335 0 m 1,8,-1
 270 0 l 1,9,-1
 136 293 l 1,10,-1
 256 537 l 1,11,-1
 317 537 l 1,12,-1
 196 293 l 1,13,-1
 335 0 l 1,8,-1
EndSplineSet
EndChar

StartChar: l
Encoding: 108 108 79
Width: 179
GlyphClass: 2
Flags: W
LayerCount: 2
Fore
SplineSet
65 42 m 2,0,-1
 65 732 l 1,1,2
 109 732 109 732 116.5 726 c 128,-1,3
 124 720 124 720 124 686 c 2,4,-1
 124 -4 l 1,5,6
 80 -4 80 -4 72.5 2 c 128,-1,7
 65 8 65 8 65 42 c 2,0,-1
EndSplineSet
EndChar

StartChar: m
Encoding: 109 109 80
Width: 603
GlyphClass: 2
Flags: W
LayerCount: 2
Fore
SplineSet
488 46 m 2,0,-1
 488 267 l 1,1,2
 488 267 488 267 488 275 c 0,3,4
 488 423 488 423 479 457 c 128,-1,5
 470 491 470 491 422 491 c 1,6,-1
 329 460 l 1,7,-1
 333 435 l 1,8,-1
 333 0 l 1,9,10
 290 0 290 0 282.5 6 c 128,-1,11
 275 12 275 12 275 46 c 2,12,-1
 274 267 l 2,13,14
 274 271 274 271 274 294.5 c 128,-1,15
 274 318 274 318 274 335 c 128,-1,16
 274 352 274 352 273.5 367.5 c 128,-1,17
 273 383 273 383 271.5 409 c 128,-1,18
 270 435 270 435 266 446 c 128,-1,19
 262 457 262 457 255 470 c 0,20,21
 243 491 243 491 209 491 c 1,22,-1
 115 456 l 1,23,-1
 119 431 l 1,24,-1
 119 0 l 1,25,26
 75 0 75 0 67.5 6 c 128,-1,27
 60 12 60 12 60 46 c 2,28,-1
 60 537 l 1,29,30
 104 537 104 537 111.5 533.5 c 128,-1,31
 119 530 119 530 119 507 c 1,32,-1
 209 544 l 1,33,34
 281 544 281 544 315 502 c 1,35,-1
 422 544 l 1,36,37
 513 544 513 544 530.5 501.5 c 128,-1,38
 548 459 548 459 548 266 c 2,39,-1
 548 0 l 1,40,41
 503 0 503 0 495.5 6 c 128,-1,42
 488 12 488 12 488 46 c 2,0,-1
EndSplineSet
EndChar

StartChar: n
Encoding: 110 110 81
Width: 390
GlyphClass: 2
Flags: W
LayerCount: 2
Fore
SplineSet
276 46 m 2,0,-1
 276 267 l 2,1,2
 276 420 276 420 267 455.5 c 128,-1,3
 258 491 258 491 213 491 c 1,4,-1
 115 456 l 1,5,-1
 119 431 l 1,6,-1
 119 0 l 1,7,8
 75 0 75 0 67.5 6 c 128,-1,9
 60 12 60 12 60 46 c 2,10,-1
 60 537 l 1,11,12
 104 537 104 537 111.5 533.5 c 128,-1,13
 119 530 119 530 119 507 c 1,14,-1
 209 544 l 1,15,16
 299 544 299 544 317 498 c 128,-1,17
 335 452 335 452 335 266 c 2,18,-1
 335 0 l 1,19,20
 291 0 291 0 283.5 6 c 128,-1,21
 276 12 276 12 276 46 c 2,0,-1
EndSplineSet
EndChar

StartChar: o
Encoding: 111 111 82
Width: 374
GlyphClass: 2
Flags: W
LayerCount: 2
Fore
SplineSet
227.5 -3.5 m 128,-1,1
 210 -7 210 -7 185.5 -7 c 128,-1,2
 161 -7 161 -7 141.5 -4 c 128,-1,3
 122 -1 122 -1 107.5 9 c 128,-1,4
 93 19 93 19 83.5 27.5 c 128,-1,5
 74 36 74 36 67.5 58 c 128,-1,6
 61 80 61 80 57.5 95 c 128,-1,7
 54 110 54 110 52.5 144.5 c 128,-1,8
 51 179 51 179 50.5 201 c 128,-1,9
 50 223 50 223 50 271 c 128,-1,10
 50 319 50 319 50.5 340.5 c 128,-1,11
 51 362 51 362 52.5 396.5 c 128,-1,12
 54 431 54 431 57.5 445.5 c 128,-1,13
 61 460 61 460 67.5 481.5 c 128,-1,14
 74 503 74 503 83.5 511 c 128,-1,15
 93 519 93 519 108 528 c 1,16,17
 131 544 131 544 170.5 544 c 128,-1,18
 210 544 210 544 227.5 540.5 c 128,-1,19
 245 537 245 537 259 533 c 128,-1,20
 273 529 273 529 283 516.5 c 128,-1,21
 293 504 293 504 300 495.5 c 128,-1,22
 307 487 307 487 311 465.5 c 128,-1,23
 315 444 315 444 317.5 430.5 c 128,-1,24
 320 417 320 417 321.5 385 c 128,-1,25
 323 353 323 353 323 333 c 2,26,-1
 323 271 l 1,27,28
 323 271 323 271 323 267 c 2,29,30
 323 267 323 267 323 206 c 0,31,32
 323 138 323 138 319 116.5 c 128,-1,33
 315 95 315 95 311 73 c 128,-1,34
 307 51 307 51 300 42.5 c 128,-1,35
 293 34 293 34 283 21.5 c 128,-1,36
 273 9 273 9 259 4.5 c 128,-1,0
 245 0 245 0 227.5 -3.5 c 128,-1,1
264 248 m 2,37,-1
 264 282 l 2,38,39
 264 413 264 413 253 447 c 1,40,41
 237 490 237 490 187 491 c 0,42,43
 146 491 146 491 132 470 c 1,44,45
 124 456 124 456 119 444 c 128,-1,46
 114 432 114 432 112 402 c 0,47,48
 109 358 109 358 109 317 c 128,-1,49
 109 276 109 276 109 234.5 c 128,-1,50
 109 193 109 193 110 163 c 128,-1,51
 111 133 111 133 118.5 99.5 c 128,-1,52
 126 66 126 66 142 56 c 128,-1,53
 158 46 158 46 182 46 c 128,-1,54
 206 46 206 46 219 50.5 c 128,-1,55
 232 55 232 55 240.5 67.5 c 128,-1,56
 249 80 249 80 253.5 92.5 c 128,-1,57
 258 105 258 105 260 132 c 0,58,59
 264 171 264 171 264 248 c 2,37,-1
EndSplineSet
EndChar

StartChar: p
Encoding: 112 112 83
Width: 380
GlyphClass: 2
Flags: W
LayerCount: 2
Fore
SplineSet
55 -154 m 2,0,-1
 55 537 l 1,1,2
 98 537 98 537 105.5 534.5 c 128,-1,3
 113 532 113 532 113 517 c 1,4,-1
 193 544 l 1,5,6
 263 544 263 544 296 502 c 0,7,8
 323 468 323 468 328 369 c 0,9,10
 330 331 330 331 330 271 c 128,-1,11
 330 211 330 211 328.5 176.5 c 128,-1,12
 327 142 327 142 322 107.5 c 128,-1,13
 317 73 317 73 308 54.5 c 128,-1,14
 299 36 299 36 284 20 c 1,15,16
 256 -7 256 -7 189 -7 c 1,17,-1
 113 39 l 1,18,-1
 113 -200 l 1,19,20
 70 -200 70 -200 62.5 -194 c 128,-1,21
 55 -188 55 -188 55 -154 c 2,0,-1
255.5 92.5 m 128,-1,23
 271 139 271 139 271 263 c 128,-1,24
 271 387 271 387 255 439 c 128,-1,25
 239 491 239 491 188 491 c 1,26,-1
 110 466 l 1,27,-1
 114 441 l 1,28,-1
 114 116 l 1,29,-1
 109 91 l 1,30,-1
 187 46 l 1,31,22
 240 46 240 46 255.5 92.5 c 128,-1,23
EndSplineSet
EndChar

StartChar: q
Encoding: 113 113 84
Width: 385
GlyphClass: 2
Flags: W
LayerCount: 2
Fore
SplineSet
267 -154 m 2,0,-1
 267 39 l 1,1,-1
 191 -7 l 1,2,3
 124 -7 124 -7 96 20 c 1,4,5
 81 36 81 36 72 54.5 c 128,-1,6
 63 73 63 73 58 108 c 0,7,8
 50 163 50 163 50 247 c 128,-1,9
 50 331 50 331 52 369 c 128,-1,10
 54 407 54 407 61.5 445 c 128,-1,11
 69 483 69 483 84 502 c 0,12,13
 117 544 117 544 187 544 c 1,14,-1
 267 517 l 1,15,-1
 267 537 l 1,16,17
 310 537 310 537 317.5 531.5 c 128,-1,18
 325 526 325 526 325 491 c 2,19,-1
 325 -200 l 1,20,21
 282 -200 282 -200 274.5 -194 c 128,-1,22
 267 -188 267 -188 267 -154 c 2,0,-1
266 116 m 1,23,-1
 266 439 l 1,24,-1
 271 464 l 1,25,-1
 192 491 l 1,26,27
 141 491 141 491 125 439 c 128,-1,28
 109 387 109 387 109 263 c 128,-1,29
 109 139 109 139 124.5 92.5 c 128,-1,30
 140 46 140 46 193 46 c 1,31,-1
 272 91 l 1,32,-1
 266 116 l 1,23,-1
EndSplineSet
EndChar

StartChar: r
Encoding: 114 114 85
Width: 269
GlyphClass: 2
Flags: W
LayerCount: 2
Fore
SplineSet
60 46 m 2,0,-1
 60 537 l 1,1,2
 104 537 104 537 111.5 533.5 c 128,-1,3
 119 530 119 530 119 507 c 2,4,-1
 119 496 l 1,5,-1
 199 544 l 1,6,7
 216 544 216 544 249 537 c 1,8,9
 249 502 249 502 242.5 496.5 c 128,-1,10
 236 491 236 491 199 491 c 1,11,-1
 114 444 l 1,12,-1
 119 419 l 1,13,-1
 119 0 l 1,14,15
 75 0 75 0 67.5 6 c 128,-1,16
 60 12 60 12 60 46 c 2,0,-1
EndSplineSet
EndChar

StartChar: s
Encoding: 115 115 86
Width: 334
GlyphClass: 2
Flags: W
LayerCount: 2
Fore
SplineSet
219 3.5 m 128,-1,1
 199 -4 199 -4 170 -4 c 128,-1,2
 141 -4 141 -4 51 11 c 1,3,-1
 51 64 l 1,4,5
 55 64 55 64 101.5 59 c 128,-1,6
 148 54 148 54 171 54 c 0,7,8
 227 54 227 54 227 158 c 0,9,10
 227 165 227 165 227 172 c 0,11,12
 226 204 226 204 165 250.5 c 128,-1,13
 104 297 104 297 75 332 c 128,-1,14
 46 367 46 367 46 403 c 128,-1,15
 46 439 46 439 47 453 c 128,-1,16
 48 467 48 467 54 488 c 128,-1,17
 60 509 60 509 72 518 c 0,18,19
 103 543 103 543 166 543 c 1,20,-1
 261 529 l 1,21,22
 261 485 261 485 225 485 c 0,23,24
 218 485 218 485 211 486 c 2,25,-1
 170 492 l 1,26,27
 121 492 121 492 110 470 c 0,28,29
 101 451 101 451 101 414.5 c 128,-1,30
 101 378 101 378 179 316 c 1,31,32
 215 289 215 289 233.5 273 c 128,-1,33
 252 257 252 257 269.5 231 c 128,-1,34
 287 205 287 205 287 180.5 c 128,-1,35
 287 156 287 156 286 138.5 c 128,-1,36
 285 121 285 121 281.5 97 c 128,-1,37
 278 73 278 73 270.5 57 c 128,-1,38
 263 41 263 41 251 26 c 128,-1,0
 239 11 239 11 219 3.5 c 128,-1,1
EndSplineSet
EndChar

StartChar: t
Encoding: 116 116 87
Width: 229
GlyphClass: 2
Flags: W
LayerCount: 2
Fore
SplineSet
57 228 m 2,0,-1
 57 458 l 1,1,-1
 61 483 l 1,2,-1
 18 483 l 1,3,-1
 18 537 l 1,4,-1
 61 537 l 1,5,-1
 57 572 l 1,6,-1
 57 616 l 1,7,8
 101 616 101 616 108.5 610 c 128,-1,9
 116 604 116 604 116 570 c 1,10,-1
 112 537 l 1,11,-1
 204 537 l 1,12,13
 204 500 204 500 197.5 491.5 c 128,-1,14
 191 483 191 483 156 483 c 2,15,-1
 112 483 l 1,16,-1
 116 458 l 1,17,-1
 116 228 l 2,18,19
 116 114 116 114 122 80 c 128,-1,20
 128 46 128 46 156 46 c 2,21,-1
 224 46 l 1,22,-1
 224 0 l 1,23,-1
 155 -5 l 1,24,25
 86 -5 86 -5 71.5 37.5 c 128,-1,26
 57 80 57 80 57 228 c 2,0,-1
EndSplineSet
EndChar

StartChar: u
Encoding: 117 117 88
Width: 385
GlyphClass: 2
Flags: W
LayerCount: 2
Fore
SplineSet
55 271 m 2,0,-1
 55 537 l 1,1,2
 99 537 99 537 106.5 531.5 c 128,-1,3
 114 526 114 526 114 491 c 2,4,-1
 114 273 l 2,5,6
 114 157 114 157 120.5 114.5 c 128,-1,7
 127 72 127 72 140.5 59 c 128,-1,8
 154 46 154 46 177 46 c 1,9,-1
 276 92 l 1,10,-1
 271 117 l 1,11,-1
 271 537 l 1,12,13
 315 537 315 537 322.5 531.5 c 128,-1,14
 330 526 330 526 330 491 c 2,15,-1
 330 0 l 1,16,17
 286 0 286 0 278.5 5 c 128,-1,18
 271 10 271 10 271 40 c 1,19,-1
 181 -7 l 1,20,21
 118 -7 118 -7 82 32 c 0,22,23
 59 58 59 58 56 164 c 0,24,25
 55 197 55 197 55 271 c 2,0,-1
EndSplineSet
EndChar

StartChar: v
Encoding: 118 118 89
Width: 327
GlyphClass: 2
Flags: W
LayerCount: 2
Fore
SplineSet
306 517 m 0,0,1
 306 466 306 466 209 0 c 1,2,-1
 122 0 l 1,3,-1
 20 537 l 1,4,5
 62 537 62 537 71 531 c 128,-1,6
 80 525 80 525 86 491 c 2,7,-1
 159 80 l 1,8,-1
 172 80 l 1,9,-1
 254 537 l 1,10,11
 301 537 301 537 304 528 c 0,12,13
 306 525 306 525 306 517 c 0,0,1
EndSplineSet
EndChar

StartChar: w
Encoding: 119 119 90
Width: 533
GlyphClass: 2
Flags: W
LayerCount: 2
Fore
SplineSet
512 516 m 0,0,1
 512 464 512 464 420 0 c 1,2,-1
 333 0 l 1,3,-1
 272 397 l 1,4,-1
 265 397 l 1,5,-1
 204 0 l 1,6,-1
 117 0 l 1,7,-1
 20 537 l 1,8,9
 63 537 63 537 71.5 531.5 c 128,-1,10
 80 526 80 526 87 491 c 1,11,-1
 154 80 l 1,12,-1
 162 80 l 1,13,-1
 230 452 l 1,14,-1
 242 483 l 1,15,-1
 298 483 l 1,16,-1
 308 452 l 1,17,-1
 375 80 l 1,18,-1
 383 80 l 1,19,-1
 461 537 l 1,20,21
 496 537 496 537 504 534 c 128,-1,22
 512 531 512 531 512 516 c 0,0,1
EndSplineSet
EndChar

StartChar: x
Encoding: 120 120 91
Width: 318
GlyphClass: 2
Flags: W
LayerCount: 2
Fore
SplineSet
21 11 m 0,0,1
 21 12 21 12 33 46 c 2,2,-1
 120 292 l 1,3,-1
 31 537 l 1,4,5
 73 537 73 537 83 531.5 c 128,-1,6
 93 526 93 526 106 493 c 1,7,-1
 155 347 l 1,8,-1
 167 347 l 1,9,-1
 224 537 l 1,10,11
 253 537 253 537 263 535 c 128,-1,12
 273 533 273 533 273 525 c 0,13,14
 273 490 273 490 193 281 c 1,15,-1
 298 0 l 1,16,-1
 241 0 l 1,17,-1
 162 226 l 1,18,-1
 150 226 l 1,19,-1
 72 0 l 1,20,21
 41 0 41 0 31 1.5 c 128,-1,22
 21 3 21 3 21 11 c 0,0,1
EndSplineSet
EndChar

StartChar: y
Encoding: 121 121 92
Width: 317
GlyphClass: 2
Flags: W
LayerCount: 2
Fore
SplineSet
26 -200 m 1,0,-1
 26 -153 l 1,1,2
 73 -153 73 -153 99.5 -120.5 c 128,-1,3
 126 -88 126 -88 126 -39 c 0,4,5
 126 -19 126 -19 20 537 c 1,6,7
 63 537 63 537 71.5 531.5 c 128,-1,8
 80 526 80 526 87 491 c 1,9,-1
 157 70 l 1,10,-1
 170 70 l 1,11,-1
 243 537 l 1,12,13
 291 537 291 537 294 528 c 0,14,15
 296 525 296 525 296 517 c 0,16,17
 296 466 296 466 199 0 c 0,18,19
 197 -9 197 -9 192 -37 c 128,-1,20
 187 -65 187 -65 184.5 -75 c 128,-1,21
 182 -85 182 -85 175 -107.5 c 128,-1,22
 168 -130 168 -130 161 -139 c 128,-1,23
 154 -148 154 -148 141.5 -163 c 128,-1,24
 129 -178 129 -178 114 -184 c 0,25,26
 72 -200 72 -200 26 -200 c 1,0,-1
EndSplineSet
EndChar

StartChar: z
Encoding: 122 122 93
Width: 333
GlyphClass: 2
Flags: W
LayerCount: 2
Fore
SplineSet
293 0 m 1,0,-1
 40 0 l 1,1,-1
 40 53 l 1,2,-1
 223 483 l 1,3,-1
 60 483 l 1,4,5
 60 524 60 524 66 530.5 c 128,-1,6
 72 537 72 537 106 537 c 2,7,-1
 291 537 l 1,8,-1
 291 483 l 1,9,-1
 99 53 l 1,10,-1
 235 53 l 2,11,12
 278 53 278 53 285.5 46.5 c 128,-1,13
 293 40 293 40 293 0 c 1,0,-1
EndSplineSet
EndChar

StartChar: braceleft
Encoding: 123 123 94
Width: 240
GlyphClass: 2
Flags: W
LayerCount: 2
Fore
SplineSet
220 -70 m 1,0,-1
 140 -70 l 2,1,2
 100 -70 100 -70 93.5 -64.5 c 128,-1,3
 87 -59 87 -59 87 -24 c 2,4,-1
 87 189 l 1,5,-1
 16 343 l 1,6,-1
 16 369 l 1,7,-1
 87 524 l 1,8,-1
 87 772 l 1,9,-1
 167 772 l 2,10,11
 207 772 207 772 213.5 766 c 128,-1,12
 220 760 220 760 220 726 c 1,13,-1
 140 726 l 1,14,-1
 140 524 l 1,15,-1
 65 356 l 1,16,-1
 140 189 l 1,17,-1
 140 -24 l 1,18,-1
 167 -24 l 2,19,20
 207 -24 207 -24 213.5 -30 c 128,-1,21
 220 -36 220 -36 220 -70 c 1,0,-1
EndSplineSet
EndChar

StartChar: bar
Encoding: 124 124 95
Width: 190
GlyphClass: 2
Flags: W
LayerCount: 2
Fore
SplineSet
64 -154 m 2,0,-1
 64 732 l 1,1,2
 108 732 108 732 115.5 726 c 128,-1,3
 123 720 123 720 123 686 c 2,4,-1
 123 -200 l 1,5,6
 79 -200 79 -200 71.5 -194 c 128,-1,7
 64 -188 64 -188 64 -154 c 2,0,-1
EndSplineSet
EndChar

StartChar: braceright
Encoding: 125 125 96
Width: 239
GlyphClass: 2
Flags: W
LayerCount: 2
Fore
SplineSet
100 -70 m 2,0,-1
 20 -70 l 1,1,2
 20 -36 20 -36 26.5 -30 c 128,-1,3
 33 -24 33 -24 73 -24 c 2,4,-1
 100 -24 l 1,5,-1
 100 189 l 1,6,-1
 175 356 l 1,7,-1
 100 524 l 1,8,-1
 100 726 l 1,9,-1
 20 726 l 1,10,11
 20 760 20 760 26.5 766 c 128,-1,12
 33 772 33 772 73 772 c 2,13,-1
 153 772 l 1,14,-1
 153 524 l 1,15,-1
 224 369 l 1,16,-1
 224 343 l 1,17,-1
 153 189 l 1,18,-1
 153 -24 l 2,19,20
 153 -59 153 -59 146.5 -64.5 c 128,-1,21
 140 -70 140 -70 100 -70 c 2,0,-1
EndSplineSet
EndChar

StartChar: asciitilde
Encoding: 126 126 97
Width: 377
GlyphClass: 2
Flags: W
LayerCount: 2
Fore
SplineSet
107 359 m 1,0,-1
 279 349 l 1,1,2
 300 349 300 349 310 351 c 1,3,-1
 323 349 l 1,4,-1
 323 328 l 2,5,6
 323 306 323 306 315.5 302 c 128,-1,7
 308 298 308 298 264 298 c 1,8,-1
 92 308 l 1,9,10
 71 308 71 308 61 306 c 1,11,-1
 48 308 l 1,12,-1
 48 329 l 2,13,14
 48 352 48 352 55.5 355.5 c 128,-1,15
 63 359 63 359 107 359 c 1,0,-1
EndSplineSet
EndChar

StartChar: exclamdown
Encoding: 161 161 99
Width: 162
GlyphClass: 2
Flags: W
LayerCount: 2
Fore
SplineSet
127 497 m 128,-1,1
 127 478 127 478 113.5 464.5 c 128,-1,2
 100 451 100 451 81 451 c 128,-1,3
 62 451 62 451 48.5 464.5 c 128,-1,4
 35 478 35 478 35 497 c 128,-1,5
 35 516 35 516 48.5 529 c 128,-1,6
 62 542 62 542 81 542 c 128,-1,7
 100 542 100 542 113.5 529 c 128,-1,0
 127 516 127 516 127 497 c 128,-1,1
32 -178 m 1,8,-1
 52 313 l 2,9,10
 54 348 54 348 58 353 c 1,11,12
 66 359 66 359 108 359 c 1,13,-1
 98 -132 l 2,14,15
 97 -166 97 -166 87.5 -172 c 128,-1,16
 78 -178 78 -178 32 -178 c 1,8,-1
EndSplineSet
EndChar

StartChar: cent
Encoding: 162 162 100
Width: 371
GlyphClass: 2
Flags: W
LayerCount: 2
Fore
SplineSet
311 10 m 1,0,-1
 223 -5 l 1,1,-1
 223 -118 l 1,2,3
 186 -118 186 -118 179.5 -112 c 128,-1,4
 173 -106 173 -106 173 -72 c 2,5,-1
 173 -6 l 1,6,7
 145 -3 145 -3 126 4.5 c 128,-1,8
 107 12 107 12 94.5 30 c 128,-1,9
 82 48 82 48 75.5 64 c 128,-1,10
 69 80 69 80 66 116 c 0,11,12
 61 163 61 163 61 214.5 c 128,-1,13
 61 266 61 266 61 295 c 128,-1,14
 61 324 61 324 61.5 346.5 c 128,-1,15
 62 369 62 369 63.5 404 c 128,-1,16
 65 439 65 439 69.5 453.5 c 128,-1,17
 74 468 74 468 82 488.5 c 128,-1,18
 90 509 90 509 102 518 c 0,19,20
 133 540 133 540 173 543 c 1,21,-1
 173 634 l 1,22,23
 210 634 210 634 216.5 628 c 128,-1,24
 223 622 223 622 223 588 c 2,25,-1
 223 542 l 1,26,-1
 311 537 l 1,27,28
 311 502 311 502 304.5 496.5 c 128,-1,29
 298 491 298 491 261 491 c 2,30,-1
 202 491 l 2,31,32
 144 491 144 491 131.5 448.5 c 128,-1,33
 119 406 119 406 119 313.5 c 128,-1,34
 119 221 119 221 119.5 198.5 c 128,-1,35
 120 176 120 176 122 144 c 128,-1,36
 124 112 124 112 129 99 c 128,-1,37
 134 86 134 86 143.5 70.5 c 128,-1,38
 153 55 153 55 167 50.5 c 128,-1,39
 181 46 181 46 211 46 c 128,-1,40
 241 46 241 46 311 56 c 1,41,-1
 311 10 l 1,0,-1
EndSplineSet
EndChar

StartChar: sterling
Encoding: 163 163 101
Width: 381
GlyphClass: 2
Flags: W
LayerCount: 2
Fore
SplineSet
331 -1 m 1,0,-1
 90 -1 l 1,1,-1
 90 205 l 1,2,-1
 97 218 l 1,3,4
 59 221 59 221 40 221 c 128,-1,5
 21 221 21 221 5 219 c 1,6,-1
 -8 221 l 1,7,-1
 -8 242 l 2,8,9
 -8 264 -8 264 -0.5 268 c 128,-1,10
 7 272 7 272 32.5 272 c 128,-1,11
 58 272 58 272 96 270 c 1,12,-1
 90 284 l 1,13,-1
 90 562 l 1,14,15
 133 562 133 562 140.5 556 c 128,-1,16
 148 550 148 550 148 516 c 2,17,-1
 148 277 l 1,18,-1
 142 264 l 1,19,20
 181 261 181 261 207.5 261 c 128,-1,21
 234 261 234 261 247 264 c 1,22,-1
 260 262 l 1,23,-1
 260 241 l 2,24,25
 260 218 260 218 252.5 214.5 c 128,-1,26
 245 211 245 211 217 211 c 128,-1,27
 189 211 189 211 143 213 c 1,28,-1
 148 201 l 1,29,-1
 148 81 l 1,30,-1
 144 56 l 1,31,-1
 273 56 l 2,32,33
 316 56 316 56 323.5 50 c 128,-1,34
 331 44 331 44 331 10 c 2,35,-1
 331 -1 l 1,0,-1
EndSplineSet
EndChar

StartChar: currency
Encoding: 164 164 102
Width: 486
GlyphClass: 2
Flags: W
LayerCount: 2
Fore
SplineSet
306.5 322.5 m 128,-1,1
 330 345 330 345 330 377 c 128,-1,2
 330 409 330 409 306.5 432 c 128,-1,3
 283 455 283 455 250.5 455 c 128,-1,4
 218 455 218 455 195 432.5 c 128,-1,5
 172 410 172 410 172 377.5 c 128,-1,6
 172 345 172 345 195 322.5 c 128,-1,7
 218 300 218 300 250.5 300 c 128,-1,0
 283 300 283 300 306.5 322.5 c 128,-1,1
325 269 m 1,8,9
 290 247 290 247 252 247 c 128,-1,10
 214 247 214 247 182 266 c 1,11,-1
 107 201 l 1,12,13
 83 225 83 225 83 233 c 128,-1,14
 83 241 83 241 110 269 c 1,15,-1
 145 303 l 1,16,17
 118 340 118 340 118 380 c 128,-1,18
 118 420 118 420 142 450 c 1,19,-1
 77 525 l 1,20,21
 101 549 101 549 109 549 c 128,-1,22
 117 549 117 549 145 522 c 1,23,-1
 179 487 l 1,24,25
 213 508 213 508 252 508 c 128,-1,26
 291 508 291 508 326 484 c 1,27,-1
 401 549 l 1,28,29
 425 525 425 525 425 517 c 128,-1,30
 425 509 425 509 398 481 c 1,31,-1
 363 447 l 1,32,33
 384 415 384 415 384 377.5 c 128,-1,34
 384 340 384 340 361 305 c 1,35,-1
 426 230 l 1,36,37
 402 206 402 206 394 206 c 128,-1,38
 386 206 386 206 358 233 c 1,39,-1
 324 268 l 1,40,-1
 325 269 l 1,8,9
EndSplineSet
EndChar

StartChar: yen
Encoding: 165 165 103
Width: 402
GlyphClass: 2
Flags: W
LayerCount: 2
Fore
SplineSet
228 0 m 1,0,-1
 223 0 l 2,1,2
 182 0 182 0 175.5 5.5 c 128,-1,3
 169 11 169 11 169 46 c 2,4,-1
 169 77 l 1,5,-1
 174 87 l 1,6,7
 132 90 132 90 112 90 c 128,-1,8
 92 90 92 90 76 88 c 1,9,-1
 63 90 l 1,10,-1
 63 111 l 2,11,12
 63 134 63 134 70.5 137.5 c 128,-1,13
 78 141 78 141 104.5 141 c 128,-1,14
 131 141 131 141 173 139 c 1,15,-1
 169 149 l 1,16,-1
 169 171 l 1,17,-1
 174 183 l 1,18,19
 132 186 132 186 112 186 c 128,-1,20
 92 186 92 186 76 184 c 1,21,-1
 63 186 l 1,22,-1
 63 207 l 2,23,24
 63 230 63 230 70.5 233.5 c 128,-1,25
 78 237 78 237 103.5 237 c 128,-1,26
 129 237 129 237 175 235 c 1,27,-1
 169 263 l 1,28,-1
 34 537 l 1,29,-1
 49 537 l 2,30,31
 81 537 81 537 90 531 c 128,-1,32
 99 525 99 525 116 491 c 2,33,-1
 194 333 l 1,34,-1
 206 333 l 1,35,-1
 299 537 l 1,36,-1
 314 537 l 2,37,38
 341 537 341 537 349.5 535.5 c 128,-1,39
 358 534 358 534 358 527 c 128,-1,40
 358 520 358 520 228 263 c 1,41,-1
 222 229 l 1,42,43
 263 226 263 226 285.5 226 c 128,-1,44
 308 226 308 226 321 229 c 1,45,-1
 334 227 l 1,46,-1
 334 206 l 2,47,48
 334 184 334 184 326.5 180 c 128,-1,49
 319 176 319 176 291.5 176 c 128,-1,50
 264 176 264 176 224 178 c 1,51,-1
 228 168 l 1,52,-1
 228 142 l 1,53,-1
 224 133 l 1,54,55
 262 130 262 130 285 130 c 128,-1,56
 308 130 308 130 321 133 c 1,57,-1
 334 131 l 1,58,-1
 334 110 l 2,59,60
 334 88 334 88 326.5 84 c 128,-1,61
 319 80 319 80 291.5 80 c 128,-1,62
 264 80 264 80 224 82 c 1,63,-1
 228 71 l 1,64,-1
 228 0 l 1,0,-1
EndSplineSet
EndChar

StartChar: brokenbar
Encoding: 166 166 104
Width: 176
GlyphClass: 2
Flags: W
LayerCount: 2
Fore
SplineSet
60 368 m 2,0,-1
 60 732 l 1,1,2
 105 732 105 732 114 726 c 128,-1,3
 123 720 123 720 123 686 c 2,4,-1
 123 322 l 1,5,6
 76 322 76 322 68 328 c 128,-1,7
 60 334 60 334 60 368 c 2,0,-1
60 -150 m 2,8,-1
 60 214 l 1,9,10
 105 214 105 214 114 208 c 128,-1,11
 123 202 123 202 123 168 c 2,12,-1
 123 -196 l 1,13,14
 76 -196 76 -196 68 -190 c 128,-1,15
 60 -184 60 -184 60 -150 c 2,8,-1
EndSplineSet
EndChar

StartChar: section
Encoding: 167 167 105
Width: 326
GlyphClass: 2
Flags: W
LayerCount: 2
Fore
SplineSet
119.5 49 m 128,-1,1
 140 46 140 46 160 46 c 128,-1,2
 180 46 180 46 194 52.5 c 128,-1,3
 208 59 208 59 215.5 67.5 c 128,-1,4
 223 76 223 76 226 94 c 0,5,6
 231 117 231 117 231 160 c 0,7,8
 231 197 231 197 132 270 c 0,9,10
 95 298 95 298 64 337.5 c 128,-1,11
 33 377 33 377 33 410.5 c 128,-1,12
 33 444 33 444 34 460 c 0,13,14
 37 503 37 503 66 523 c 1,15,16
 35 562 35 562 35 599 c 128,-1,17
 35 636 35 636 37.5 653.5 c 128,-1,18
 40 671 40 671 52 692.5 c 128,-1,19
 64 714 64 714 93 722.5 c 128,-1,20
 122 731 122 731 170 731 c 1,21,-1
 265 717 l 1,22,23
 265 671 265 671 228 671 c 0,24,25
 221 671 221 671 214 672 c 2,26,-1
 173 678 l 1,27,28
 116 678 116 678 104 657 c 0,29,30
 97 645 97 645 95.5 635.5 c 128,-1,31
 94 626 94 626 94 605.5 c 128,-1,32
 94 585 94 585 114.5 561 c 128,-1,33
 135 537 135 537 164.5 513.5 c 128,-1,34
 194 490 194 490 224 465 c 0,35,36
 294 405 294 405 294 353 c 0,37,38
 294 259 294 259 271 225 c 1,39,40
 292 194 292 194 292 163.5 c 128,-1,41
 292 133 292 133 291 115.5 c 128,-1,42
 290 98 290 98 283 70.5 c 128,-1,43
 276 43 276 43 263 29 c 0,44,45
 230 -7 230 -7 158 -7 c 0,46,47
 128 -7 128 -7 88 5 c 128,-1,48
 48 17 48 17 34 20 c 1,49,-1
 34 66 l 1,50,51
 47 64 47 64 73 58 c 128,-1,0
 99 52 99 52 119.5 49 c 128,-1,1
92 418 m 0,52,53
 92 388 92 388 136 349 c 0,54,55
 151 335 151 335 181 310.5 c 128,-1,56
 211 286 211 286 226 273 c 1,57,58
 233 293 233 293 233 347 c 0,59,60
 233 372 233 372 194 407 c 0,61,62
 179 420 179 420 151 443 c 128,-1,63
 123 466 123 466 109 478 c 1,64,65
 92 466 92 466 92 418 c 0,52,53
EndSplineSet
EndChar

StartChar: dieresis
Encoding: 168 168 106
Width: 341
GlyphClass: 2
Flags: W
LayerCount: 2
Fore
SplineSet
99 629 m 128,-1,1
 80 629 80 629 66.5 642.5 c 128,-1,2
 53 656 53 656 53 675 c 128,-1,3
 53 694 53 694 66.5 707 c 128,-1,4
 80 720 80 720 99 720 c 128,-1,5
 118 720 118 720 131.5 707 c 128,-1,6
 145 694 145 694 145 675 c 128,-1,7
 145 656 145 656 131.5 642.5 c 128,-1,0
 118 629 118 629 99 629 c 128,-1,1
242 629 m 128,-1,9
 223 629 223 629 209.5 642.5 c 128,-1,10
 196 656 196 656 196 675 c 128,-1,11
 196 694 196 694 209.5 707 c 128,-1,12
 223 720 223 720 242 720 c 128,-1,13
 261 720 261 720 274.5 707 c 128,-1,14
 288 694 288 694 288 675 c 128,-1,15
 288 656 288 656 274.5 642.5 c 128,-1,8
 261 629 261 629 242 629 c 128,-1,9
EndSplineSet
EndChar

StartChar: copyright
Encoding: 169 169 107
Width: 653
GlyphClass: 2
Flags: W
LayerCount: 2
Fore
SplineSet
230 241 m 0,0,1
 230 260 230 260 230 296.5 c 128,-1,2
 230 333 230 333 230.5 349 c 128,-1,3
 231 365 231 365 233.5 388.5 c 128,-1,4
 236 412 236 412 241.5 422.5 c 128,-1,5
 247 433 247 433 256 444 c 0,6,7
 273 465 273 465 320 465 c 1,8,-1
 395 460 l 1,9,10
 395 433 395 433 391 428.5 c 128,-1,11
 387 424 387 424 363 424 c 2,12,-1
 320 424 l 2,13,14
 303 424 303 424 293.5 417 c 128,-1,15
 284 410 284 410 280 390.5 c 128,-1,16
 276 371 276 371 275 354.5 c 128,-1,17
 274 338 274 338 274 300 c 128,-1,18
 274 262 274 262 275 245.5 c 128,-1,19
 276 229 276 229 280 209.5 c 128,-1,20
 284 190 284 190 293.5 183 c 128,-1,21
 303 176 303 176 320 176 c 1,22,-1
 406 186 l 1,23,-1
 406 144 l 1,24,-1
 320 131 l 1,25,26
 274 131 274 131 250 159 c 0,27,28
 232 179 232 179 230 241 c 0,0,1
529 85.5 m 128,-1,30
 447 0 447 0 325.5 0 c 128,-1,31
 204 0 204 0 122.5 85.5 c 128,-1,32
 41 171 41 171 41 294.5 c 128,-1,33
 41 418 41 418 122.5 504 c 128,-1,34
 204 590 204 590 325.5 590 c 128,-1,35
 447 590 447 590 529 504 c 128,-1,36
 611 418 611 418 611 294.5 c 128,-1,29
 611 171 611 171 529 85.5 c 128,-1,30
326 51 m 128,-1,38
 426 51 426 51 493 122 c 128,-1,39
 560 193 560 193 560 295 c 128,-1,40
 560 397 560 397 493 468 c 128,-1,41
 426 539 426 539 326 539 c 128,-1,42
 226 539 226 539 159 468 c 128,-1,43
 92 397 92 397 92 295 c 128,-1,44
 92 193 92 193 159 122 c 128,-1,37
 226 51 226 51 326 51 c 128,-1,38
EndSplineSet
EndChar

StartChar: ordfeminine
Encoding: 170 170 108
Width: 271
GlyphClass: 2
Flags: W
LayerCount: 2
Fore
SplineSet
165 550 m 1,0,1
 127 550 127 550 109 545 c 128,-1,2
 91 540 91 540 91 523 c 0,3,4
 91 442 91 442 96 437 c 128,-1,5
 101 432 101 432 114 432 c 1,6,-1
 165 462 l 1,7,-1
 165 550 l 1,0,1
47 522 m 0,8,9
 47 597 47 597 169 597 c 1,10,-1
 169 659 l 2,11,12
 169 679 169 679 161 683 c 0,13,14
 159 684 159 684 155.5 686.5 c 128,-1,15
 152 689 152 689 148 689.5 c 128,-1,16
 144 690 144 690 138 691 c 128,-1,17
 132 692 132 692 125 692 c 2,18,-1
 90 692 l 2,19,20
 64 692 64 692 59.5 696 c 128,-1,21
 55 700 55 700 55 724 c 1,22,-1
 125 733 l 1,23,24
 186 733 186 733 200 708 c 0,25,26
 207 694 207 694 208.5 682 c 128,-1,27
 210 670 210 670 210 643 c 2,28,-1
 210 394 l 1,29,30
 179 394 179 394 174 398.5 c 128,-1,31
 169 403 169 403 169 429 c 1,32,-1
 112 389 l 1,33,34
 81 389 81 389 64 398 c 1,35,36
 54 402 54 402 52 419 c 0,37,38
 47 462 47 462 47 522 c 0,8,9
EndSplineSet
EndChar

StartChar: guillemotleft
Encoding: 171 171 109
Width: 323
GlyphClass: 2
Flags: W
LayerCount: 2
Fore
SplineSet
160 135 m 1,0,-1
 105 135 l 1,1,-1
 35 289 l 1,2,-1
 35 315 l 1,3,-1
 106 470 l 1,4,-1
 160 470 l 1,5,-1
 84 302 l 1,6,-1
 160 135 l 1,0,-1
273 135 m 1,7,-1
 218 135 l 1,8,-1
 148 289 l 1,9,-1
 148 315 l 1,10,-1
 219 470 l 1,11,-1
 273 470 l 1,12,-1
 197 302 l 1,13,-1
 273 135 l 1,7,-1
EndSplineSet
EndChar

StartChar: logicalnot
Encoding: 172 172 110
Width: 356
GlyphClass: 2
Flags: W
LayerCount: 2
Fore
SplineSet
249 222 m 1,0,-1
 249 302 l 1,1,-1
 29 302 l 1,2,-1
 29 355 l 1,3,-1
 295 355 l 1,4,-1
 295 275 l 2,5,6
 295 235 295 235 289.5 228.5 c 128,-1,7
 284 222 284 222 249 222 c 1,0,-1
EndSplineSet
EndChar

StartChar: registered
Encoding: 174 174 111
Width: 653
GlyphClass: 2
Flags: W
LayerCount: 2
Fore
SplineSet
293 181 m 2,0,1
 293 159 293 159 287.5 155.5 c 128,-1,2
 282 152 282 152 248 152 c 1,3,-1
 248 460 l 1,4,-1
 320 465 l 1,5,6
 356 465 356 465 376.5 460.5 c 128,-1,7
 397 456 397 456 406 441.5 c 128,-1,8
 415 427 415 427 416.5 414.5 c 128,-1,9
 418 402 418 402 418 373 c 128,-1,10
 418 344 418 344 417.5 334.5 c 128,-1,11
 417 325 417 325 411 310.5 c 128,-1,12
 405 296 405 296 391 290.5 c 128,-1,13
 377 285 377 285 351 282 c 1,14,-1
 420 152 l 1,15,16
 390 152 390 152 380 157 c 128,-1,17
 370 162 370 162 360 178 c 1,18,-1
 306 281 l 1,19,-1
 292 281 l 1,20,-1
 293 268 l 1,21,-1
 293 181 l 2,0,1
292 423 m 1,22,-1
 293 418 l 1,23,-1
 293 335 l 1,24,-1
 292 322 l 1,25,-1
 320 322 l 2,26,27
 357 322 357 322 364.5 330.5 c 128,-1,28
 372 339 372 339 372 373.5 c 128,-1,29
 372 408 372 408 365 415.5 c 128,-1,30
 358 423 358 423 320 423 c 2,31,-1
 292 423 l 1,22,-1
529 85.5 m 128,-1,33
 447 0 447 0 325.5 0 c 128,-1,34
 204 0 204 0 122.5 85.5 c 128,-1,35
 41 171 41 171 41 294.5 c 128,-1,36
 41 418 41 418 122.5 504 c 128,-1,37
 204 590 204 590 325.5 590 c 128,-1,38
 447 590 447 590 529 504 c 128,-1,39
 611 418 611 418 611 294.5 c 128,-1,32
 611 171 611 171 529 85.5 c 128,-1,33
326 51 m 128,-1,41
 426 51 426 51 493 122 c 128,-1,42
 560 193 560 193 560 295 c 128,-1,43
 560 397 560 397 493 468 c 128,-1,44
 426 539 426 539 326 539 c 128,-1,45
 226 539 226 539 159 468 c 128,-1,46
 92 397 92 397 92 295 c 128,-1,47
 92 193 92 193 159 122 c 128,-1,40
 226 51 226 51 326 51 c 128,-1,41
EndSplineSet
EndChar

StartChar: macron
Encoding: 175 175 112
Width: 336
GlyphClass: 2
Flags: W
LayerCount: 2
Fore
SplineSet
274 669 m 1,0,-1
 60 669 l 1,1,-1
 60 720 l 1,2,-1
 274 720 l 1,3,-1
 274 669 l 1,0,-1
EndSplineSet
EndChar

StartChar: degree
Encoding: 176 176 113
Width: 348
GlyphClass: 2
Flags: W
LayerCount: 2
Fore
SplineSet
307 601 m 128,-1,1
 307 547 307 547 267.5 508.5 c 128,-1,2
 228 470 228 470 174 470 c 128,-1,3
 120 470 120 470 80.5 508.5 c 128,-1,4
 41 547 41 547 41 601 c 128,-1,5
 41 655 41 655 80.5 693 c 128,-1,6
 120 731 120 731 174 731 c 128,-1,7
 228 731 228 731 267.5 693 c 128,-1,0
 307 655 307 655 307 601 c 128,-1,1
229.5 545.5 m 128,-1,9
 253 568 253 568 253 600 c 128,-1,10
 253 632 253 632 229.5 655 c 128,-1,11
 206 678 206 678 173.5 678 c 128,-1,12
 141 678 141 678 118 655.5 c 128,-1,13
 95 633 95 633 95 600.5 c 128,-1,14
 95 568 95 568 118 545.5 c 128,-1,15
 141 523 141 523 173.5 523 c 128,-1,8
 206 523 206 523 229.5 545.5 c 128,-1,9
EndSplineSet
EndChar

StartChar: plusminus
Encoding: 177 177 114
Width: 279
GlyphClass: 2
Flags: W
LayerCount: 2
Fore
SplineSet
164 316 m 1,0,-1
 113 316 l 1,1,-1
 113 383 l 1,2,-1
 117 408 l 1,3,-1
 32 408 l 1,4,-1
 32 459 l 1,5,-1
 117 459 l 1,6,-1
 113 484 l 1,7,-1
 113 550 l 1,8,-1
 164 550 l 1,9,-1
 164 484 l 1,10,-1
 160 459 l 1,11,-1
 246 459 l 1,12,-1
 246 408 l 1,13,-1
 160 408 l 1,14,-1
 164 383 l 1,15,-1
 164 316 l 1,0,-1
246 216 m 1,16,-1
 32 216 l 1,17,-1
 32 267 l 1,18,-1
 246 267 l 1,19,-1
 246 216 l 1,16,-1
EndSplineSet
EndChar

StartChar: twosuperior
Encoding: 178 178 115
Width: 270
GlyphClass: 2
Flags: W
LayerCount: 2
Fore
SplineSet
212 423 m 1,0,-1
 64 423 l 1,1,-1
 64 520 l 2,2,3
 64 542 64 542 79 561 c 128,-1,4
 94 580 94 580 112 592 c 0,5,6
 161 623 161 623 161 655 c 0,7,8
 161 667 161 667 160 674 c 1,9,10
 155 691 155 691 126 691 c 2,11,-1
 95 691 l 2,12,13
 71 691 71 691 67 695.5 c 128,-1,14
 63 700 63 700 63 730 c 1,15,-1
 128 735 l 1,16,17
 182 734 182 734 196 715 c 128,-1,18
 210 696 210 696 210 659.5 c 128,-1,19
 210 623 210 623 186.5 599 c 128,-1,20
 163 575 163 575 138.5 555 c 128,-1,21
 114 535 114 535 112 517 c 1,22,-1
 112 467 l 1,23,-1
 212 467 l 1,24,-1
 212 423 l 1,0,-1
EndSplineSet
EndChar

StartChar: threesuperior
Encoding: 179 179 116
Width: 256
GlyphClass: 2
Flags: W
LayerCount: 2
Fore
SplineSet
65 466 m 1,0,1
 118 461 118 461 132.5 461 c 128,-1,2
 147 461 147 461 150.5 473.5 c 128,-1,3
 154 486 154 486 154 534.5 c 128,-1,4
 154 583 154 583 150.5 594.5 c 128,-1,5
 147 606 147 606 129 606 c 2,6,-1
 94 606 l 1,7,-1
 136 688 l 1,8,-1
 65 688 l 1,9,-1
 65 732 l 1,10,-1
 202 732 l 1,11,-1
 149 638 l 1,12,13
 187 628 187 628 194.5 611 c 128,-1,14
 202 594 202 594 202 528.5 c 128,-1,15
 202 463 202 463 189.5 440 c 128,-1,16
 177 417 177 417 130 417 c 0,17,18
 124 417 124 417 65 425 c 1,19,-1
 65 466 l 1,0,1
EndSplineSet
EndChar

StartChar: acute
Encoding: 180 180 117
Width: 173
GlyphClass: 2
Flags: W
LayerCount: 2
Fore
SplineSet
81 699 m 1,0,1
 114 732 114 732 122 732 c 0,2,3
 132 732 132 732 163 701 c 1,4,-1
 48 587 l 1,5,-1
 13 623 l 1,6,-1
 81 699 l 1,0,1
EndSplineSet
EndChar

StartChar: mu
Encoding: 181 181 118
Width: 380
GlyphClass: 2
Flags: W
LayerCount: 2
Fore
SplineSet
60 -193 m 1,0,-1
 60 539 l 1,1,2
 104 539 104 539 111.5 533.5 c 128,-1,3
 119 528 119 528 119 493 c 2,4,-1
 119 107 l 1,5,-1
 113 85 l 1,6,-1
 213 48 l 1,7,8
 246 48 246 48 258 60 c 128,-1,9
 270 72 270 72 276 80 c 128,-1,10
 282 88 282 88 285.5 106.5 c 128,-1,11
 289 125 289 125 291.5 137.5 c 128,-1,12
 294 150 294 150 295 177 c 128,-1,13
 296 204 296 204 296 220 c 2,14,15
 296 220 296 220 296 493 c 0,16,17
 296 528 296 528 303.5 533.5 c 128,-1,18
 311 539 311 539 355 539 c 1,19,-1
 355 273 l 2,20,21
 355 199 355 199 354 166.5 c 128,-1,22
 353 134 353 134 346 91.5 c 128,-1,23
 339 49 339 49 324 34 c 0,24,25
 285 -5 285 -5 213 -5 c 1,26,-1
 112 34 l 1,27,-1
 118 4 l 1,28,-1
 118 -147 l 2,29,30
 118 -182 118 -182 111 -187.5 c 128,-1,31
 104 -193 104 -193 60 -193 c 1,0,-1
EndSplineSet
EndChar

StartChar: paragraph
Encoding: 182 182 119
Width: 510
GlyphClass: 2
Flags: W
LayerCount: 2
Fore
SplineSet
376 0 m 1,0,-1
 313 0 l 1,1,-1
 313 649 l 1,2,-1
 318 668 l 1,3,-1
 219 668 l 1,4,-1
 224 649 l 1,5,-1
 224 0 l 1,6,-1
 161 0 l 1,7,-1
 161 470 l 1,8,9
 107 471 107 471 68.5 509 c 128,-1,10
 30 547 30 547 30 600.5 c 128,-1,11
 30 654 30 654 68.5 692 c 128,-1,12
 107 730 107 730 161 731 c 1,13,-1
 480 731 l 1,14,-1
 480 668 l 1,15,-1
 371 668 l 1,16,-1
 376 649 l 1,17,-1
 376 0 l 1,0,-1
EndSplineSet
EndChar

StartChar: periodcentered
Encoding: 183 183 120
Width: 176
GlyphClass: 2
Flags: W
LayerCount: 2
Fore
SplineSet
89 255 m 128,-1,1
 70 255 70 255 56.5 268.5 c 128,-1,2
 43 282 43 282 43 301 c 128,-1,3
 43 320 43 320 56.5 333 c 128,-1,4
 70 346 70 346 89 346 c 128,-1,5
 108 346 108 346 121.5 333 c 128,-1,6
 135 320 135 320 135 301 c 128,-1,7
 135 282 135 282 121.5 268.5 c 128,-1,0
 108 255 108 255 89 255 c 128,-1,1
EndSplineSet
EndChar

StartChar: cedilla
Encoding: 184 184 121
Width: 177
GlyphClass: 2
Flags: W
LayerCount: 2
Fore
SplineSet
116 -154 m 2,0,-1
 81 -154 l 2,1,2
 41 -154 41 -154 34.5 -148 c 128,-1,3
 28 -142 28 -142 28 -108 c 1,4,-1
 115 -108 l 1,5,-1
 115 1 l 1,6,-1
 161 1 l 1,7,-1
 161 -108 l 2,8,9
 161 -138 161 -138 153.5 -146 c 128,-1,10
 146 -154 146 -154 116 -154 c 2,0,-1
EndSplineSet
EndChar

StartChar: onesuperior
Encoding: 185 185 122
Width: 184
GlyphClass: 2
Flags: W
LayerCount: 2
Fore
SplineSet
132 423 m 1,0,-1
 83 423 l 1,1,-1
 83 687 l 1,2,-1
 39 676 l 1,3,-1
 39 722 l 1,4,-1
 72 733 l 1,5,-1
 100 733 l 2,6,7
 124 733 124 733 128 727.5 c 128,-1,8
 132 722 132 722 132 690 c 2,9,-1
 132 423 l 1,0,-1
EndSplineSet
EndChar

StartChar: ordmasculine
Encoding: 186 186 123
Width: 282
GlyphClass: 2
Flags: W
LayerCount: 2
Fore
SplineSet
135 391 m 128,-1,1
 79 391 79 391 62 424 c 128,-1,2
 45 457 45 457 45 550.5 c 128,-1,3
 45 644 45 644 52.5 677.5 c 128,-1,4
 60 711 60 711 77.5 721.5 c 128,-1,5
 95 732 95 732 135 732 c 128,-1,6
 175 732 175 732 192.5 721.5 c 128,-1,7
 210 711 210 711 217.5 677.5 c 128,-1,8
 225 644 225 644 225 550.5 c 128,-1,9
 225 457 225 457 208 424 c 128,-1,0
 191 391 191 391 135 391 c 128,-1,1
135 442 m 128,-1,11
 163 442 163 442 171 462.5 c 128,-1,12
 179 483 179 483 179 553 c 128,-1,13
 179 623 179 623 174.5 647 c 128,-1,14
 170 671 170 671 162.5 676 c 128,-1,15
 155 681 155 681 135 681 c 128,-1,16
 115 681 115 681 108 676 c 0,17,18
 91 665 91 665 91 574.5 c 128,-1,19
 91 484 91 484 99 463 c 128,-1,10
 107 442 107 442 135 442 c 128,-1,11
EndSplineSet
EndChar

StartChar: guillemotright
Encoding: 187 187 124
Width: 323
GlyphClass: 2
Flags: W
LayerCount: 2
Fore
SplineSet
218 135 m 1,0,-1
 163 135 l 1,1,-1
 239 302 l 1,2,-1
 163 470 l 1,3,-1
 217 470 l 1,4,-1
 288 315 l 1,5,-1
 288 289 l 1,6,-1
 218 135 l 1,0,-1
105 135 m 1,7,-1
 50 135 l 1,8,-1
 126 302 l 1,9,-1
 50 470 l 1,10,-1
 104 470 l 1,11,-1
 175 315 l 1,12,-1
 175 289 l 1,13,-1
 105 135 l 1,7,-1
EndSplineSet
EndChar

StartChar: onequarter
Encoding: 188 188 125
Width: 277
GlyphClass: 2
Flags: W
LayerCount: 2
Fore
SplineSet
177 0 m 1,0,-1
 137 0 l 1,1,-1
 137 57 l 1,2,-1
 142 75 l 1,3,-1
 17 75 l 1,4,-1
 129 306 l 1,5,-1
 177 306 l 1,6,-1
 177 128 l 1,7,-1
 172 113 l 1,8,-1
 200 113 l 1,9,-1
 200 75 l 1,10,-1
 172 75 l 1,11,-1
 177 57 l 1,12,-1
 177 0 l 1,0,-1
142 113 m 1,13,-1
 137 128 l 1,14,-1
 137 229 l 1,15,-1
 77 113 l 1,16,-1
 142 113 l 1,13,-1
171 423 m 1,17,-1
 122 423 l 1,18,-1
 122 687 l 1,19,-1
 77 676 l 1,20,-1
 77 722 l 1,21,-1
 111 733 l 1,22,-1
 139 733 l 2,23,24
 163 733 163 733 167 727.5 c 128,-1,25
 171 722 171 722 171 690 c 2,26,-1
 171 423 l 1,17,-1
242 342 m 1,27,-1
 39 342 l 1,28,-1
 39 389 l 1,29,-1
 242 389 l 1,30,-1
 242 342 l 1,27,-1
EndSplineSet
EndChar

StartChar: onehalf
Encoding: 189 189 126
Width: 302
GlyphClass: 2
Flags: W
LayerCount: 2
Fore
SplineSet
233 0 m 1,0,-1
 85 0 l 1,1,-1
 85 97 l 2,2,3
 85 135 85 135 133.5 170.5 c 128,-1,4
 182 206 182 206 182 232 c 0,5,6
 182 244 182 244 180 250 c 0,7,8
 176 268 176 268 147 268 c 2,9,-1
 116 268 l 2,10,11
 92 268 92 268 88 272.5 c 128,-1,12
 84 277 84 277 84 307 c 1,13,-1
 149 312 l 1,14,15
 203 311 203 311 217 292 c 128,-1,16
 231 273 231 273 231 236.5 c 128,-1,17
 231 200 231 200 207.5 176 c 128,-1,18
 184 152 184 152 159.5 132 c 128,-1,19
 135 112 135 112 133 94 c 1,20,-1
 133 44 l 1,21,-1
 233 44 l 1,22,-1
 233 0 l 1,0,-1
188 423 m 1,23,-1
 139 423 l 1,24,-1
 139 687 l 1,25,-1
 95 676 l 1,26,-1
 95 722 l 1,27,-1
 128 733 l 1,28,-1
 156 733 l 2,29,30
 180 733 180 733 184 727.5 c 128,-1,31
 188 722 188 722 188 690 c 2,32,-1
 188 423 l 1,23,-1
262 342 m 1,33,-1
 59 342 l 1,34,-1
 59 389 l 1,35,-1
 262 389 l 1,36,-1
 262 342 l 1,33,-1
EndSplineSet
EndChar

StartChar: threequarters
Encoding: 190 190 127
Width: 282
GlyphClass: 2
Flags: W
LayerCount: 2
Fore
SplineSet
242 342 m 1,0,-1
 39 342 l 1,1,-1
 39 389 l 1,2,-1
 242 389 l 1,3,-1
 242 342 l 1,0,-1
181 0 m 1,4,-1
 141 0 l 1,5,-1
 141 57 l 1,6,-1
 146 75 l 1,7,-1
 21 75 l 1,8,-1
 133 306 l 1,9,-1
 181 306 l 1,10,-1
 181 128 l 1,11,-1
 176 113 l 1,12,-1
 204 113 l 1,13,-1
 204 75 l 1,14,-1
 176 75 l 1,15,-1
 181 57 l 1,16,-1
 181 0 l 1,4,-1
146 113 m 1,17,-1
 141 128 l 1,18,-1
 141 229 l 1,19,-1
 81 113 l 1,20,-1
 146 113 l 1,17,-1
65 466 m 1,21,22
 118 461 118 461 132.5 461 c 128,-1,23
 147 461 147 461 150.5 473.5 c 128,-1,24
 154 486 154 486 154 534.5 c 128,-1,25
 154 583 154 583 150.5 594.5 c 128,-1,26
 147 606 147 606 129 606 c 2,27,-1
 94 606 l 1,28,-1
 136 688 l 1,29,-1
 65 688 l 1,30,-1
 65 732 l 1,31,-1
 202 732 l 1,32,-1
 149 638 l 1,33,34
 187 627 187 627 194.5 610.5 c 128,-1,35
 202 594 202 594 202 528.5 c 128,-1,36
 202 463 202 463 189.5 440 c 128,-1,37
 177 417 177 417 130 417 c 0,38,39
 124 417 124 417 65 425 c 1,40,-1
 65 466 l 1,21,22
EndSplineSet
EndChar

StartChar: questiondown
Encoding: 191 191 128
Width: 339
GlyphClass: 2
Flags: W
LayerCount: 2
Fore
SplineSet
279 496 m 128,-1,1
 279 477 279 477 265.5 464 c 128,-1,2
 252 451 252 451 233 451 c 128,-1,3
 214 451 214 451 200.5 464 c 128,-1,4
 187 477 187 477 187 496 c 128,-1,5
 187 515 187 515 200.5 528.5 c 128,-1,6
 214 542 214 542 233 542 c 128,-1,7
 252 542 252 542 265.5 528.5 c 128,-1,0
 279 515 279 515 279 496 c 128,-1,1
38.5 -69.5 m 128,-1,9
 38 -56 38 -56 38 -21 c 128,-1,10
 38 14 38 14 55.5 55 c 128,-1,11
 73 96 73 96 97.5 129 c 128,-1,12
 122 162 122 162 146 192 c 0,13,14
 206 267 206 267 206 313 c 2,15,-1
 206 344 l 1,16,-1
 264 344 l 1,17,-1
 264 313 l 2,18,19
 264 242 264 242 206 165 c 0,20,21
 182 133 182 133 158 102 c 0,22,23
 100 27 100 27 100 -28.5 c 128,-1,24
 100 -84 100 -84 120 -108.5 c 128,-1,25
 140 -133 140 -133 212 -133 c 2,26,-1
 252 -133 l 2,27,28
 289 -133 289 -133 295.5 -139 c 128,-1,29
 302 -145 302 -145 302 -180 c 1,30,-1
 206 -190 l 1,31,32
 101 -190 101 -190 70 -158 c 0,33,34
 58 -145 58 -145 51.5 -135 c 128,-1,35
 45 -125 45 -125 42 -104 c 128,-1,8
 39 -83 39 -83 38.5 -69.5 c 128,-1,9
EndSplineSet
EndChar

StartChar: Aacute
Encoding: 193 193 130
Width: 435
GlyphClass: 2
Flags: W
LayerCount: 2
Fore
SplineSet
405 0 m 2,0,1
 360 0 360 0 351.5 6 c 128,-1,2
 343 12 343 12 335 46 c 2,3,-1
 291 245 l 1,4,-1
 139 245 l 1,5,-1
 85 0 l 1,6,7
 69 0 69 0 57 0 c 128,-1,8
 45 0 45 0 37 2 c 128,-1,9
 29 4 29 4 27 7 c 128,-1,10
 25 10 25 10 25 17 c 128,-1,11
 25 24 25 24 183 720 c 1,12,-1
 247 720 l 1,13,-1
 410 0 l 1,14,-1
 405 0 l 2,0,1
284 300 m 1,15,-1
 275 325 l 1,16,-1
 225 592 l 1,17,-1
 206 592 l 1,18,-1
 157 325 l 1,19,-1
 148 300 l 1,20,-1
 284 300 l 1,15,-1
263 894 m 1,21,22
 296 927 296 927 304 927 c 0,23,24
 314 927 314 927 345 896 c 1,25,-1
 230 782 l 1,26,-1
 195 818 l 1,27,-1
 263 894 l 1,21,22
EndSplineSet
EndChar

StartChar: Atilde
Encoding: 195 195 132
Width: 435
GlyphClass: 2
Flags: W
LayerCount: 2
Fore
SplineSet
405 0 m 2,0,1
 360 0 360 0 351.5 6 c 128,-1,2
 343 12 343 12 335 46 c 2,3,-1
 291 245 l 1,4,-1
 139 245 l 1,5,-1
 85 0 l 1,6,7
 69 0 69 0 57 0 c 128,-1,8
 45 0 45 0 37 2 c 128,-1,9
 29 4 29 4 27 7 c 128,-1,10
 25 10 25 10 25 17 c 128,-1,11
 25 24 25 24 183 720 c 1,12,-1
 247 720 l 1,13,-1
 410 0 l 1,14,-1
 405 0 l 2,0,1
284 300 m 1,15,-1
 275 325 l 1,16,-1
 225 592 l 1,17,-1
 206 592 l 1,18,-1
 157 325 l 1,19,-1
 148 300 l 1,20,-1
 284 300 l 1,15,-1
172 847 m 1,21,-1
 292 843 l 2,22,23
 316 843 316 843 335 847 c 1,24,-1
 348 845 l 1,25,-1
 348 824 l 2,26,27
 348 802 348 802 340.5 798 c 128,-1,28
 333 794 333 794 289 794 c 1,29,-1
 170 798 l 2,30,31
 145 798 145 798 126 794 c 1,32,-1
 113 796 l 1,33,-1
 113 817 l 2,34,35
 113 840 113 840 120.5 843.5 c 128,-1,36
 128 847 128 847 172 847 c 1,21,-1
EndSplineSet
EndChar

StartChar: Adieresis
Encoding: 196 196 133
Width: 435
GlyphClass: 2
Flags: W
LayerCount: 2
Fore
SplineSet
405 0 m 2,0,1
 360 0 360 0 351.5 6 c 128,-1,2
 343 12 343 12 335 46 c 2,3,-1
 291 245 l 1,4,-1
 139 245 l 1,5,-1
 85 0 l 1,6,7
 69 0 69 0 57 0 c 128,-1,8
 45 0 45 0 37 2 c 128,-1,9
 29 4 29 4 27 7 c 128,-1,10
 25 10 25 10 25 17 c 128,-1,11
 25 24 25 24 183 720 c 1,12,-1
 247 720 l 1,13,-1
 410 0 l 1,14,-1
 405 0 l 2,0,1
284 300 m 1,15,-1
 275 325 l 1,16,-1
 225 592 l 1,17,-1
 206 592 l 1,18,-1
 157 325 l 1,19,-1
 148 300 l 1,20,-1
 284 300 l 1,15,-1
143 823 m 128,-1,22
 124 823 124 823 110.5 836.5 c 128,-1,23
 97 850 97 850 97 869 c 128,-1,24
 97 888 97 888 110.5 901 c 128,-1,25
 124 914 124 914 143 914 c 128,-1,26
 162 914 162 914 175.5 901 c 128,-1,27
 189 888 189 888 189 869 c 128,-1,28
 189 850 189 850 175.5 836.5 c 128,-1,21
 162 823 162 823 143 823 c 128,-1,22
286 823 m 128,-1,30
 267 823 267 823 253.5 836.5 c 128,-1,31
 240 850 240 850 240 869 c 128,-1,32
 240 888 240 888 253.5 901 c 128,-1,33
 267 914 267 914 286 914 c 128,-1,34
 305 914 305 914 318.5 901 c 128,-1,35
 332 888 332 888 332 869 c 128,-1,36
 332 850 332 850 318.5 836.5 c 128,-1,29
 305 823 305 823 286 823 c 128,-1,30
EndSplineSet
EndChar

StartChar: Aring
Encoding: 197 197 134
Width: 435
GlyphClass: 2
Flags: W
LayerCount: 2
Fore
SplineSet
405 0 m 2,0,1
 360 0 360 0 351.5 6 c 128,-1,2
 343 12 343 12 335 46 c 2,3,-1
 291 245 l 1,4,-1
 139 245 l 1,5,-1
 85 0 l 1,6,7
 69 0 69 0 57 0 c 128,-1,8
 45 0 45 0 37 2 c 128,-1,9
 29 4 29 4 27 7 c 128,-1,10
 25 10 25 10 25 17 c 128,-1,11
 25 24 25 24 183 720 c 1,12,-1
 247 720 l 1,13,-1
 410 0 l 1,14,-1
 405 0 l 2,0,1
284 300 m 1,15,-1
 275 325 l 1,16,-1
 225 592 l 1,17,-1
 206 592 l 1,18,-1
 157 325 l 1,19,-1
 148 300 l 1,20,-1
 284 300 l 1,15,-1
297 833 m 128,-1,22
 297 799 297 799 272.5 775 c 128,-1,23
 248 751 248 751 214 751 c 128,-1,24
 180 751 180 751 155.5 775 c 128,-1,25
 131 799 131 799 131 833 c 128,-1,26
 131 867 131 867 155.5 890.5 c 128,-1,27
 180 914 180 914 214 914 c 128,-1,28
 248 914 248 914 272.5 890.5 c 128,-1,21
 297 867 297 867 297 833 c 128,-1,22
243 804 m 128,-1,30
 255 816 255 816 255 832.5 c 128,-1,31
 255 849 255 849 243 861 c 128,-1,32
 231 873 231 873 214 873 c 128,-1,33
 197 873 197 873 185 861.5 c 128,-1,34
 173 850 173 850 173 833 c 128,-1,35
 173 816 173 816 185 804 c 128,-1,36
 197 792 197 792 214 792 c 128,-1,29
 231 792 231 792 243 804 c 128,-1,30
EndSplineSet
EndChar

StartChar: AE
Encoding: 198 198 135
Width: 629
GlyphClass: 2
Flags: W
LayerCount: 2
Fore
SplineSet
590 0 m 1,0,-1
 307 0 l 1,1,-1
 307 220 l 1,2,-1
 311 245 l 1,3,-1
 163 245 l 1,4,-1
 109 0 l 1,5,6
 93 0 93 0 81 0 c 128,-1,7
 69 0 69 0 61 2 c 128,-1,8
 53 4 53 4 51 7 c 128,-1,9
 49 10 49 10 49 17 c 128,-1,10
 49 24 49 24 54 46 c 2,11,-1
 197 720 l 1,12,-1
 580 720 l 1,13,-1
 580 667 l 1,14,-1
 369 667 l 1,15,-1
 373 642 l 1,16,-1
 373 443 l 1,17,-1
 369 418 l 1,18,-1
 566 418 l 1,19,-1
 566 361 l 1,20,-1
 369 361 l 1,21,-1
 373 336 l 1,22,-1
 373 82 l 1,23,-1
 369 57 l 1,24,-1
 590 57 l 1,25,-1
 590 0 l 1,0,-1
307 667 m 1,26,-1
 240 667 l 1,27,-1
 181 325 l 1,28,-1
 172 300 l 1,29,-1
 311 300 l 1,30,-1
 307 325 l 1,31,-1
 307 667 l 1,26,-1
EndSplineSet
EndChar

StartChar: Ccedilla
Encoding: 199 199 136
Width: 377
GlyphClass: 2
Flags: W
LayerCount: 2
Fore
SplineSet
337 10 m 1,0,-1
 259 -6 l 1,1,-1
 259 -108 l 2,2,3
 259 -138 259 -138 251.5 -146 c 128,-1,4
 244 -154 244 -154 214 -154 c 2,5,-1
 179 -154 l 2,6,7
 139 -154 139 -154 132.5 -148 c 128,-1,8
 126 -142 126 -142 126 -108 c 1,9,-1
 213 -108 l 1,10,-1
 213 -6 l 1,11,12
 170 -2 170 -2 134 24 c 0,13,14
 116 37 116 37 90.5 89.5 c 128,-1,15
 65 142 65 142 65 302 c 2,16,-1
 65 427 l 2,17,18
 65 503 65 503 68.5 529 c 128,-1,19
 72 555 72 555 76 583.5 c 128,-1,20
 80 612 80 612 86.5 627 c 128,-1,21
 93 642 93 642 102 662 c 128,-1,22
 111 682 111 682 123.5 692.5 c 128,-1,23
 136 703 136 703 152 714 c 1,24,25
 182 732 182 732 236 732 c 1,26,-1
 336 712 l 1,27,28
 336 683 336 683 325 676 c 128,-1,29
 314 669 314 669 302.5 669 c 128,-1,30
 291 669 291 669 286 669 c 2,31,-1
 236 675 l 1,32,33
 194 675 194 675 174 650 c 1,34,35
 162 637 162 637 154 624 c 128,-1,36
 146 611 146 611 141.5 585 c 128,-1,37
 137 559 137 559 134 540.5 c 128,-1,38
 131 522 131 522 129.5 486.5 c 128,-1,39
 128 451 128 451 128 430 c 2,40,-1
 128 303 l 2,41,42
 128 228 128 228 132.5 201 c 128,-1,43
 137 174 137 174 141.5 148 c 128,-1,44
 146 122 146 122 154 109 c 128,-1,45
 162 96 162 96 174 82 c 0,46,47
 194 57 194 57 236 57 c 0,48,49
 259 57 259 57 291 61.5 c 128,-1,50
 323 66 323 66 337 67 c 1,51,-1
 337 10 l 1,0,-1
EndSplineSet
EndChar

StartChar: Egrave
Encoding: 200 200 137
Width: 385
GlyphClass: 2
Flags: W
LayerCount: 2
Fore
SplineSet
348 0 m 1,0,-1
 75 0 l 1,1,-1
 75 720 l 1,2,-1
 338 720 l 1,3,-1
 338 667 l 1,4,-1
 137 667 l 1,5,-1
 141 642 l 1,6,-1
 141 443 l 1,7,-1
 137 418 l 1,8,-1
 324 418 l 1,9,-1
 324 361 l 1,10,-1
 137 361 l 1,11,-1
 141 336 l 1,12,-1
 141 82 l 1,13,-1
 137 57 l 1,14,-1
 348 57 l 1,15,-1
 348 0 l 1,0,-1
128 896 m 1,16,17
 159 927 159 927 168 927 c 128,-1,18
 177 927 177 927 210 894 c 1,19,-1
 278 818 l 1,20,-1
 243 782 l 1,21,-1
 128 896 l 1,16,17
EndSplineSet
EndChar

StartChar: Eacute
Encoding: 201 201 138
Width: 385
GlyphClass: 2
Flags: W
LayerCount: 2
Fore
SplineSet
348 0 m 1,0,-1
 75 0 l 1,1,-1
 75 720 l 1,2,-1
 338 720 l 1,3,-1
 338 667 l 1,4,-1
 137 667 l 1,5,-1
 141 642 l 1,6,-1
 141 443 l 1,7,-1
 137 418 l 1,8,-1
 324 418 l 1,9,-1
 324 361 l 1,10,-1
 137 361 l 1,11,-1
 141 336 l 1,12,-1
 141 82 l 1,13,-1
 137 57 l 1,14,-1
 348 57 l 1,15,-1
 348 0 l 1,0,-1
254 894 m 1,16,17
 287 927 287 927 295 927 c 0,18,19
 305 927 305 927 336 896 c 1,20,-1
 221 782 l 1,21,-1
 186 818 l 1,22,-1
 254 894 l 1,16,17
EndSplineSet
EndChar

StartChar: Ecircumflex
Encoding: 202 202 139
Width: 385
GlyphClass: 2
Flags: W
LayerCount: 2
Fore
SplineSet
348 0 m 1,0,-1
 75 0 l 1,1,-1
 75 720 l 1,2,-1
 338 720 l 1,3,-1
 338 667 l 1,4,-1
 137 667 l 1,5,-1
 141 642 l 1,6,-1
 141 443 l 1,7,-1
 137 418 l 1,8,-1
 324 418 l 1,9,-1
 324 361 l 1,10,-1
 137 361 l 1,11,-1
 141 336 l 1,12,-1
 141 82 l 1,13,-1
 137 57 l 1,14,-1
 348 57 l 1,15,-1
 348 0 l 1,0,-1
322 812 m 1,16,-1
 204 878 l 1,17,-1
 87 812 l 1,18,-1
 87 867 l 1,19,-1
 191 927 l 1,20,-1
 217 927 l 1,21,-1
 322 866 l 1,22,-1
 322 812 l 1,16,-1
EndSplineSet
EndChar

StartChar: Edieresis
Encoding: 203 203 140
Width: 385
GlyphClass: 2
Flags: W
LayerCount: 2
Fore
SplineSet
348 0 m 1,0,-1
 75 0 l 1,1,-1
 75 720 l 1,2,-1
 338 720 l 1,3,-1
 338 667 l 1,4,-1
 137 667 l 1,5,-1
 141 642 l 1,6,-1
 141 443 l 1,7,-1
 137 418 l 1,8,-1
 324 418 l 1,9,-1
 324 361 l 1,10,-1
 137 361 l 1,11,-1
 141 336 l 1,12,-1
 141 82 l 1,13,-1
 137 57 l 1,14,-1
 348 57 l 1,15,-1
 348 0 l 1,0,-1
144 824 m 128,-1,17
 125 824 125 824 111.5 837.5 c 128,-1,18
 98 851 98 851 98 870 c 128,-1,19
 98 889 98 889 111.5 902 c 128,-1,20
 125 915 125 915 144 915 c 128,-1,21
 163 915 163 915 176.5 902 c 128,-1,22
 190 889 190 889 190 870 c 128,-1,23
 190 851 190 851 176.5 837.5 c 128,-1,16
 163 824 163 824 144 824 c 128,-1,17
287 824 m 128,-1,25
 268 824 268 824 254.5 837.5 c 128,-1,26
 241 851 241 851 241 870 c 128,-1,27
 241 889 241 889 254.5 902 c 128,-1,28
 268 915 268 915 287 915 c 128,-1,29
 306 915 306 915 319.5 902 c 128,-1,30
 333 889 333 889 333 870 c 128,-1,31
 333 851 333 851 319.5 837.5 c 128,-1,24
 306 824 306 824 287 824 c 128,-1,25
EndSplineSet
EndChar

StartChar: Iacute
Encoding: 205 205 142
Width: 213
GlyphClass: 2
Flags: W
LayerCount: 2
Fore
SplineSet
138 0 m 1,0,-1
 133 0 l 2,1,2
 90 0 90 0 82.5 6 c 128,-1,3
 75 12 75 12 75 46 c 2,4,-1
 75 720 l 1,5,-1
 80 720 l 2,6,7
 123 720 123 720 130.5 714 c 128,-1,8
 138 708 138 708 138 674 c 2,9,-1
 138 0 l 1,0,-1
155 894 m 1,10,11
 188 927 188 927 196 927 c 0,12,13
 206 927 206 927 237 896 c 1,14,-1
 122 782 l 1,15,-1
 87 818 l 1,16,-1
 155 894 l 1,10,11
EndSplineSet
EndChar

StartChar: Icircumflex
Encoding: 206 206 143
Width: 213
GlyphClass: 2
Flags: W
LayerCount: 2
Fore
SplineSet
138 0 m 1,0,-1
 133 0 l 2,1,2
 90 0 90 0 82.5 6 c 128,-1,3
 75 12 75 12 75 46 c 2,4,-1
 75 720 l 1,5,-1
 80 720 l 2,6,7
 123 720 123 720 130.5 714 c 128,-1,8
 138 708 138 708 138 674 c 2,9,-1
 138 0 l 1,0,-1
226 812 m 1,10,-1
 108 878 l 1,11,-1
 -9 812 l 1,12,-1
 -9 867 l 1,13,-1
 95 927 l 1,14,-1
 121 927 l 1,15,-1
 226 866 l 1,16,-1
 226 812 l 1,10,-1
EndSplineSet
EndChar

StartChar: Idieresis
Encoding: 207 207 144
Width: 213
GlyphClass: 2
Flags: W
LayerCount: 2
Fore
SplineSet
138 0 m 1,0,-1
 133 0 l 2,1,2
 90 0 90 0 82.5 6 c 128,-1,3
 75 12 75 12 75 46 c 2,4,-1
 75 720 l 1,5,-1
 80 720 l 2,6,7
 123 720 123 720 130.5 714 c 128,-1,8
 138 708 138 708 138 674 c 2,9,-1
 138 0 l 1,0,-1
36 824 m 128,-1,11
 17 824 17 824 3.5 837.5 c 128,-1,12
 -10 851 -10 851 -10 870 c 128,-1,13
 -10 889 -10 889 3.5 902 c 128,-1,14
 17 915 17 915 36 915 c 128,-1,15
 55 915 55 915 68.5 902 c 128,-1,16
 82 889 82 889 82 870 c 128,-1,17
 82 851 82 851 68.5 837.5 c 128,-1,10
 55 824 55 824 36 824 c 128,-1,11
179 824 m 128,-1,19
 160 824 160 824 146.5 837.5 c 128,-1,20
 133 851 133 851 133 870 c 128,-1,21
 133 889 133 889 146.5 902 c 128,-1,22
 160 915 160 915 179 915 c 128,-1,23
 198 915 198 915 211.5 902 c 128,-1,24
 225 889 225 889 225 870 c 128,-1,25
 225 851 225 851 211.5 837.5 c 128,-1,18
 198 824 198 824 179 824 c 128,-1,19
EndSplineSet
EndChar

StartChar: Eth
Encoding: 208 208 145
Width: 463
GlyphClass: 2
Flags: W
LayerCount: 2
Fore
SplineSet
412 427 m 2,0,-1
 412 298 l 2,1,2
 412 217 412 217 407.5 187 c 128,-1,3
 403 157 403 157 397 126.5 c 128,-1,4
 391 96 391 96 382.5 80 c 128,-1,5
 374 64 374 64 361 44.5 c 128,-1,6
 348 25 348 25 332 16 c 0,7,8
 292 -7 292 -7 241 -7 c 1,9,-1
 60 0 l 1,10,-1
 60 722 l 1,11,-1
 241 732 l 1,12,13
 295 732 295 732 318 717.5 c 128,-1,14
 341 703 341 703 353.5 692.5 c 128,-1,15
 366 682 366 682 375 662 c 128,-1,16
 384 642 384 642 390.5 627 c 128,-1,17
 397 612 397 612 401 583.5 c 128,-1,18
 405 555 405 555 408 536 c 0,19,20
 412 503 412 503 412 427 c 2,0,-1
241 50 m 2,21,22
 282 50 282 50 304 76 c 0,23,24
 315 90 315 90 323 104 c 128,-1,25
 331 118 331 118 335.5 144.5 c 128,-1,26
 340 171 340 171 343 189.5 c 128,-1,27
 346 208 346 208 347.5 244.5 c 128,-1,28
 349 281 349 281 349 302 c 2,29,-1
 349 430 l 2,30,31
 349 504 349 504 344.5 531.5 c 128,-1,32
 340 559 340 559 335.5 585 c 128,-1,33
 331 611 331 611 323 624 c 128,-1,34
 315 637 315 637 304 650 c 0,35,36
 283 675 283 675 241 675 c 2,37,-1
 114 675 l 1,38,-1
 123 636 l 1,39,-1
 123 454 l 1,40,-1
 118 420 l 1,41,-1
 246 420 l 1,42,-1
 246 369 l 1,43,-1
 118 369 l 1,44,-1
 123 331 l 1,45,-1
 123 78 l 1,46,-1
 118 50 l 1,47,-1
 241 50 l 2,21,22
EndSplineSet
EndChar

StartChar: Ntilde
Encoding: 209 209 146
Width: 455
GlyphClass: 2
Flags: W
LayerCount: 2
Fore
SplineSet
384 0 m 1,0,-1
 380 0 l 2,1,2
 337 0 337 0 328 5.5 c 128,-1,3
 319 11 319 11 306 46 c 1,4,-1
 144 521 l 1,5,-1
 139 548 l 1,6,-1
 132 548 l 1,7,-1
 132 46 l 2,8,9
 132 12 132 12 125 6 c 128,-1,10
 118 0 118 0 75 0 c 2,11,-1
 71 0 l 1,12,-1
 71 720 l 1,13,-1
 76 720 l 2,14,15
 118 720 118 720 127 714.5 c 128,-1,16
 136 709 136 709 149 674 c 1,17,-1
 311 188 l 1,18,-1
 316 161 l 1,19,-1
 323 161 l 1,20,-1
 323 720 l 1,21,-1
 327 720 l 2,22,23
 370 720 370 720 377 714 c 128,-1,24
 384 708 384 708 384 674 c 2,25,-1
 384 0 l 1,0,-1
172 847 m 1,26,-1
 292 843 l 2,27,28
 316 843 316 843 335 847 c 1,29,-1
 348 845 l 1,30,-1
 348 824 l 2,31,32
 348 802 348 802 340.5 798 c 128,-1,33
 333 794 333 794 289 794 c 1,34,-1
 170 798 l 2,35,36
 145 798 145 798 126 794 c 1,37,-1
 113 796 l 1,38,-1
 113 817 l 2,39,40
 113 840 113 840 120.5 843.5 c 128,-1,41
 128 847 128 847 172 847 c 1,26,-1
EndSplineSet
EndChar

StartChar: Ograve
Encoding: 210 210 147
Width: 481
GlyphClass: 2
Flags: W
LayerCount: 2
Fore
SplineSet
241 -7 m 128,-1,1
 137 -7 137 -7 101 78.5 c 128,-1,2
 65 164 65 164 65 365.5 c 128,-1,3
 65 567 65 567 101 649.5 c 128,-1,4
 137 732 137 732 241 732 c 128,-1,5
 345 732 345 732 380.5 649.5 c 128,-1,6
 416 567 416 567 416 365.5 c 128,-1,7
 416 164 416 164 380.5 78.5 c 128,-1,0
 345 -7 345 -7 241 -7 c 128,-1,1
241 50 m 0,8,9
 304 50 304 50 326.5 126.5 c 128,-1,10
 349 203 349 203 349 365 c 0,11,12
 349 521 349 521 328 594 c 0,13,14
 304 675 304 675 241 675 c 128,-1,15
 178 675 178 675 155 600.5 c 128,-1,16
 132 526 132 526 132 392.5 c 128,-1,17
 132 259 132 259 140 194 c 0,18,19
 158 50 158 50 241 50 c 0,8,9
146 896 m 1,20,21
 177 927 177 927 186 927 c 128,-1,22
 195 927 195 927 228 894 c 1,23,-1
 296 818 l 1,24,-1
 261 782 l 1,25,-1
 146 896 l 1,20,21
EndSplineSet
EndChar

StartChar: Oacute
Encoding: 211 211 148
Width: 481
GlyphClass: 2
Flags: W
LayerCount: 2
Fore
SplineSet
241 -7 m 128,-1,1
 137 -7 137 -7 101 78.5 c 128,-1,2
 65 164 65 164 65 365.5 c 128,-1,3
 65 567 65 567 101 649.5 c 128,-1,4
 137 732 137 732 241 732 c 128,-1,5
 345 732 345 732 380.5 649.5 c 128,-1,6
 416 567 416 567 416 365.5 c 128,-1,7
 416 164 416 164 380.5 78.5 c 128,-1,0
 345 -7 345 -7 241 -7 c 128,-1,1
241 50 m 0,8,9
 304 50 304 50 326.5 126.5 c 128,-1,10
 349 203 349 203 349 365 c 0,11,12
 349 521 349 521 328 594 c 0,13,14
 304 675 304 675 241 675 c 128,-1,15
 178 675 178 675 155 600.5 c 128,-1,16
 132 526 132 526 132 392.5 c 128,-1,17
 132 259 132 259 140 194 c 0,18,19
 158 50 158 50 241 50 c 0,8,9
261 894 m 1,20,21
 294 927 294 927 302 927 c 0,22,23
 312 927 312 927 343 896 c 1,24,-1
 228 782 l 1,25,-1
 193 818 l 1,26,-1
 261 894 l 1,20,21
EndSplineSet
EndChar

StartChar: Ocircumflex
Encoding: 212 212 149
Width: 481
GlyphClass: 2
Flags: W
LayerCount: 2
Fore
SplineSet
241 -7 m 128,-1,1
 137 -7 137 -7 101 78.5 c 128,-1,2
 65 164 65 164 65 365.5 c 128,-1,3
 65 567 65 567 101 649.5 c 128,-1,4
 137 732 137 732 241 732 c 128,-1,5
 345 732 345 732 380.5 649.5 c 128,-1,6
 416 567 416 567 416 365.5 c 128,-1,7
 416 164 416 164 380.5 78.5 c 128,-1,0
 345 -7 345 -7 241 -7 c 128,-1,1
241 50 m 0,8,9
 304 50 304 50 326.5 126.5 c 128,-1,10
 349 203 349 203 349 365 c 0,11,12
 349 521 349 521 328 594 c 0,13,14
 304 675 304 675 241 675 c 128,-1,15
 178 675 178 675 155 600.5 c 128,-1,16
 132 526 132 526 132 392.5 c 128,-1,17
 132 259 132 259 140 194 c 0,18,19
 158 50 158 50 241 50 c 0,8,9
373 812 m 1,20,-1
 255 878 l 1,21,-1
 138 812 l 1,22,-1
 138 867 l 1,23,-1
 242 927 l 1,24,-1
 268 927 l 1,25,-1
 373 866 l 1,26,-1
 373 812 l 1,20,-1
EndSplineSet
EndChar

StartChar: Odieresis
Encoding: 214 214 151
Width: 481
GlyphClass: 2
Flags: W
LayerCount: 2
Fore
SplineSet
241 -7 m 128,-1,1
 137 -7 137 -7 101 78.5 c 128,-1,2
 65 164 65 164 65 365.5 c 128,-1,3
 65 567 65 567 101 649.5 c 128,-1,4
 137 732 137 732 241 732 c 128,-1,5
 345 732 345 732 380.5 649.5 c 128,-1,6
 416 567 416 567 416 365.5 c 128,-1,7
 416 164 416 164 380.5 78.5 c 128,-1,0
 345 -7 345 -7 241 -7 c 128,-1,1
241 50 m 0,8,9
 304 50 304 50 326.5 126.5 c 128,-1,10
 349 203 349 203 349 365 c 0,11,12
 349 521 349 521 328 594 c 0,13,14
 304 675 304 675 241 675 c 128,-1,15
 178 675 178 675 155 600.5 c 128,-1,16
 132 526 132 526 132 392.5 c 128,-1,17
 132 259 132 259 140 194 c 0,18,19
 158 50 158 50 241 50 c 0,8,9
171 824 m 128,-1,21
 152 824 152 824 138.5 837.5 c 128,-1,22
 125 851 125 851 125 870 c 128,-1,23
 125 889 125 889 138.5 902 c 128,-1,24
 152 915 152 915 171 915 c 128,-1,25
 190 915 190 915 203.5 902 c 128,-1,26
 217 889 217 889 217 870 c 128,-1,27
 217 851 217 851 203.5 837.5 c 128,-1,20
 190 824 190 824 171 824 c 128,-1,21
314 824 m 128,-1,29
 295 824 295 824 281.5 837.5 c 128,-1,30
 268 851 268 851 268 870 c 128,-1,31
 268 889 268 889 281.5 902 c 128,-1,32
 295 915 295 915 314 915 c 128,-1,33
 333 915 333 915 346.5 902 c 128,-1,34
 360 889 360 889 360 870 c 128,-1,35
 360 851 360 851 346.5 837.5 c 128,-1,28
 333 824 333 824 314 824 c 128,-1,29
EndSplineSet
EndChar

StartChar: multiply
Encoding: 215 215 152
Width: 271
GlyphClass: 2
Flags: W
LayerCount: 2
Fore
SplineSet
186 224 m 1,0,-1
 139 271 l 1,1,-1
 124 292 l 1,2,-1
 57 225 l 1,3,-1
 21 261 l 1,4,-1
 88 328 l 1,5,-1
 68 343 l 1,6,-1
 21 389 l 1,7,-1
 57 425 l 1,8,-1
 104 379 l 1,9,-1
 118 358 l 1,10,-1
 186 426 l 1,11,-1
 222 390 l 1,12,-1
 155 322 l 1,13,-1
 175 307 l 1,14,-1
 222 260 l 1,15,-1
 186 224 l 1,0,-1
EndSplineSet
EndChar

StartChar: Oslash
Encoding: 216 216 153
Width: 476
GlyphClass: 2
Flags: W
LayerCount: 2
Fore
SplineSet
117 59 m 1,0,1
 71 136 71 136 71 351.5 c 128,-1,2
 71 567 71 567 107 649.5 c 128,-1,3
 143 732 143 732 247 732 c 0,4,5
 274 732 274 732 296 726 c 1,6,-1
 327 802 l 1,7,-1
 395 802 l 1,8,-1
 353 697 l 1,9,10
 392 661 392 661 407 582.5 c 128,-1,11
 422 504 422 504 422 366 c 0,12,13
 422 164 422 164 386.5 78.5 c 128,-1,14
 351 -7 351 -7 247 -7 c 0,15,16
 199 -7 199 -7 166 11 c 1,17,-1
 141 -50 l 1,18,-1
 73 -50 l 1,19,-1
 117 59 l 1,0,1
247 50 m 128,-1,21
 311 50 311 50 335 127.5 c 128,-1,22
 359 205 359 205 359 364 c 128,-1,23
 359 523 359 523 334.5 599 c 128,-1,24
 310 675 310 675 247 675 c 128,-1,25
 184 675 184 675 159 599.5 c 128,-1,26
 134 524 134 524 134 365 c 128,-1,27
 134 206 134 206 158.5 128 c 128,-1,20
 183 50 183 50 247 50 c 128,-1,21
EndSplineSet
EndChar

StartChar: Ugrave
Encoding: 217 217 154
Width: 468
GlyphClass: 2
Flags: W
LayerCount: 2
Fore
SplineSet
333 297 m 2,0,-1
 333 720 l 1,1,-1
 340 720 l 2,2,3
 383 720 383 720 390.5 714 c 128,-1,4
 398 708 398 708 398 674 c 2,5,-1
 398 297 l 2,6,7
 398 220 398 220 396.5 184.5 c 128,-1,8
 395 149 395 149 387 103 c 128,-1,9
 379 57 379 57 362 39 c 0,10,11
 319 -7 319 -7 235 -7 c 128,-1,12
 151 -7 151 -7 123 26 c 0,13,14
 111 40 111 40 103 50.5 c 128,-1,15
 95 61 95 61 90 85 c 128,-1,16
 85 109 85 109 82 124.5 c 128,-1,17
 79 140 79 140 77.5 174 c 128,-1,18
 76 208 76 208 76 228 c 2,19,-1
 76 720 l 1,20,-1
 83 720 l 2,21,22
 126 720 126 720 133.5 714 c 128,-1,23
 141 708 141 708 141 674 c 2,24,-1
 141 297 l 2,25,26
 141 290 141 290 141 258.5 c 128,-1,27
 141 227 141 227 141.5 204.5 c 128,-1,28
 142 182 142 182 144.5 149.5 c 128,-1,29
 147 117 147 117 152.5 103.5 c 128,-1,30
 158 90 158 90 168 75 c 0,31,32
 186 50 186 50 235 50 c 0,33,34
 303 50 303 50 318 99.5 c 128,-1,35
 333 149 333 149 333 297 c 2,0,-1
149 896 m 1,36,37
 180 927 180 927 189 927 c 128,-1,38
 198 927 198 927 231 894 c 1,39,-1
 299 818 l 1,40,-1
 264 782 l 1,41,-1
 149 896 l 1,36,37
EndSplineSet
EndChar

StartChar: Uacute
Encoding: 218 218 155
Width: 468
GlyphClass: 2
Flags: W
LayerCount: 2
Fore
SplineSet
333 297 m 2,0,-1
 333 720 l 1,1,-1
 340 720 l 2,2,3
 383 720 383 720 390.5 714 c 128,-1,4
 398 708 398 708 398 674 c 2,5,-1
 398 297 l 2,6,7
 398 220 398 220 396.5 184.5 c 128,-1,8
 395 149 395 149 387 103 c 128,-1,9
 379 57 379 57 362 39 c 0,10,11
 319 -7 319 -7 235 -7 c 128,-1,12
 151 -7 151 -7 123 26 c 0,13,14
 111 40 111 40 103 50.5 c 128,-1,15
 95 61 95 61 90 85 c 128,-1,16
 85 109 85 109 82 124.5 c 128,-1,17
 79 140 79 140 77.5 174 c 128,-1,18
 76 208 76 208 76 228 c 2,19,-1
 76 720 l 1,20,-1
 83 720 l 2,21,22
 126 720 126 720 133.5 714 c 128,-1,23
 141 708 141 708 141 674 c 2,24,-1
 141 297 l 2,25,26
 141 290 141 290 141 258.5 c 128,-1,27
 141 227 141 227 141.5 204.5 c 128,-1,28
 142 182 142 182 144.5 149.5 c 128,-1,29
 147 117 147 117 152.5 103.5 c 128,-1,30
 158 90 158 90 168 75 c 0,31,32
 186 50 186 50 235 50 c 0,33,34
 303 50 303 50 318 99.5 c 128,-1,35
 333 149 333 149 333 297 c 2,0,-1
264 894 m 1,36,37
 297 927 297 927 305 927 c 0,38,39
 315 927 315 927 346 896 c 1,40,-1
 231 782 l 1,41,-1
 196 818 l 1,42,-1
 264 894 l 1,36,37
EndSplineSet
EndChar

StartChar: Udieresis
Encoding: 220 220 157
Width: 468
GlyphClass: 2
Flags: W
LayerCount: 2
Fore
SplineSet
333 297 m 2,0,-1
 333 720 l 1,1,-1
 340 720 l 2,2,3
 383 720 383 720 390.5 714 c 128,-1,4
 398 708 398 708 398 674 c 2,5,-1
 398 297 l 2,6,7
 398 220 398 220 396.5 184.5 c 128,-1,8
 395 149 395 149 387 103 c 128,-1,9
 379 57 379 57 362 39 c 0,10,11
 319 -7 319 -7 235 -7 c 128,-1,12
 151 -7 151 -7 123 26 c 0,13,14
 111 40 111 40 103 50.5 c 128,-1,15
 95 61 95 61 90 85 c 128,-1,16
 85 109 85 109 82 124.5 c 128,-1,17
 79 140 79 140 77.5 174 c 128,-1,18
 76 208 76 208 76 228 c 2,19,-1
 76 720 l 1,20,-1
 83 720 l 2,21,22
 126 720 126 720 133.5 714 c 128,-1,23
 141 708 141 708 141 674 c 2,24,-1
 141 297 l 2,25,26
 141 290 141 290 141 258.5 c 128,-1,27
 141 227 141 227 141.5 204.5 c 128,-1,28
 142 182 142 182 144.5 149.5 c 128,-1,29
 147 117 147 117 152.5 103.5 c 128,-1,30
 158 90 158 90 168 75 c 0,31,32
 186 50 186 50 235 50 c 0,33,34
 303 50 303 50 318 99.5 c 128,-1,35
 333 149 333 149 333 297 c 2,0,-1
170 824 m 128,-1,37
 151 824 151 824 137.5 837.5 c 128,-1,38
 124 851 124 851 124 870 c 128,-1,39
 124 889 124 889 137.5 902 c 128,-1,40
 151 915 151 915 170 915 c 128,-1,41
 189 915 189 915 202.5 902 c 128,-1,42
 216 889 216 889 216 870 c 128,-1,43
 216 851 216 851 202.5 837.5 c 128,-1,36
 189 824 189 824 170 824 c 128,-1,37
313 824 m 128,-1,45
 294 824 294 824 280.5 837.5 c 128,-1,46
 267 851 267 851 267 870 c 128,-1,47
 267 889 267 889 280.5 902 c 128,-1,48
 294 915 294 915 313 915 c 128,-1,49
 332 915 332 915 345.5 902 c 128,-1,50
 359 889 359 889 359 870 c 128,-1,51
 359 851 359 851 345.5 837.5 c 128,-1,44
 332 824 332 824 313 824 c 128,-1,45
EndSplineSet
EndChar

StartChar: Thorn
Encoding: 222 222 159
Width: 395
GlyphClass: 2
Flags: W
LayerCount: 2
Fore
SplineSet
118 -200 m 1,0,1
 74 -200 74 -200 67 -194 c 128,-1,2
 60 -188 60 -188 60 -154 c 2,3,-1
 60 690 l 2,4,5
 60 724 60 724 67 730 c 128,-1,6
 74 736 74 736 118 736 c 1,7,-1
 118 577 l 1,8,-1
 218 604 l 1,9,10
 289 604 289 604 314 572 c 0,11,12
 325 558 325 558 331.5 547.5 c 128,-1,13
 338 537 338 537 342.5 514 c 128,-1,14
 347 491 347 491 349.5 476 c 128,-1,15
 352 461 352 461 353.5 428.5 c 128,-1,16
 355 396 355 396 355 376 c 2,17,-1
 355 316 l 2,18,19
 355 147 355 147 344 104 c 0,20,21
 326 39 326 39 303 22 c 0,22,23
 266 -7 266 -7 214 -7 c 1,24,-1
 118 39 l 1,25,-1
 118 -200 l 1,0,1
296 296 m 2,26,-1
 296 369 l 2,27,28
 296 432 296 432 292.5 450 c 128,-1,29
 289 468 289 468 285.5 487.5 c 128,-1,30
 282 507 282 507 276 515.5 c 128,-1,31
 270 524 270 524 261 534 c 0,32,33
 246 551 246 551 213 551 c 1,34,-1
 115 526 l 1,35,-1
 119 501 l 1,36,-1
 119 116 l 1,37,-1
 114 91 l 1,38,-1
 212 46 l 1,39,40
 242 46 242 46 260 63 c 128,-1,41
 278 80 278 80 286 124 c 1,42,43
 296 187 296 187 296 296 c 2,26,-1
EndSplineSet
EndChar

StartChar: germandbls
Encoding: 223 223 160
Width: 524
GlyphClass: 2
Flags: W
LayerCount: 2
Fore
SplineSet
223 53 m 1,0,-1
 348 53 l 2,1,2
 383 53 383 53 400 70 c 0,3,4
 412 82 412 82 413 104.5 c 128,-1,5
 414 127 414 127 414 149 c 2,6,-1
 414 160 l 2,7,8
 414 195 414 195 346 246 c 0,9,10
 318 267 318 267 290 290 c 0,11,12
 222 348 222 348 222 403 c 0,13,14
 222 486 222 486 242 510 c 0,15,16
 267 540 267 540 313 540 c 0,17,18
 323 540 323 540 328 544 c 0,19,20
 339 552 339 552 339 641 c 0,21,22
 339 679 339 679 265 679 c 2,23,-1
 218 679 l 2,24,25
 146 679 146 679 134 666.5 c 128,-1,26
 122 654 122 654 122 577 c 2,27,-1
 121 58 l 2,28,29
 120 14 120 14 112.5 7 c 128,-1,30
 105 0 105 0 59 0 c 1,31,-1
 60 577 l 2,32,33
 60 621 60 621 60.5 638.5 c 128,-1,34
 61 656 61 656 66.5 679 c 128,-1,35
 72 702 72 702 79.5 708 c 128,-1,36
 87 714 87 714 107 722 c 128,-1,37
 127 730 127 730 151 730.5 c 128,-1,38
 175 731 175 731 218 731 c 2,39,-1
 271 731 l 2,40,41
 347 731 347 731 382 692 c 1,42,43
 395 676 395 676 395 654 c 0,44,45
 395 509 395 509 368 493 c 0,46,47
 356 486 356 486 327 486 c 128,-1,48
 298 486 298 486 290 470.5 c 128,-1,49
 282 455 282 455 282 424 c 2,50,-1
 282 407 l 2,51,52
 282 372 282 372 352 319 c 0,53,54
 382 297 382 297 411.5 273 c 128,-1,55
 441 249 441 249 461.5 217.5 c 128,-1,56
 482 186 482 186 482 153 c 128,-1,57
 482 120 482 120 481 103.5 c 128,-1,58
 480 87 480 87 473 62 c 128,-1,59
 466 37 466 37 452 24 c 0,60,61
 418 -7 418 -7 347 -7 c 1,62,-1
 223 0 l 1,63,-1
 223 53 l 1,0,-1
EndSplineSet
EndChar

StartChar: ae
Encoding: 230 230 167
Width: 588
GlyphClass: 2
Flags: W
LayerCount: 2
Fore
SplineSet
312 375 m 2,0,-1
 312 355 l 1,1,-1
 308 330 l 1,2,-1
 442 330 l 1,3,-1
 437 375 l 1,4,5
 436 441 436 441 422 466 c 128,-1,6
 408 491 408 491 367.5 491 c 128,-1,7
 327 491 327 491 319.5 466.5 c 128,-1,8
 312 442 312 442 312 375 c 2,0,-1
246 415 m 1,9,-1
 247 453 l 2,10,11
 247 474 247 474 239 480 c 0,12,13
 222 491 222 491 193 491 c 1,14,15
 129 482 129 482 126 482 c 0,16,17
 91 482 91 482 91 527 c 1,18,-1
 193 544 l 1,19,20
 263 544 263 544 288 513 c 1,21,22
 320 544 320 544 356 544 c 128,-1,23
 392 544 392 544 413 539 c 128,-1,24
 434 534 434 534 448 528 c 128,-1,25
 462 522 462 522 471.5 506 c 128,-1,26
 481 490 481 490 486 478 c 128,-1,27
 491 466 491 466 493 438 c 0,28,29
 496 396 496 396 496 335 c 1,30,-1
 501 281 l 1,31,-1
 302 276 l 1,32,-1
 306 251 l 2,33,34
 306 247 306 247 306 212 c 128,-1,35
 306 177 306 177 307 151 c 128,-1,36
 308 125 308 125 313 95 c 128,-1,37
 318 65 318 65 330.5 55.5 c 128,-1,38
 343 46 343 46 380.5 46 c 128,-1,39
 418 46 418 46 503 59 c 1,40,-1
 503 10 l 1,41,42
 416 -7 416 -7 367 -7 c 128,-1,43
 318 -7 318 -7 301 6.5 c 128,-1,44
 284 20 284 20 268 57 c 1,45,-1
 145 -7 l 1,46,47
 85 -7 85 -7 73 29 c 128,-1,48
 61 65 61 65 61 202 c 0,49,50
 61 217 61 217 61 225 c 0,51,52
 61 332 61 332 246 332 c 2,53,-1
 250 332 l 1,54,-1
 246 357 l 1,55,-1
 246 415 l 1,9,-1
119 233 m 2,56,-1
 118 124 l 2,57,58
 118 80 118 80 121.5 63 c 128,-1,59
 125 46 125 46 144 46 c 1,60,-1
 246 93 l 1,61,-1
 246 251 l 1,62,-1
 250 276 l 1,63,-1
 246 276 l 2,64,65
 186 276 186 276 152.5 267.5 c 128,-1,66
 119 259 119 259 119 233 c 2,56,-1
EndSplineSet
EndChar

StartChar: ccedilla
Encoding: 231 231 168
Width: 335
GlyphClass: 2
Flags: W
LayerCount: 2
Fore
SplineSet
156 -154 m 2,0,-1
 121 -154 l 2,1,2
 81 -154 81 -154 74.5 -148 c 128,-1,3
 68 -142 68 -142 68 -108 c 1,4,-1
 155 -108 l 1,5,-1
 155 -5 l 1,6,7
 112 -1 112 -1 97.5 13.5 c 128,-1,8
 83 28 83 28 75.5 37 c 128,-1,9
 68 46 68 46 63 68 c 128,-1,10
 58 90 58 90 55.5 104.5 c 128,-1,11
 53 119 53 119 51.5 152 c 128,-1,12
 50 185 50 185 50 206 c 2,13,14
 50 206 50 206 50 332 c 0,15,16
 50 405 50 405 53.5 424 c 128,-1,17
 57 443 57 443 61.5 465 c 128,-1,18
 66 487 66 487 72.5 495.5 c 128,-1,19
 79 504 79 504 88.5 516 c 128,-1,20
 98 528 98 528 112 532 c 0,21,22
 146 544 146 544 181 544 c 1,23,-1
 264 531 l 1,24,25
 264 487 264 487 228 487 c 0,26,27
 221 487 221 487 214 488 c 2,28,-1
 181 491 l 1,29,30
 130 491 130 491 119 448.5 c 128,-1,31
 108 406 108 406 108 302 c 128,-1,32
 108 198 108 198 109 167 c 128,-1,33
 110 136 110 136 117 101.5 c 128,-1,34
 124 67 124 67 139 56.5 c 128,-1,35
 154 46 154 46 181 46 c 1,36,-1
 268 56 l 1,37,-1
 268 10 l 1,38,-1
 201 -3 l 1,39,-1
 201 -108 l 2,40,41
 201 -138 201 -138 193.5 -146 c 128,-1,42
 186 -154 186 -154 156 -154 c 2,0,-1
EndSplineSet
EndChar

StartChar: egrave
Encoding: 232 232 169
Width: 353
GlyphClass: 2
Flags: W
LayerCount: 2
Fore
SplineSet
306 10 m 1,0,1
 229 -7 229 -7 198.5 -7 c 128,-1,2
 168 -7 168 -7 151.5 -5.5 c 128,-1,3
 135 -4 135 -4 121.5 2.5 c 128,-1,4
 108 9 108 9 98 13.5 c 128,-1,5
 88 18 88 18 80 31.5 c 128,-1,6
 72 45 72 45 67 53.5 c 128,-1,7
 62 62 62 62 59 83 c 128,-1,8
 56 104 56 104 54 117 c 128,-1,9
 52 130 52 130 51 159.5 c 128,-1,10
 50 189 50 189 50 207 c 2,11,-1
 50 320 l 2,12,13
 50 386 50 386 53 405.5 c 128,-1,14
 56 425 56 425 59 447 c 128,-1,15
 62 469 62 469 67 478.5 c 128,-1,16
 72 488 72 488 80 502 c 128,-1,17
 88 516 88 516 98 521.5 c 128,-1,18
 108 527 108 527 121.5 533.5 c 128,-1,19
 135 540 135 540 151.5 542 c 128,-1,20
 168 544 168 544 189 544 c 128,-1,21
 210 544 210 544 227 541 c 128,-1,22
 244 538 244 538 255.5 529 c 128,-1,23
 267 520 267 520 275.5 512 c 128,-1,24
 284 504 284 504 289.5 486 c 128,-1,25
 295 468 295 468 298 455.5 c 128,-1,26
 301 443 301 443 302.5 416.5 c 128,-1,27
 304 390 304 390 304 374 c 2,28,-1
 304 322 l 1,29,-1
 308 268 l 1,30,-1
 104 263 l 1,31,-1
 108 238 l 1,32,33
 108 110 108 110 118 90 c 0,34,35
 134 57 134 57 155 52 c 0,36,37
 169 48 169 48 209.5 48 c 128,-1,38
 250 48 250 48 306 61 c 1,39,-1
 306 10 l 1,0,1
114 396 m 0,40,41
 114 378 114 378 114 342 c 1,42,-1
 110 317 l 1,43,-1
 252 317 l 1,44,-1
 247 343 l 1,45,46
 247 423 247 423 236 457 c 128,-1,47
 225 491 225 491 186.5 491 c 128,-1,48
 148 491 148 491 132 470.5 c 128,-1,49
 116 450 116 450 114 396 c 0,40,41
112 709 m 1,50,51
 143 740 143 740 152 740 c 128,-1,52
 161 740 161 740 194 707 c 1,53,-1
 262 631 l 1,54,-1
 227 595 l 1,55,-1
 112 709 l 1,50,51
EndSplineSet
EndChar

StartChar: eacute
Encoding: 233 233 170
Width: 353
GlyphClass: 2
Flags: W
LayerCount: 2
Fore
SplineSet
306 10 m 1,0,1
 229 -7 229 -7 198.5 -7 c 128,-1,2
 168 -7 168 -7 151.5 -5.5 c 128,-1,3
 135 -4 135 -4 121.5 2.5 c 128,-1,4
 108 9 108 9 98 13.5 c 128,-1,5
 88 18 88 18 80 31.5 c 128,-1,6
 72 45 72 45 67 53.5 c 128,-1,7
 62 62 62 62 59 83 c 128,-1,8
 56 104 56 104 54 117 c 128,-1,9
 52 130 52 130 51 159.5 c 128,-1,10
 50 189 50 189 50 207 c 2,11,-1
 50 320 l 2,12,13
 50 386 50 386 53 405.5 c 128,-1,14
 56 425 56 425 59 447 c 128,-1,15
 62 469 62 469 67 478.5 c 128,-1,16
 72 488 72 488 80 502 c 128,-1,17
 88 516 88 516 98 521.5 c 128,-1,18
 108 527 108 527 121.5 533.5 c 128,-1,19
 135 540 135 540 151.5 542 c 128,-1,20
 168 544 168 544 189 544 c 128,-1,21
 210 544 210 544 227 541 c 128,-1,22
 244 538 244 538 255.5 529 c 128,-1,23
 267 520 267 520 275.5 512 c 128,-1,24
 284 504 284 504 289.5 486 c 128,-1,25
 295 468 295 468 298 455.5 c 128,-1,26
 301 443 301 443 302.5 416.5 c 128,-1,27
 304 390 304 390 304 374 c 2,28,-1
 304 322 l 1,29,-1
 308 268 l 1,30,-1
 104 263 l 1,31,-1
 108 238 l 1,32,33
 108 110 108 110 118 90 c 0,34,35
 134 57 134 57 155 52 c 0,36,37
 169 48 169 48 209.5 48 c 128,-1,38
 250 48 250 48 306 61 c 1,39,-1
 306 10 l 1,0,1
114 396 m 0,40,41
 114 378 114 378 114 342 c 1,42,-1
 110 317 l 1,43,-1
 252 317 l 1,44,-1
 247 343 l 1,45,46
 247 423 247 423 236 457 c 128,-1,47
 225 491 225 491 186.5 491 c 128,-1,48
 148 491 148 491 132 470.5 c 128,-1,49
 116 450 116 450 114 396 c 0,40,41
211 707 m 1,50,51
 244 740 244 740 252 740 c 0,52,53
 262 740 262 740 293 709 c 1,54,-1
 178 595 l 1,55,-1
 143 631 l 1,56,-1
 211 707 l 1,50,51
EndSplineSet
EndChar

StartChar: ecircumflex
Encoding: 234 234 171
Width: 353
GlyphClass: 2
Flags: W
LayerCount: 2
Fore
SplineSet
306 10 m 1,0,1
 229 -7 229 -7 198.5 -7 c 128,-1,2
 168 -7 168 -7 151.5 -5.5 c 128,-1,3
 135 -4 135 -4 121.5 2.5 c 128,-1,4
 108 9 108 9 98 13.5 c 128,-1,5
 88 18 88 18 80 31.5 c 128,-1,6
 72 45 72 45 67 53.5 c 128,-1,7
 62 62 62 62 59 83 c 128,-1,8
 56 104 56 104 54 117 c 128,-1,9
 52 130 52 130 51 159.5 c 128,-1,10
 50 189 50 189 50 207 c 2,11,-1
 50 320 l 2,12,13
 50 386 50 386 53 405.5 c 128,-1,14
 56 425 56 425 59 447 c 128,-1,15
 62 469 62 469 67 478.5 c 128,-1,16
 72 488 72 488 80 502 c 128,-1,17
 88 516 88 516 98 521.5 c 128,-1,18
 108 527 108 527 121.5 533.5 c 128,-1,19
 135 540 135 540 151.5 542 c 128,-1,20
 168 544 168 544 189 544 c 128,-1,21
 210 544 210 544 227 541 c 128,-1,22
 244 538 244 538 255.5 529 c 128,-1,23
 267 520 267 520 275.5 512 c 128,-1,24
 284 504 284 504 289.5 486 c 128,-1,25
 295 468 295 468 298 455.5 c 128,-1,26
 301 443 301 443 302.5 416.5 c 128,-1,27
 304 390 304 390 304 374 c 2,28,-1
 304 322 l 1,29,-1
 308 268 l 1,30,-1
 104 263 l 1,31,-1
 108 238 l 1,32,33
 108 110 108 110 118 90 c 0,34,35
 134 57 134 57 155 52 c 0,36,37
 169 48 169 48 209.5 48 c 128,-1,38
 250 48 250 48 306 61 c 1,39,-1
 306 10 l 1,0,1
114 396 m 0,40,41
 114 378 114 378 114 342 c 1,42,-1
 110 317 l 1,43,-1
 252 317 l 1,44,-1
 247 343 l 1,45,46
 247 423 247 423 236 457 c 128,-1,47
 225 491 225 491 186.5 491 c 128,-1,48
 148 491 148 491 132 470.5 c 128,-1,49
 116 450 116 450 114 396 c 0,40,41
300 629 m 1,50,-1
 182 695 l 1,51,-1
 65 629 l 1,52,-1
 65 684 l 1,53,-1
 169 744 l 1,54,-1
 195 744 l 1,55,-1
 300 683 l 1,56,-1
 300 629 l 1,50,-1
EndSplineSet
EndChar

StartChar: edieresis
Encoding: 235 235 172
Width: 353
GlyphClass: 2
Flags: W
LayerCount: 2
Fore
SplineSet
306 10 m 1,0,1
 229 -7 229 -7 198.5 -7 c 128,-1,2
 168 -7 168 -7 151.5 -5.5 c 128,-1,3
 135 -4 135 -4 121.5 2.5 c 128,-1,4
 108 9 108 9 98 13.5 c 128,-1,5
 88 18 88 18 80 31.5 c 128,-1,6
 72 45 72 45 67 53.5 c 128,-1,7
 62 62 62 62 59 83 c 128,-1,8
 56 104 56 104 54 117 c 128,-1,9
 52 130 52 130 51 159.5 c 128,-1,10
 50 189 50 189 50 207 c 2,11,-1
 50 320 l 2,12,13
 50 386 50 386 53 405.5 c 128,-1,14
 56 425 56 425 59 447 c 128,-1,15
 62 469 62 469 67 478.5 c 128,-1,16
 72 488 72 488 80 502 c 128,-1,17
 88 516 88 516 98 521.5 c 128,-1,18
 108 527 108 527 121.5 533.5 c 128,-1,19
 135 540 135 540 151.5 542 c 128,-1,20
 168 544 168 544 189 544 c 128,-1,21
 210 544 210 544 227 541 c 128,-1,22
 244 538 244 538 255.5 529 c 128,-1,23
 267 520 267 520 275.5 512 c 128,-1,24
 284 504 284 504 289.5 486 c 128,-1,25
 295 468 295 468 298 455.5 c 128,-1,26
 301 443 301 443 302.5 416.5 c 128,-1,27
 304 390 304 390 304 374 c 2,28,-1
 304 322 l 1,29,-1
 308 268 l 1,30,-1
 104 263 l 1,31,-1
 108 238 l 1,32,33
 108 110 108 110 118 90 c 0,34,35
 134 57 134 57 155 52 c 0,36,37
 169 48 169 48 209.5 48 c 128,-1,38
 250 48 250 48 306 61 c 1,39,-1
 306 10 l 1,0,1
114 396 m 0,40,41
 114 378 114 378 114 342 c 1,42,-1
 110 317 l 1,43,-1
 252 317 l 1,44,-1
 247 343 l 1,45,46
 247 423 247 423 236 457 c 128,-1,47
 225 491 225 491 186.5 491 c 128,-1,48
 148 491 148 491 132 470.5 c 128,-1,49
 116 450 116 450 114 396 c 0,40,41
113 622 m 128,-1,51
 94 622 94 622 80.5 635.5 c 128,-1,52
 67 649 67 649 67 668 c 128,-1,53
 67 687 67 687 80.5 700 c 128,-1,54
 94 713 94 713 113 713 c 128,-1,55
 132 713 132 713 145.5 700 c 128,-1,56
 159 687 159 687 159 668 c 128,-1,57
 159 649 159 649 145.5 635.5 c 128,-1,50
 132 622 132 622 113 622 c 128,-1,51
256 622 m 128,-1,59
 237 622 237 622 223.5 635.5 c 128,-1,60
 210 649 210 649 210 668 c 128,-1,61
 210 687 210 687 223.5 700 c 128,-1,62
 237 713 237 713 256 713 c 128,-1,63
 275 713 275 713 288.5 700 c 128,-1,64
 302 687 302 687 302 668 c 128,-1,65
 302 649 302 649 288.5 635.5 c 128,-1,58
 275 622 275 622 256 622 c 128,-1,59
EndSplineSet
EndChar

StartChar: igrave
Encoding: 236 236 173
Width: 211
GlyphClass: 2
Flags: W
LayerCount: 2
Fore
SplineSet
72 42 m 2,0,-1
 72 537 l 1,1,2
 116 537 116 537 123.5 531.5 c 128,-1,3
 131 526 131 526 131 491 c 2,4,-1
 131 -4 l 1,5,6
 87 -4 87 -4 79.5 2 c 128,-1,7
 72 8 72 8 72 42 c 2,0,-1
6 711 m 1,8,9
 37 742 37 742 46 742 c 128,-1,10
 55 742 55 742 88 709 c 1,11,-1
 156 633 l 1,12,-1
 121 597 l 1,13,-1
 6 711 l 1,8,9
EndSplineSet
EndChar

StartChar: iacute
Encoding: 237 237 174
Width: 220
GlyphClass: 2
Flags: W
LayerCount: 2
Fore
SplineSet
75 42 m 2,0,-1
 75 537 l 1,1,2
 119 537 119 537 126.5 531.5 c 128,-1,3
 134 526 134 526 134 491 c 2,4,-1
 134 -4 l 1,5,6
 90 -4 90 -4 82.5 2 c 128,-1,7
 75 8 75 8 75 42 c 2,0,-1
128 707 m 1,8,9
 161 740 161 740 169 740 c 0,10,11
 179 740 179 740 210 709 c 1,12,-1
 95 595 l 1,13,-1
 60 631 l 1,14,-1
 128 707 l 1,8,9
EndSplineSet
EndChar

StartChar: icircumflex
Encoding: 238 238 175
Width: 246
GlyphClass: 2
Flags: W
LayerCount: 2
Fore
SplineSet
90 42 m 2,0,-1
 90 537 l 1,1,2
 134 537 134 537 141.5 531.5 c 128,-1,3
 149 526 149 526 149 491 c 2,4,-1
 149 -4 l 1,5,6
 105 -4 105 -4 97.5 2 c 128,-1,7
 90 8 90 8 90 42 c 2,0,-1
240 625 m 1,8,-1
 122 691 l 1,9,-1
 5 625 l 1,10,-1
 5 680 l 1,11,-1
 109 740 l 1,12,-1
 135 740 l 1,13,-1
 240 679 l 1,14,-1
 240 625 l 1,8,-1
EndSplineSet
EndChar

StartChar: idieresis
Encoding: 239 239 176
Width: 260
GlyphClass: 2
Flags: W
LayerCount: 2
Fore
SplineSet
108 42 m 2,0,-1
 108 537 l 1,1,2
 152 537 152 537 159.5 531.5 c 128,-1,3
 167 526 167 526 167 491 c 2,4,-1
 167 -4 l 1,5,6
 123 -4 123 -4 115.5 2 c 128,-1,7
 108 8 108 8 108 42 c 2,0,-1
66 622 m 128,-1,9
 47 622 47 622 33.5 635.5 c 128,-1,10
 20 649 20 649 20 668 c 128,-1,11
 20 687 20 687 33.5 700 c 128,-1,12
 47 713 47 713 66 713 c 128,-1,13
 85 713 85 713 98.5 700 c 128,-1,14
 112 687 112 687 112 668 c 128,-1,15
 112 649 112 649 98.5 635.5 c 128,-1,8
 85 622 85 622 66 622 c 128,-1,9
209 622 m 128,-1,17
 190 622 190 622 176.5 635.5 c 128,-1,18
 163 649 163 649 163 668 c 128,-1,19
 163 687 163 687 176.5 700 c 128,-1,20
 190 713 190 713 209 713 c 128,-1,21
 228 713 228 713 241.5 700 c 128,-1,22
 255 687 255 687 255 668 c 128,-1,23
 255 649 255 649 241.5 635.5 c 128,-1,16
 228 622 228 622 209 622 c 128,-1,17
EndSplineSet
EndChar

StartChar: eth
Encoding: 240 240 177
Width: 376
GlyphClass: 2
Flags: W
LayerCount: 2
Fore
SplineSet
105 406.5 m 128,-1,1
 93 375 93 375 93 247 c 128,-1,2
 93 119 93 119 105 86 c 128,-1,3
 117 53 117 53 177.5 53 c 128,-1,4
 238 53 238 53 250 90.5 c 128,-1,5
 262 128 262 128 262 284 c 0,6,7
 262 292 262 292 262 297 c 2,8,-1
 260 406 l 1,9,-1
 176 438 l 1,10,0
 117 438 117 438 105 406.5 c 128,-1,1
154 675 m 1,11,-1
 154 732 l 1,12,13
 208 732 208 732 237 710 c 0,14,15
 253 697 253 697 265.5 684.5 c 128,-1,16
 278 672 278 672 287 648.5 c 128,-1,17
 296 625 296 625 302.5 606 c 128,-1,18
 309 587 309 587 313.5 554.5 c 128,-1,19
 318 522 318 522 320 498.5 c 128,-1,20
 322 475 322 475 323.5 435 c 128,-1,21
 325 395 325 395 325 369 c 2,22,-1
 325 228 l 2,23,24
 325 89 325 89 306 56 c 0,25,26
 287 24 287 24 274.5 18.5 c 128,-1,27
 262 13 262 13 248 8 c 0,28,29
 224 0 224 0 176 0 c 0,30,31
 73 0 73 0 51.5 44 c 128,-1,32
 30 88 30 88 30 248 c 2,33,-1
 30 304 l 2,34,35
 30 366 30 366 33 383 c 128,-1,36
 36 400 36 400 39.5 419 c 128,-1,37
 43 438 43 438 48 444.5 c 128,-1,38
 53 451 53 451 61.5 462 c 128,-1,39
 70 473 70 473 80 476.5 c 128,-1,40
 90 480 90 480 104 484 c 0,41,42
 125 491 125 491 176 491 c 1,43,-1
 256 457 l 1,44,45
 246 575 246 575 224 625 c 128,-1,46
 202 675 202 675 154 675 c 1,11,-1
EndSplineSet
EndChar

StartChar: ograve
Encoding: 242 242 179
Width: 374
GlyphClass: 2
Flags: W
LayerCount: 2
Fore
SplineSet
227.5 -3.5 m 128,-1,1
 210 -7 210 -7 185.5 -7 c 128,-1,2
 161 -7 161 -7 141.5 -4 c 128,-1,3
 122 -1 122 -1 107.5 9 c 128,-1,4
 93 19 93 19 83.5 27.5 c 128,-1,5
 74 36 74 36 67.5 58 c 128,-1,6
 61 80 61 80 57.5 95 c 128,-1,7
 54 110 54 110 52.5 144.5 c 128,-1,8
 51 179 51 179 50.5 201 c 128,-1,9
 50 223 50 223 50 271 c 128,-1,10
 50 319 50 319 50.5 340.5 c 128,-1,11
 51 362 51 362 52.5 396.5 c 128,-1,12
 54 431 54 431 57.5 445.5 c 128,-1,13
 61 460 61 460 67.5 481.5 c 128,-1,14
 74 503 74 503 83.5 511 c 128,-1,15
 93 519 93 519 108 528 c 1,16,17
 131 544 131 544 170.5 544 c 128,-1,18
 210 544 210 544 227.5 540.5 c 128,-1,19
 245 537 245 537 259 533 c 128,-1,20
 273 529 273 529 283 516.5 c 128,-1,21
 293 504 293 504 300 495.5 c 128,-1,22
 307 487 307 487 311 465.5 c 128,-1,23
 315 444 315 444 317.5 430.5 c 128,-1,24
 320 417 320 417 321.5 385 c 128,-1,25
 323 353 323 353 323 333 c 2,26,-1
 323 271 l 1,27,28
 323 271 323 271 323 267 c 2,29,30
 323 267 323 267 323 206 c 0,31,32
 323 138 323 138 319 116.5 c 128,-1,33
 315 95 315 95 311 73 c 128,-1,34
 307 51 307 51 300 42.5 c 128,-1,35
 293 34 293 34 283 21.5 c 128,-1,36
 273 9 273 9 259 4.5 c 128,-1,0
 245 0 245 0 227.5 -3.5 c 128,-1,1
264 248 m 2,37,-1
 264 282 l 2,38,39
 264 413 264 413 253 447 c 1,40,41
 237 490 237 490 187 491 c 0,42,43
 146 491 146 491 132 470 c 1,44,45
 124 456 124 456 119 444 c 128,-1,46
 114 432 114 432 112 402 c 0,47,48
 109 358 109 358 109 317 c 128,-1,49
 109 276 109 276 109 234.5 c 128,-1,50
 109 193 109 193 110 163 c 128,-1,51
 111 133 111 133 118.5 99.5 c 128,-1,52
 126 66 126 66 142 56 c 128,-1,53
 158 46 158 46 182 46 c 128,-1,54
 206 46 206 46 219 50.5 c 128,-1,55
 232 55 232 55 240.5 67.5 c 128,-1,56
 249 80 249 80 253.5 92.5 c 128,-1,57
 258 105 258 105 260 132 c 0,58,59
 264 171 264 171 264 248 c 2,37,-1
113 713 m 1,60,61
 144 744 144 744 153 744 c 128,-1,62
 162 744 162 744 195 711 c 1,63,-1
 263 635 l 1,64,-1
 228 599 l 1,65,-1
 113 713 l 1,60,61
EndSplineSet
EndChar

StartChar: oacute
Encoding: 243 243 180
Width: 374
GlyphClass: 2
Flags: W
LayerCount: 2
Fore
SplineSet
227.5 -3.5 m 128,-1,1
 210 -7 210 -7 185.5 -7 c 128,-1,2
 161 -7 161 -7 141.5 -4 c 128,-1,3
 122 -1 122 -1 107.5 9 c 128,-1,4
 93 19 93 19 83.5 27.5 c 128,-1,5
 74 36 74 36 67.5 58 c 128,-1,6
 61 80 61 80 57.5 95 c 128,-1,7
 54 110 54 110 52.5 144.5 c 128,-1,8
 51 179 51 179 50.5 201 c 128,-1,9
 50 223 50 223 50 271 c 128,-1,10
 50 319 50 319 50.5 340.5 c 128,-1,11
 51 362 51 362 52.5 396.5 c 128,-1,12
 54 431 54 431 57.5 445.5 c 128,-1,13
 61 460 61 460 67.5 481.5 c 128,-1,14
 74 503 74 503 83.5 511 c 128,-1,15
 93 519 93 519 108 528 c 1,16,17
 131 544 131 544 170.5 544 c 128,-1,18
 210 544 210 544 227.5 540.5 c 128,-1,19
 245 537 245 537 259 533 c 128,-1,20
 273 529 273 529 283 516.5 c 128,-1,21
 293 504 293 504 300 495.5 c 128,-1,22
 307 487 307 487 311 465.5 c 128,-1,23
 315 444 315 444 317.5 430.5 c 128,-1,24
 320 417 320 417 321.5 385 c 128,-1,25
 323 353 323 353 323 333 c 2,26,-1
 323 271 l 1,27,28
 323 271 323 271 323 267 c 2,29,30
 323 267 323 267 323 206 c 0,31,32
 323 138 323 138 319 116.5 c 128,-1,33
 315 95 315 95 311 73 c 128,-1,34
 307 51 307 51 300 42.5 c 128,-1,35
 293 34 293 34 283 21.5 c 128,-1,36
 273 9 273 9 259 4.5 c 128,-1,0
 245 0 245 0 227.5 -3.5 c 128,-1,1
264 248 m 2,37,-1
 264 282 l 2,38,39
 264 413 264 413 253 447 c 1,40,41
 237 490 237 490 187 491 c 0,42,43
 146 491 146 491 132 470 c 1,44,45
 124 456 124 456 119 444 c 128,-1,46
 114 432 114 432 112 402 c 0,47,48
 109 358 109 358 109 317 c 128,-1,49
 109 276 109 276 109 234.5 c 128,-1,50
 109 193 109 193 110 163 c 128,-1,51
 111 133 111 133 118.5 99.5 c 128,-1,52
 126 66 126 66 142 56 c 128,-1,53
 158 46 158 46 182 46 c 128,-1,54
 206 46 206 46 219 50.5 c 128,-1,55
 232 55 232 55 240.5 67.5 c 128,-1,56
 249 80 249 80 253.5 92.5 c 128,-1,57
 258 105 258 105 260 132 c 0,58,59
 264 171 264 171 264 248 c 2,37,-1
212 711 m 1,60,61
 245 744 245 744 253 744 c 0,62,63
 263 744 263 744 294 713 c 1,64,-1
 179 599 l 1,65,-1
 144 635 l 1,66,-1
 212 711 l 1,60,61
EndSplineSet
EndChar

StartChar: otilde
Encoding: 245 245 182
Width: 374
GlyphClass: 2
Flags: W
LayerCount: 2
Fore
SplineSet
136 698 m 1,0,-1
 273 688 l 1,1,2
 289 688 289 688 299 690 c 1,3,-1
 312 688 l 1,4,-1
 312 667 l 2,5,6
 312 644 312 644 304.5 640.5 c 128,-1,7
 297 637 297 637 253 637 c 1,8,-1
 114 647 l 1,9,10
 99 647 99 647 90 645 c 1,11,-1
 77 647 l 1,12,-1
 77 668 l 2,13,14
 77 690 77 690 84.5 694 c 128,-1,15
 92 698 92 698 136 698 c 1,0,-1
227.5 -3.5 m 128,-1,17
 210 -7 210 -7 185.5 -7 c 128,-1,18
 161 -7 161 -7 141.5 -4 c 128,-1,19
 122 -1 122 -1 107.5 9 c 128,-1,20
 93 19 93 19 83.5 27.5 c 128,-1,21
 74 36 74 36 67.5 58 c 128,-1,22
 61 80 61 80 57.5 95 c 128,-1,23
 54 110 54 110 52.5 144.5 c 128,-1,24
 51 179 51 179 50.5 201 c 128,-1,25
 50 223 50 223 50 271 c 128,-1,26
 50 319 50 319 50.5 340.5 c 128,-1,27
 51 362 51 362 52.5 396.5 c 128,-1,28
 54 431 54 431 57.5 445.5 c 128,-1,29
 61 460 61 460 67.5 481.5 c 128,-1,30
 74 503 74 503 83.5 511 c 128,-1,31
 93 519 93 519 108 528 c 1,32,33
 131 544 131 544 170.5 544 c 128,-1,34
 210 544 210 544 227.5 540.5 c 128,-1,35
 245 537 245 537 259 533 c 128,-1,36
 273 529 273 529 283 516.5 c 128,-1,37
 293 504 293 504 300 495.5 c 128,-1,38
 307 487 307 487 311 465.5 c 128,-1,39
 315 444 315 444 317.5 430.5 c 128,-1,40
 320 417 320 417 321.5 385 c 128,-1,41
 323 353 323 353 323 333 c 2,42,-1
 323 271 l 1,43,44
 323 271 323 271 323 267 c 2,45,46
 323 267 323 267 323 206 c 0,47,48
 323 138 323 138 319 116.5 c 128,-1,49
 315 95 315 95 311 73 c 128,-1,50
 307 51 307 51 300 42.5 c 128,-1,51
 293 34 293 34 283 21.5 c 128,-1,52
 273 9 273 9 259 4.5 c 128,-1,16
 245 0 245 0 227.5 -3.5 c 128,-1,17
264 248 m 2,53,-1
 264 282 l 2,54,55
 264 413 264 413 253 447 c 1,56,57
 237 490 237 490 187 491 c 0,58,59
 146 491 146 491 132 470 c 1,60,61
 124 456 124 456 119 444 c 128,-1,62
 114 432 114 432 112 402 c 0,63,64
 109 358 109 358 109 317 c 128,-1,65
 109 276 109 276 109 234.5 c 128,-1,66
 109 193 109 193 110 163 c 128,-1,67
 111 133 111 133 118.5 99.5 c 128,-1,68
 126 66 126 66 142 56 c 128,-1,69
 158 46 158 46 182 46 c 128,-1,70
 206 46 206 46 219 50.5 c 128,-1,71
 232 55 232 55 240.5 67.5 c 128,-1,72
 249 80 249 80 253.5 92.5 c 128,-1,73
 258 105 258 105 260 132 c 0,74,75
 264 171 264 171 264 248 c 2,53,-1
EndSplineSet
EndChar

StartChar: odieresis
Encoding: 246 246 183
Width: 374
GlyphClass: 2
Flags: W
LayerCount: 2
Fore
SplineSet
227.5 -3.5 m 128,-1,1
 210 -7 210 -7 185.5 -7 c 128,-1,2
 161 -7 161 -7 141.5 -4 c 128,-1,3
 122 -1 122 -1 107.5 9 c 128,-1,4
 93 19 93 19 83.5 27.5 c 128,-1,5
 74 36 74 36 67.5 58 c 128,-1,6
 61 80 61 80 57.5 95 c 128,-1,7
 54 110 54 110 52.5 144.5 c 128,-1,8
 51 179 51 179 50.5 201 c 128,-1,9
 50 223 50 223 50 271 c 128,-1,10
 50 319 50 319 50.5 340.5 c 128,-1,11
 51 362 51 362 52.5 396.5 c 128,-1,12
 54 431 54 431 57.5 445.5 c 128,-1,13
 61 460 61 460 67.5 481.5 c 128,-1,14
 74 503 74 503 83.5 511 c 128,-1,15
 93 519 93 519 108 528 c 1,16,17
 131 544 131 544 170.5 544 c 128,-1,18
 210 544 210 544 227.5 540.5 c 128,-1,19
 245 537 245 537 259 533 c 128,-1,20
 273 529 273 529 283 516.5 c 128,-1,21
 293 504 293 504 300 495.5 c 128,-1,22
 307 487 307 487 311 465.5 c 128,-1,23
 315 444 315 444 317.5 430.5 c 128,-1,24
 320 417 320 417 321.5 385 c 128,-1,25
 323 353 323 353 323 333 c 2,26,-1
 323 271 l 1,27,28
 323 271 323 271 323 267 c 2,29,30
 323 267 323 267 323 206 c 0,31,32
 323 138 323 138 319 116.5 c 128,-1,33
 315 95 315 95 311 73 c 128,-1,34
 307 51 307 51 300 42.5 c 128,-1,35
 293 34 293 34 283 21.5 c 128,-1,36
 273 9 273 9 259 4.5 c 128,-1,0
 245 0 245 0 227.5 -3.5 c 128,-1,1
264 248 m 2,37,-1
 264 282 l 2,38,39
 264 413 264 413 253 447 c 1,40,41
 237 490 237 490 187 491 c 0,42,43
 146 491 146 491 132 470 c 1,44,45
 124 456 124 456 119 444 c 128,-1,46
 114 432 114 432 112 402 c 0,47,48
 109 358 109 358 109 317 c 128,-1,49
 109 276 109 276 109 234.5 c 128,-1,50
 109 193 109 193 110 163 c 128,-1,51
 111 133 111 133 118.5 99.5 c 128,-1,52
 126 66 126 66 142 56 c 128,-1,53
 158 46 158 46 182 46 c 128,-1,54
 206 46 206 46 219 50.5 c 128,-1,55
 232 55 232 55 240.5 67.5 c 128,-1,56
 249 80 249 80 253.5 92.5 c 128,-1,57
 258 105 258 105 260 132 c 0,58,59
 264 171 264 171 264 248 c 2,37,-1
118 620 m 128,-1,61
 99 620 99 620 85.5 633.5 c 128,-1,62
 72 647 72 647 72 666 c 128,-1,63
 72 685 72 685 85.5 698 c 128,-1,64
 99 711 99 711 118 711 c 128,-1,65
 137 711 137 711 150.5 698 c 128,-1,66
 164 685 164 685 164 666 c 128,-1,67
 164 647 164 647 150.5 633.5 c 128,-1,60
 137 620 137 620 118 620 c 128,-1,61
261 620 m 128,-1,69
 242 620 242 620 228.5 633.5 c 128,-1,70
 215 647 215 647 215 666 c 128,-1,71
 215 685 215 685 228.5 698 c 128,-1,72
 242 711 242 711 261 711 c 128,-1,73
 280 711 280 711 293.5 698 c 128,-1,74
 307 685 307 685 307 666 c 128,-1,75
 307 647 307 647 293.5 633.5 c 128,-1,68
 280 620 280 620 261 620 c 128,-1,69
EndSplineSet
EndChar

StartChar: divide
Encoding: 247 247 184
Width: 275
GlyphClass: 2
Flags: W
LayerCount: 2
Fore
SplineSet
131 0 m 128,-1,1
 112 0 112 0 98.5 13.5 c 128,-1,2
 85 27 85 27 85 46 c 128,-1,3
 85 65 85 65 98.5 78 c 128,-1,4
 112 91 112 91 131 91 c 128,-1,5
 150 91 150 91 163.5 78 c 128,-1,6
 177 65 177 65 177 46 c 128,-1,7
 177 27 177 27 163.5 13.5 c 128,-1,0
 150 0 150 0 131 0 c 128,-1,1
138 446 m 128,-1,9
 119 446 119 446 105.5 459.5 c 128,-1,10
 92 473 92 473 92 492 c 128,-1,11
 92 511 92 511 105.5 524 c 128,-1,12
 119 537 119 537 138 537 c 128,-1,13
 157 537 157 537 170.5 524 c 128,-1,14
 184 511 184 511 184 492 c 128,-1,15
 184 473 184 473 170.5 459.5 c 128,-1,8
 157 446 157 446 138 446 c 128,-1,9
244 270 m 1,16,-1
 30 270 l 1,17,-1
 30 321 l 1,18,-1
 244 321 l 1,19,-1
 244 270 l 1,16,-1
EndSplineSet
EndChar

StartChar: oslash
Encoding: 248 248 185
Width: 400
GlyphClass: 2
Flags: W
LayerCount: 2
Fore
SplineSet
67 102 m 128,-1,1
 61 154 61 154 61 236.5 c 128,-1,2
 61 319 61 319 61.5 340.5 c 128,-1,3
 62 362 62 362 63.5 396.5 c 128,-1,4
 65 431 65 431 68.5 445.5 c 128,-1,5
 72 460 72 460 78.5 481.5 c 128,-1,6
 85 503 85 503 94.5 511 c 128,-1,7
 104 519 104 519 118 528 c 0,8,9
 142 544 142 544 198 544 c 0,10,11
 219 544 219 544 237 541 c 1,12,-1
 276 638 l 1,13,-1
 344 638 l 1,14,-1
 295 516 l 1,15,16
 322 491 322 491 328 439.5 c 128,-1,17
 334 388 334 388 334 329 c 2,18,-1
 334 267 l 1,19,-1
 334 206 l 2,20,21
 334 138 334 138 330 116.5 c 128,-1,22
 326 95 326 95 322 73 c 128,-1,23
 318 51 318 51 311 42.5 c 128,-1,24
 304 34 304 34 294 21.5 c 128,-1,25
 284 9 284 9 270 4 c 0,26,27
 217 -12 217 -12 156 -3 c 1,28,-1
 120 -94 l 1,29,-1
 52 -94 l 1,30,-1
 99 23 l 1,31,0
 73 50 73 50 67 102 c 128,-1,1
275 248 m 2,32,-1
 275 282 l 2,33,34
 275 413 275 413 264 447 c 1,35,36
 248 490 248 490 198 491 c 0,37,38
 157 491 157 491 144 470 c 0,39,40
 135 456 135 456 130 444 c 128,-1,41
 125 432 125 432 123 402 c 0,42,43
 120 358 120 358 120 317 c 128,-1,44
 120 276 120 276 120 234.5 c 128,-1,45
 120 193 120 193 121 163 c 128,-1,46
 122 133 122 133 129.5 99.5 c 128,-1,47
 137 66 137 66 153 56 c 128,-1,48
 169 46 169 46 193 46 c 128,-1,49
 217 46 217 46 230 50.5 c 128,-1,50
 243 55 243 55 251.5 67.5 c 128,-1,51
 260 80 260 80 264.5 92.5 c 128,-1,52
 269 105 269 105 272 132 c 0,53,54
 275 171 275 171 275 248 c 2,32,-1
EndSplineSet
EndChar

StartChar: ugrave
Encoding: 249 249 186
Width: 385
GlyphClass: 2
Flags: W
LayerCount: 2
Fore
SplineSet
55 271 m 2,0,-1
 55 537 l 1,1,2
 99 537 99 537 106.5 531.5 c 128,-1,3
 114 526 114 526 114 491 c 2,4,-1
 114 273 l 2,5,6
 114 157 114 157 120.5 114.5 c 128,-1,7
 127 72 127 72 140.5 59 c 128,-1,8
 154 46 154 46 177 46 c 1,9,-1
 276 92 l 1,10,-1
 271 117 l 1,11,-1
 271 537 l 1,12,13
 315 537 315 537 322.5 531.5 c 128,-1,14
 330 526 330 526 330 491 c 2,15,-1
 330 0 l 1,16,17
 286 0 286 0 278.5 5 c 128,-1,18
 271 10 271 10 271 40 c 1,19,-1
 181 -7 l 1,20,21
 118 -7 118 -7 82 32 c 0,22,23
 59 58 59 58 56 164 c 0,24,25
 55 197 55 197 55 271 c 2,0,-1
112 705 m 1,26,27
 143 736 143 736 152 736 c 128,-1,28
 161 736 161 736 194 703 c 1,29,-1
 262 627 l 1,30,-1
 227 591 l 1,31,-1
 112 705 l 1,26,27
EndSplineSet
EndChar

StartChar: uacute
Encoding: 250 250 187
Width: 385
GlyphClass: 2
Flags: W
LayerCount: 2
Fore
SplineSet
55 271 m 2,0,-1
 55 537 l 1,1,2
 99 537 99 537 106.5 531.5 c 128,-1,3
 114 526 114 526 114 491 c 2,4,-1
 114 273 l 2,5,6
 114 157 114 157 120.5 114.5 c 128,-1,7
 127 72 127 72 140.5 59 c 128,-1,8
 154 46 154 46 177 46 c 1,9,-1
 276 92 l 1,10,-1
 271 117 l 1,11,-1
 271 537 l 1,12,13
 315 537 315 537 322.5 531.5 c 128,-1,14
 330 526 330 526 330 491 c 2,15,-1
 330 0 l 1,16,17
 286 0 286 0 278.5 5 c 128,-1,18
 271 10 271 10 271 40 c 1,19,-1
 181 -7 l 1,20,21
 118 -7 118 -7 82 32 c 0,22,23
 59 58 59 58 56 164 c 0,24,25
 55 197 55 197 55 271 c 2,0,-1
216 711 m 1,26,27
 249 744 249 744 257 744 c 0,28,29
 267 744 267 744 298 713 c 1,30,-1
 183 599 l 1,31,-1
 148 635 l 1,32,-1
 216 711 l 1,26,27
EndSplineSet
EndChar

StartChar: ucircumflex
Encoding: 251 251 188
Width: 385
GlyphClass: 2
Flags: W
LayerCount: 2
Fore
SplineSet
55 271 m 2,0,-1
 55 537 l 1,1,2
 99 537 99 537 106.5 531.5 c 128,-1,3
 114 526 114 526 114 491 c 2,4,-1
 114 273 l 2,5,6
 114 157 114 157 120.5 114.5 c 128,-1,7
 127 72 127 72 140.5 59 c 128,-1,8
 154 46 154 46 177 46 c 1,9,-1
 276 92 l 1,10,-1
 271 117 l 1,11,-1
 271 537 l 1,12,13
 315 537 315 537 322.5 531.5 c 128,-1,14
 330 526 330 526 330 491 c 2,15,-1
 330 0 l 1,16,17
 286 0 286 0 278.5 5 c 128,-1,18
 271 10 271 10 271 40 c 1,19,-1
 181 -7 l 1,20,21
 118 -7 118 -7 82 32 c 0,22,23
 59 58 59 58 56 164 c 0,24,25
 55 197 55 197 55 271 c 2,0,-1
312 627 m 1,26,-1
 194 693 l 1,27,-1
 77 627 l 1,28,-1
 77 682 l 1,29,-1
 181 742 l 1,30,-1
 207 742 l 1,31,-1
 312 681 l 1,32,-1
 312 627 l 1,26,-1
EndSplineSet
EndChar

StartChar: udieresis
Encoding: 252 252 189
Width: 385
GlyphClass: 2
Flags: W
LayerCount: 2
Fore
SplineSet
55 271 m 2,0,-1
 55 537 l 1,1,2
 99 537 99 537 106.5 531.5 c 128,-1,3
 114 526 114 526 114 491 c 2,4,-1
 114 273 l 2,5,6
 114 157 114 157 120.5 114.5 c 128,-1,7
 127 72 127 72 140.5 59 c 128,-1,8
 154 46 154 46 177 46 c 1,9,-1
 276 92 l 1,10,-1
 271 117 l 1,11,-1
 271 537 l 1,12,13
 315 537 315 537 322.5 531.5 c 128,-1,14
 330 526 330 526 330 491 c 2,15,-1
 330 0 l 1,16,17
 286 0 286 0 278.5 5 c 128,-1,18
 271 10 271 10 271 40 c 1,19,-1
 181 -7 l 1,20,21
 118 -7 118 -7 82 32 c 0,22,23
 59 58 59 58 56 164 c 0,24,25
 55 197 55 197 55 271 c 2,0,-1
126 618 m 128,-1,27
 107 618 107 618 93.5 631.5 c 128,-1,28
 80 645 80 645 80 664 c 128,-1,29
 80 683 80 683 93.5 696 c 128,-1,30
 107 709 107 709 126 709 c 128,-1,31
 145 709 145 709 158.5 696 c 128,-1,32
 172 683 172 683 172 664 c 128,-1,33
 172 645 172 645 158.5 631.5 c 128,-1,26
 145 618 145 618 126 618 c 128,-1,27
269 618 m 128,-1,35
 250 618 250 618 236.5 631.5 c 128,-1,36
 223 645 223 645 223 664 c 128,-1,37
 223 683 223 683 236.5 696 c 128,-1,38
 250 709 250 709 269 709 c 128,-1,39
 288 709 288 709 301.5 696 c 128,-1,40
 315 683 315 683 315 664 c 128,-1,41
 315 645 315 645 301.5 631.5 c 128,-1,34
 288 618 288 618 269 618 c 128,-1,35
EndSplineSet
EndChar

StartChar: thorn
Encoding: 254 254 191
Width: 386
GlyphClass: 2
Flags: W
LayerCount: 2
Fore
SplineSet
276.5 89 m 128,-1,1
 289 132 289 132 289 223.5 c 128,-1,2
 289 315 289 315 288.5 335 c 128,-1,3
 288 355 288 355 286 388 c 128,-1,4
 284 421 284 421 279 434 c 128,-1,5
 274 447 274 447 265 464 c 0,6,7
 250 491 250 491 206 491 c 1,8,-1
 118 467 l 1,9,-1
 118 90 l 1,10,-1
 206 46 l 1,11,0
 264 46 264 46 276.5 89 c 128,-1,1
60 -200 m 1,12,-1
 60 732 l 1,13,14
 103 732 103 732 110.5 726 c 128,-1,15
 118 720 118 720 118 686 c 2,16,-1
 118 516 l 1,17,-1
 202 544 l 1,18,19
 261 544 261 544 281 531 c 128,-1,20
 301 518 301 518 311.5 509 c 128,-1,21
 322 500 322 500 329 479 c 128,-1,22
 336 458 336 458 340 442 c 128,-1,23
 344 426 344 426 346 393 c 0,24,25
 348 338 348 338 348 265.5 c 128,-1,26
 348 193 348 193 347 160.5 c 128,-1,27
 346 128 346 128 339 86.5 c 128,-1,28
 332 45 332 45 317 30 c 0,29,30
 278 -7 278 -7 207 -7 c 1,31,-1
 118 53 l 1,32,-1
 118 -147 l 2,33,34
 118 -187 118 -187 111 -193.5 c 128,-1,35
 104 -200 104 -200 60 -200 c 1,12,-1
EndSplineSet
EndChar

StartChar: dotlessi
Encoding: 305 305 193
Width: 207
GlyphClass: 2
Flags: W
LayerCount: 2
Fore
SplineSet
144 128 m 1,0,-1
 91 128 l 1,1,-1
 91 403 l 1,2,-1
 11 403 l 1,3,4
 11 438 11 438 17.5 443.5 c 128,-1,5
 24 449 24 449 64 449 c 2,6,-1
 144 449 l 1,7,-1
 144 128 l 1,0,-1
EndSplineSet
EndChar

StartChar: lslash
Encoding: 322 322 195
Width: 287
GlyphClass: 2
Flags: W
LayerCount: 2
Fore
SplineSet
113 42 m 2,0,-1
 113 732 l 1,1,2
 157 732 157 732 164.5 726 c 128,-1,3
 172 720 172 720 172 686 c 2,4,-1
 172 -4 l 1,5,6
 128 -4 128 -4 120.5 2 c 128,-1,7
 113 8 113 8 113 42 c 2,0,-1
279 300 m 1,8,-1
 6 300 l 1,9,-1
 6 351 l 1,10,-1
 279 351 l 1,11,-1
 279 300 l 1,8,-1
EndSplineSet
EndChar

StartChar: OE
Encoding: 338 338 196
Width: 653
GlyphClass: 2
Flags: W
LayerCount: 2
Fore
SplineSet
625 0 m 1,0,-1
 332 0 l 1,1,-1
 241 -7 l 1,2,3
 174 -7 174 -7 123 21 c 0,4,5
 94 37 94 37 70 112 c 0,6,7
 57 151 57 151 56 223.5 c 128,-1,8
 55 296 55 296 55 379 c 128,-1,9
 55 462 55 462 56.5 504 c 128,-1,10
 58 546 58 546 67 602 c 128,-1,11
 76 658 76 658 96 679 c 0,12,13
 145 732 145 732 241 732 c 1,14,-1
 332 720 l 1,15,-1
 615 720 l 1,16,-1
 615 667 l 1,17,-1
 398 667 l 1,18,-1
 401 642 l 1,19,-1
 401 443 l 1,20,-1
 397 418 l 1,21,-1
 601 418 l 1,22,-1
 601 361 l 1,23,-1
 398 361 l 1,24,-1
 402 336 l 1,25,-1
 402 82 l 1,26,-1
 398 57 l 1,27,-1
 625 57 l 1,28,-1
 625 0 l 1,0,-1
118 424 m 2,29,-1
 118 366 l 2,30,31
 118 210 118 210 123 185 c 128,-1,32
 128 160 128 160 133.5 134 c 128,-1,33
 139 108 139 108 148 96.5 c 128,-1,34
 157 85 157 85 170 72 c 0,35,36
 192 50 192 50 241 50 c 1,37,-1
 332 57 l 1,38,-1
 332 663 l 1,39,-1
 241 675 l 1,40,41
 202 675 202 675 185.5 664 c 128,-1,42
 169 653 169 653 160 646 c 128,-1,43
 151 639 151 639 144.5 623 c 128,-1,44
 138 607 138 607 133.5 595.5 c 128,-1,45
 129 584 129 584 126 560 c 128,-1,46
 123 536 123 536 122 521 c 0,47,48
 118 486 118 486 118 424 c 2,29,-1
EndSplineSet
EndChar

StartChar: oe
Encoding: 339 339 197
Width: 628
GlyphClass: 2
Flags: W
LayerCount: 2
Fore
SplineSet
345 233 m 1,0,1
 345 213 345 213 345 207 c 0,2,3
 345 111 345 111 355 85 c 1,4,5
 373 46 373 46 433 46 c 128,-1,6
 493 46 493 46 552 59 c 1,7,-1
 552 10 l 1,8,9
 476 -7 476 -7 431 -7 c 128,-1,10
 386 -7 386 -7 361 3 c 128,-1,11
 336 13 336 13 319 37 c 1,12,13
 288 -7 288 -7 203 -7 c 0,14,15
 143 -7 143 -7 123 6 c 128,-1,16
 103 19 103 19 92.5 28 c 128,-1,17
 82 37 82 37 75 58.5 c 128,-1,18
 68 80 68 80 64 95 c 128,-1,19
 60 110 60 110 58 144 c 0,20,21
 56 201 56 201 56 257 c 2,22,-1
 56 334 l 2,23,24
 56 399 56 399 60 422 c 128,-1,25
 64 445 64 445 69 466 c 128,-1,26
 74 487 74 487 81.5 496 c 128,-1,27
 89 505 89 505 100 517 c 128,-1,28
 111 529 111 529 126 533 c 0,29,30
 165 544 165 544 203 544 c 0,31,32
 289 544 289 544 319 504 c 1,33,34
 336 526 336 526 361 535 c 128,-1,35
 386 544 386 544 421 544 c 128,-1,36
 456 544 456 544 473.5 541 c 128,-1,37
 491 538 491 538 503.5 529 c 128,-1,38
 516 520 516 520 525 512 c 128,-1,39
 534 504 534 504 539.5 486 c 128,-1,40
 545 468 545 468 548.5 455.5 c 128,-1,41
 552 443 552 443 553 416 c 0,42,43
 555 364 555 364 555 322 c 1,44,-1
 559 268 l 1,45,-1
 340 262 l 1,46,-1
 345 233 l 1,0,1
350 374.5 m 128,-1,48
 350 358 350 358 351 339 c 1,49,-1
 346 317 l 1,50,-1
 501 317 l 1,51,-1
 496 367 l 1,52,53
 495 448 495 448 484 469.5 c 128,-1,54
 473 491 473 491 437 491 c 128,-1,55
 401 491 401 491 383 481.5 c 128,-1,56
 365 472 365 472 358.5 453 c 128,-1,57
 352 434 352 434 351 412.5 c 128,-1,47
 350 391 350 391 350 374.5 c 128,-1,48
203 46 m 128,-1,59
 225 46 225 46 240 50.5 c 128,-1,60
 255 55 255 55 264.5 70 c 128,-1,61
 274 85 274 85 279 97.5 c 128,-1,62
 284 110 284 110 286 142 c 0,63,64
 290 188 290 188 290 254.5 c 128,-1,65
 290 321 290 321 289.5 343.5 c 128,-1,66
 289 366 289 366 286.5 397.5 c 128,-1,67
 284 429 284 429 279 441.5 c 128,-1,68
 274 454 274 454 264.5 468.5 c 128,-1,69
 255 483 255 483 240 487 c 128,-1,70
 225 491 225 491 203 491 c 0,71,72
 142 491 142 491 128.5 448.5 c 128,-1,73
 115 406 115 406 115 313 c 128,-1,74
 115 220 115 220 115.5 197.5 c 128,-1,75
 116 175 116 175 118.5 142.5 c 128,-1,76
 121 110 121 110 126 97.5 c 128,-1,77
 131 85 131 85 141 70 c 128,-1,78
 151 55 151 55 166 50.5 c 128,-1,58
 181 46 181 46 203 46 c 128,-1,59
EndSplineSet
EndChar

StartChar: Scaron
Encoding: 352 352 198
Width: 391
GlyphClass: 2
Flags: W
LayerCount: 2
Fore
SplineSet
353 233 m 2,0,-1
 353 206 l 2,1,2
 353 184 353 184 351.5 146 c 128,-1,3
 350 108 350 108 340 82 c 0,4,5
 319 32 319 32 291 18 c 1,6,7
 245 -7 245 -7 182 -7 c 1,8,-1
 37 13 l 1,9,-1
 37 69 l 1,10,-1
 183 59 l 1,11,12
 221 59 221 59 250 72 c 0,13,14
 262 77 262 77 269.5 89 c 128,-1,15
 277 101 277 101 281 108.5 c 128,-1,16
 285 116 285 116 286.5 134 c 128,-1,17
 288 152 288 152 288.5 160.5 c 128,-1,18
 289 169 289 169 288.5 191 c 128,-1,19
 288 213 288 213 288 221 c 0,20,21
 288 271 288 271 200 346 c 0,22,23
 163 377 163 377 126.5 410 c 128,-1,24
 90 443 90 443 64.5 484 c 128,-1,25
 39 525 39 525 39 560.5 c 128,-1,26
 39 596 39 596 40.5 628.5 c 128,-1,27
 42 661 42 661 51 676 c 0,28,29
 74 711 74 711 98 718 c 0,30,31
 147 732 147 732 201 732 c 1,32,-1
 307 712 l 1,33,34
 307 674 307 674 287 671 c 0,35,36
 279 670 279 670 263 671 c 2,37,-1
 207 677 l 1,38,39
 135 677 135 677 118 646 c 1,40,41
 108 630 108 630 105.5 615 c 128,-1,42
 103 600 103 600 103 573 c 0,43,44
 103 519 103 519 168 464 c 0,45,46
 196 441 196 441 228 413 c 128,-1,47
 260 385 260 385 288 359.5 c 128,-1,48
 316 334 316 334 334.5 300.5 c 128,-1,49
 353 267 353 267 353 233 c 2,0,-1
318 873 m 1,50,-1
 213 822 l 1,51,-1
 187 822 l 1,52,-1
 83 872 l 1,53,-1
 83 927 l 1,54,-1
 200 871 l 1,55,-1
 318 927 l 1,56,-1
 318 873 l 1,50,-1
EndSplineSet
EndChar

StartChar: scaron
Encoding: 353 353 199
Width: 334
GlyphClass: 2
Flags: W
LayerCount: 2
Fore
SplineSet
219 3.5 m 128,-1,1
 199 -4 199 -4 170 -4 c 128,-1,2
 141 -4 141 -4 51 11 c 1,3,-1
 51 64 l 1,4,5
 55 64 55 64 101.5 59 c 128,-1,6
 148 54 148 54 171 54 c 0,7,8
 227 54 227 54 227 158 c 0,9,10
 227 165 227 165 227 172 c 0,11,12
 226 204 226 204 165 250.5 c 128,-1,13
 104 297 104 297 75 332 c 128,-1,14
 46 367 46 367 46 403 c 128,-1,15
 46 439 46 439 47 453 c 128,-1,16
 48 467 48 467 54 488 c 128,-1,17
 60 509 60 509 72 518 c 0,18,19
 103 543 103 543 166 543 c 1,20,-1
 261 529 l 1,21,22
 261 485 261 485 225 485 c 0,23,24
 218 485 218 485 211 486 c 2,25,-1
 170 492 l 1,26,27
 121 492 121 492 110 470 c 0,28,29
 101 451 101 451 101 414.5 c 128,-1,30
 101 378 101 378 179 316 c 1,31,32
 215 289 215 289 233.5 273 c 128,-1,33
 252 257 252 257 269.5 231 c 128,-1,34
 287 205 287 205 287 180.5 c 128,-1,35
 287 156 287 156 286 138.5 c 128,-1,36
 285 121 285 121 281.5 97 c 128,-1,37
 278 73 278 73 270.5 57 c 128,-1,38
 263 41 263 41 251 26 c 128,-1,0
 239 11 239 11 219 3.5 c 128,-1,1
288 678 m 1,39,-1
 183 627 l 1,40,-1
 157 627 l 1,41,-1
 53 677 l 1,42,-1
 53 732 l 1,43,-1
 170 676 l 1,44,-1
 288 732 l 1,45,-1
 288 678 l 1,39,-1
EndSplineSet
EndChar

StartChar: zcaron
Encoding: 382 382 202
Width: 333
GlyphClass: 2
Flags: W
LayerCount: 2
Fore
SplineSet
293 0 m 1,0,-1
 40 0 l 1,1,-1
 40 53 l 1,2,-1
 223 483 l 1,3,-1
 60 483 l 1,4,5
 60 524 60 524 66 530.5 c 128,-1,6
 72 537 72 537 106 537 c 2,7,-1
 291 537 l 1,8,-1
 291 483 l 1,9,-1
 99 53 l 1,10,-1
 235 53 l 2,11,12
 278 53 278 53 285.5 46.5 c 128,-1,13
 293 40 293 40 293 0 c 1,0,-1
302 678 m 1,14,-1
 197 627 l 1,15,-1
 171 627 l 1,16,-1
 67 677 l 1,17,-1
 67 732 l 1,18,-1
 184 676 l 1,19,-1
 302 732 l 1,20,-1
 302 678 l 1,14,-1
EndSplineSet
EndChar

StartChar: florin
Encoding: 402 402 203
Width: 281
GlyphClass: 2
Flags: W
LayerCount: 2
Fore
SplineSet
62 287 m 1,0,-1
 62 341 l 1,1,-1
 115 341 l 1,2,-1
 111 366 l 1,3,-1
 111 382 l 2,4,5
 111 488 111 488 128 512 c 0,6,7
 147 540 147 540 186 540 c 1,8,-1
 271 537 l 1,9,10
 271 506 271 506 265 501 c 128,-1,11
 259 496 259 496 221 494 c 2,12,-1
 193 493 l 2,13,14
 171 492 171 492 171 382 c 2,15,-1
 171 366 l 1,16,-1
 167 341 l 1,17,-1
 266 341 l 1,18,-1
 266 287 l 1,19,-1
 166 287 l 1,20,-1
 170 262 l 1,21,-1
 170 -110 l 1,22,23
 137 -110 137 -110 126 -104.5 c 128,-1,24
 115 -99 115 -99 112.5 -88 c 128,-1,25
 110 -77 110 -77 110 -58 c 2,26,-1
 111 262 l 1,27,-1
 115 287 l 1,28,-1
 62 287 l 1,0,-1
EndSplineSet
EndChar

StartChar: circumflex
Encoding: 710 710 204
Width: 352
GlyphClass: 2
Flags: W
LayerCount: 2
Fore
SplineSet
293 617 m 1,0,-1
 175 683 l 1,1,-1
 58 617 l 1,2,-1
 58 672 l 1,3,-1
 162 732 l 1,4,-1
 188 732 l 1,5,-1
 293 671 l 1,6,-1
 293 617 l 1,0,-1
EndSplineSet
EndChar

StartChar: caron
Encoding: 711 711 205
Width: 347
GlyphClass: 2
Flags: W
LayerCount: 2
Fore
SplineSet
291 678 m 1,0,-1
 186 627 l 1,1,-1
 160 627 l 1,2,-1
 56 677 l 1,3,-1
 56 732 l 1,4,-1
 173 676 l 1,5,-1
 291 732 l 1,6,-1
 291 678 l 1,0,-1
EndSplineSet
EndChar

StartChar: breve
Encoding: 728 728 206
Width: 352
GlyphClass: 2
Flags: W
LayerCount: 2
Fore
SplineSet
313 607 m 1,0,-1
 175 683 l 1,1,-1
 38 607 l 1,2,-1
 38 662 l 1,3,-1
 162 732 l 1,4,-1
 188 732 l 1,5,-1
 313 661 l 1,6,-1
 313 607 l 1,0,-1
EndSplineSet
EndChar

StartChar: dotaccent
Encoding: 729 729 207
Width: 176
GlyphClass: 2
Flags: W
LayerCount: 2
Fore
SplineSet
92 641 m 128,-1,1
 73 641 73 641 59.5 654.5 c 128,-1,2
 46 668 46 668 46 687 c 128,-1,3
 46 706 46 706 59.5 719 c 128,-1,4
 73 732 73 732 92 732 c 128,-1,5
 111 732 111 732 124.5 719 c 128,-1,6
 138 706 138 706 138 687 c 128,-1,7
 138 668 138 668 124.5 654.5 c 128,-1,0
 111 641 111 641 92 641 c 128,-1,1
EndSplineSet
EndChar

StartChar: ring
Encoding: 730 730 208
Width: 249
GlyphClass: 2
Flags: W
LayerCount: 2
Fore
SplineSet
207 650 m 128,-1,1
 207 616 207 616 182.5 592 c 128,-1,2
 158 568 158 568 124 568 c 128,-1,3
 90 568 90 568 65.5 592 c 128,-1,4
 41 616 41 616 41 650 c 128,-1,5
 41 684 41 684 65.5 707.5 c 128,-1,6
 90 731 90 731 124 731 c 128,-1,7
 158 731 158 731 182.5 707.5 c 128,-1,0
 207 684 207 684 207 650 c 128,-1,1
153 621 m 128,-1,9
 165 633 165 633 165 649.5 c 128,-1,10
 165 666 165 666 153 678 c 128,-1,11
 141 690 141 690 124 690 c 128,-1,12
 107 690 107 690 95 678.5 c 128,-1,13
 83 667 83 667 83 650 c 128,-1,14
 83 633 83 633 95 621 c 128,-1,15
 107 609 107 609 124 609 c 128,-1,8
 141 609 141 609 153 621 c 128,-1,9
EndSplineSet
EndChar

StartChar: ogonek
Encoding: 731 731 209
Width: 203
GlyphClass: 2
Flags: W
LayerCount: 2
Fore
SplineSet
186 -200 m 1,0,-1
 121 -200 l 1,1,-1
 27 -113 l 1,2,-1
 27 -87 l 1,3,-1
 67 0 l 1,4,-1
 121 0 l 1,5,-1
 76 -100 l 1,6,-1
 186 -200 l 1,0,-1
EndSplineSet
EndChar

StartChar: tilde
Encoding: 732 732 210
Width: 377
GlyphClass: 2
Flags: W
LayerCount: 2
Fore
SplineSet
127 720 m 1,0,-1
 246 716 l 2,1,2
 271 716 271 716 290 720 c 1,3,-1
 303 718 l 1,4,-1
 303 697 l 2,5,6
 303 674 303 674 295.5 670.5 c 128,-1,7
 288 667 288 667 244 667 c 1,8,-1
 124 671 l 2,9,10
 100 671 100 671 81 667 c 1,11,-1
 68 669 l 1,12,-1
 68 690 l 2,13,14
 68 712 68 712 75.5 716 c 128,-1,15
 83 720 83 720 127 720 c 1,0,-1
EndSplineSet
EndChar

StartChar: hungarumlaut
Encoding: 733 733 211
Width: 382
GlyphClass: 2
Flags: W
LayerCount: 2
Fore
SplineSet
100 699 m 1,0,1
 133 732 133 732 141 732 c 0,2,3
 151 732 151 732 182 701 c 1,4,-1
 67 587 l 1,5,-1
 32 623 l 1,6,-1
 100 699 l 1,0,1
271 699 m 1,7,8
 304 732 304 732 312 732 c 0,9,10
 322 732 322 732 353 701 c 1,11,-1
 238 587 l 1,12,-1
 203 623 l 1,13,-1
 271 699 l 1,7,8
EndSplineSet
EndChar

StartChar: endash
Encoding: 8211 8211 215
Width: 395
GlyphClass: 2
Flags: W
LayerCount: 2
Fore
SplineSet
333 300 m 1,0,-1
 60 300 l 1,1,-1
 60 351 l 1,2,-1
 333 351 l 1,3,-1
 333 300 l 1,0,-1
EndSplineSet
EndChar

StartChar: emdash
Encoding: 8212 8212 216
Width: 613
GlyphClass: 2
Flags: W
LayerCount: 2
Fore
SplineSet
552 300 m 1,0,-1
 60 300 l 1,1,-1
 60 351 l 1,2,-1
 552 351 l 1,3,-1
 552 300 l 1,0,-1
EndSplineSet
EndChar

StartChar: quoteleft
Encoding: 8216 8216 217
Width: 166
GlyphClass: 2
Flags: W
LayerCount: 2
Fore
SplineSet
136 707 m 1,0,1
 112 621 112 621 112 589 c 1,2,-1
 115 550 l 1,3,4
 115 531 115 531 101.5 518 c 128,-1,5
 88 505 88 505 69 505 c 128,-1,6
 50 505 50 505 36.5 518.5 c 128,-1,7
 23 532 23 532 23 551.5 c 128,-1,8
 23 571 23 571 41.5 616 c 128,-1,9
 60 661 60 661 78 696 c 2,10,-1
 97 732 l 1,11,-1
 136 707 l 1,0,1
EndSplineSet
EndChar

StartChar: quoteright
Encoding: 8217 8217 218
Width: 164
GlyphClass: 2
Flags: W
LayerCount: 2
Fore
SplineSet
30 530 m 1,0,1
 54 616 54 616 54 648 c 1,2,-1
 51 687 l 1,3,4
 51 706 51 706 64.5 719 c 128,-1,5
 78 732 78 732 97 732 c 128,-1,6
 116 732 116 732 129.5 718.5 c 128,-1,7
 143 705 143 705 143 685.5 c 128,-1,8
 143 666 143 666 124.5 621 c 128,-1,9
 106 576 106 576 88 540 c 1,10,-1
 69 505 l 1,11,-1
 30 530 l 1,0,1
EndSplineSet
EndChar

StartChar: quotesinglbase
Encoding: 8218 8218 219
Width: 164
GlyphClass: 2
Flags: W
LayerCount: 2
Fore
SplineSet
30 -111 m 1,0,1
 54 -25 54 -25 54 7 c 1,2,-1
 51 46 l 1,3,4
 51 65 51 65 64.5 78 c 128,-1,5
 78 91 78 91 97 91 c 128,-1,6
 116 91 116 91 129.5 77.5 c 128,-1,7
 143 64 143 64 143 44.5 c 128,-1,8
 143 25 143 25 124.5 -20 c 128,-1,9
 106 -65 106 -65 88 -100 c 2,10,-1
 69 -136 l 1,11,-1
 30 -111 l 1,0,1
EndSplineSet
EndChar

StartChar: quotedblleft
Encoding: 8220 8220 220
Width: 343
GlyphClass: 2
Flags: W
LayerCount: 2
Fore
SplineSet
298 707 m 1,0,1
 274 621 274 621 274 589 c 1,2,-1
 277 550 l 1,3,4
 277 531 277 531 263.5 518 c 128,-1,5
 250 505 250 505 231 505 c 128,-1,6
 212 505 212 505 198.5 518.5 c 128,-1,7
 185 532 185 532 185 551.5 c 128,-1,8
 185 571 185 571 203.5 616 c 128,-1,9
 222 661 222 661 240 696 c 2,10,-1
 259 732 l 1,11,-1
 298 707 l 1,0,1
154 707 m 1,12,13
 130 621 130 621 130 589 c 1,14,-1
 133 550 l 1,15,16
 133 531 133 531 119.5 518 c 128,-1,17
 106 505 106 505 87 505 c 128,-1,18
 68 505 68 505 54.5 518.5 c 128,-1,19
 41 532 41 532 41 551.5 c 128,-1,20
 41 571 41 571 59.5 616 c 128,-1,21
 78 661 78 661 96 696 c 2,22,-1
 115 732 l 1,23,-1
 154 707 l 1,12,13
EndSplineSet
EndChar

StartChar: quotedblright
Encoding: 8221 8221 221
Width: 343
GlyphClass: 2
Flags: W
LayerCount: 2
Fore
SplineSet
46 530 m 1,0,1
 70 616 70 616 70 648 c 1,2,-1
 67 687 l 1,3,4
 67 706 67 706 80.5 719 c 128,-1,5
 94 732 94 732 113 732 c 128,-1,6
 132 732 132 732 145.5 718.5 c 128,-1,7
 159 705 159 705 159 685.5 c 128,-1,8
 159 666 159 666 140.5 621 c 128,-1,9
 122 576 122 576 104 540 c 1,10,-1
 85 505 l 1,11,-1
 46 530 l 1,0,1
190 530 m 1,12,13
 214 616 214 616 214 648 c 1,14,-1
 211 687 l 1,15,16
 211 706 211 706 224.5 719 c 128,-1,17
 238 732 238 732 257 732 c 128,-1,18
 276 732 276 732 289.5 718.5 c 128,-1,19
 303 705 303 705 303 685.5 c 128,-1,20
 303 666 303 666 284.5 621 c 128,-1,21
 266 576 266 576 248 540 c 1,22,-1
 229 505 l 1,23,-1
 190 530 l 1,12,13
EndSplineSet
EndChar

StartChar: quotedblbase
Encoding: 8222 8222 222
Width: 345
GlyphClass: 2
Flags: W
LayerCount: 2
Fore
SplineSet
46 -111 m 1,0,1
 70 -25 70 -25 70 7 c 1,2,-1
 67 46 l 1,3,4
 67 65 67 65 80.5 78 c 128,-1,5
 94 91 94 91 113 91 c 128,-1,6
 132 91 132 91 145.5 77.5 c 128,-1,7
 159 64 159 64 159 44.5 c 128,-1,8
 159 25 159 25 140.5 -20 c 128,-1,9
 122 -65 122 -65 104 -100 c 2,10,-1
 85 -136 l 1,11,-1
 46 -111 l 1,0,1
192 -111 m 1,12,13
 216 -25 216 -25 216 7 c 1,14,-1
 213 46 l 1,15,16
 213 65 213 65 226.5 78 c 128,-1,17
 240 91 240 91 259 91 c 128,-1,18
 278 91 278 91 291.5 77.5 c 128,-1,19
 305 64 305 64 305 44.5 c 128,-1,20
 305 25 305 25 286.5 -20 c 128,-1,21
 268 -65 268 -65 250 -100 c 2,22,-1
 231 -136 l 1,23,-1
 192 -111 l 1,12,13
EndSplineSet
EndChar

StartChar: dagger
Encoding: 8224 8224 223
Width: 288
GlyphClass: 2
Flags: W
LayerCount: 2
Fore
SplineSet
175 0 m 1,0,-1
 112 0 l 1,1,-1
 112 327 l 1,2,-1
 116 352 l 1,3,-1
 8 352 l 1,4,-1
 8 403 l 1,5,-1
 116 403 l 1,6,-1
 112 428 l 1,7,-1
 112 732 l 1,8,-1
 175 732 l 1,9,-1
 175 428 l 1,10,-1
 171 403 l 1,11,-1
 281 403 l 1,12,-1
 281 352 l 1,13,-1
 171 352 l 1,14,-1
 175 327 l 1,15,-1
 175 0 l 1,0,-1
EndSplineSet
EndChar

StartChar: daggerdbl
Encoding: 8225 8225 224
Width: 292
GlyphClass: 2
Flags: W
LayerCount: 2
Fore
SplineSet
177 0 m 1,0,-1
 114 0 l 1,1,-1
 114 317 l 1,2,-1
 118 342 l 1,3,-1
 10 342 l 1,4,-1
 10 393 l 1,5,-1
 118 393 l 1,6,-1
 114 418 l 1,7,-1
 118 456 l 1,8,-1
 10 456 l 1,9,-1
 10 507 l 1,10,-1
 118 507 l 1,11,-1
 114 532 l 1,12,-1
 114 732 l 1,13,-1
 177 732 l 1,14,-1
 177 532 l 1,15,-1
 173 507 l 1,16,-1
 283 507 l 1,17,-1
 283 456 l 1,18,-1
 173 456 l 1,19,-1
 177 421 l 1,20,-1
 173 393 l 1,21,-1
 283 393 l 1,22,-1
 283 342 l 1,23,-1
 173 342 l 1,24,-1
 177 317 l 1,25,-1
 177 0 l 1,0,-1
EndSplineSet
EndChar

StartChar: bullet
Encoding: 8226 8226 225
Width: 222
GlyphClass: 2
Flags: W
LayerCount: 2
Fore
SplineSet
111 232 m 128,-1,1
 83 232 83 232 62.5 252.5 c 128,-1,2
 42 273 42 273 42 301 c 128,-1,3
 42 329 42 329 62 349 c 128,-1,4
 82 369 82 369 110.5 369 c 128,-1,5
 139 369 139 369 159.5 349 c 128,-1,6
 180 329 180 329 180 301 c 128,-1,7
 180 273 180 273 159.5 252.5 c 128,-1,0
 139 232 139 232 111 232 c 128,-1,1
EndSplineSet
EndChar

StartChar: ellipsis
Encoding: 8230 8230 226
Width: 489
GlyphClass: 2
Flags: W
LayerCount: 2
Fore
SplineSet
102 0 m 128,-1,1
 83 0 83 0 69.5 13.5 c 128,-1,2
 56 27 56 27 56 46 c 128,-1,3
 56 65 56 65 69.5 78 c 128,-1,4
 83 91 83 91 102 91 c 128,-1,5
 121 91 121 91 134.5 78 c 128,-1,6
 148 65 148 65 148 46 c 128,-1,7
 148 27 148 27 134.5 13.5 c 128,-1,0
 121 0 121 0 102 0 c 128,-1,1
248 0 m 128,-1,9
 229 0 229 0 215.5 13.5 c 128,-1,10
 202 27 202 27 202 46 c 128,-1,11
 202 65 202 65 215.5 78 c 128,-1,12
 229 91 229 91 248 91 c 128,-1,13
 267 91 267 91 280.5 78 c 128,-1,14
 294 65 294 65 294 46 c 128,-1,15
 294 27 294 27 280.5 13.5 c 128,-1,8
 267 0 267 0 248 0 c 128,-1,9
388 0 m 128,-1,17
 369 0 369 0 355.5 13.5 c 128,-1,18
 342 27 342 27 342 46 c 128,-1,19
 342 65 342 65 355.5 78 c 128,-1,20
 369 91 369 91 388 91 c 128,-1,21
 407 91 407 91 420.5 78 c 128,-1,22
 434 65 434 65 434 46 c 128,-1,23
 434 27 434 27 420.5 13.5 c 128,-1,16
 407 0 407 0 388 0 c 128,-1,17
EndSplineSet
EndChar

StartChar: perthousand
Encoding: 8240 8240 227
Width: 374
GlyphClass: 2
Flags: W
LayerCount: 2
Fore
SplineSet
73 0 m 1,0,-1
 5 0 l 1,1,-1
 299 732 l 1,2,-1
 367 732 l 1,3,-1
 73 0 l 1,0,-1
EndSplineSet
EndChar

StartChar: guilsinglleft
Encoding: 8249 8249 228
Width: 185
GlyphClass: 2
Flags: W
LayerCount: 2
Fore
SplineSet
143 135 m 1,0,-1
 88 135 l 1,1,-1
 18 289 l 1,2,-1
 18 315 l 1,3,-1
 89 470 l 1,4,-1
 143 470 l 1,5,-1
 67 302 l 1,6,-1
 143 135 l 1,0,-1
EndSplineSet
EndChar

StartChar: guilsinglright
Encoding: 8250 8250 229
Width: 185
GlyphClass: 2
Flags: W
LayerCount: 2
Fore
SplineSet
97 135 m 1,0,-1
 42 135 l 1,1,-1
 118 302 l 1,2,-1
 42 470 l 1,3,-1
 96 470 l 1,4,-1
 167 315 l 1,5,-1
 167 289 l 1,6,-1
 97 135 l 1,0,-1
EndSplineSet
EndChar

StartChar: fraction
Encoding: 8260 8260 230
Width: 372
GlyphClass: 2
Flags: W
LayerCount: 2
Fore
SplineSet
73 0 m 1,0,-1
 5 0 l 1,1,-1
 299 732 l 1,2,-1
 367 732 l 1,3,-1
 73 0 l 1,0,-1
EndSplineSet
EndChar

StartChar: Euro
Encoding: 8364 8364 231
Width: 379
GlyphClass: 2
Flags: W
LayerCount: 2
Fore
SplineSet
109 203 m 1,0,1
 89 204 89 204 71.5 204 c 128,-1,2
 54 204 54 204 42 202 c 1,3,-1
 29 204 l 1,4,-1
 29 225 l 2,5,6
 29 248 29 248 36.5 251.5 c 128,-1,7
 44 255 44 255 88 255 c 2,8,-1
 108 255 l 1,9,-1
 104 267 l 1,10,-1
 104 293 l 1,11,-1
 108 302 l 1,12,13
 89 303 89 303 72.5 303 c 128,-1,14
 56 303 56 303 45 301 c 1,15,-1
 32 303 l 1,16,-1
 32 324 l 2,17,18
 32 346 32 346 39.5 350 c 128,-1,19
 47 354 47 354 91 354 c 2,20,-1
 108 354 l 1,21,-1
 104 369 l 1,22,23
 107 468 107 468 132.5 506.5 c 128,-1,24
 158 545 158 545 235 545 c 1,25,-1
 334 538 l 1,26,27
 334 504 334 504 328 498 c 128,-1,28
 322 492 322 492 284 492 c 2,29,-1
 235 492 l 2,30,31
 194 492 194 492 179 464.5 c 128,-1,32
 164 437 164 437 162 366 c 1,33,-1
 156 350 l 1,34,35
 225 344 225 344 254.5 344 c 128,-1,36
 284 344 284 344 294 346 c 1,37,-1
 307 344 l 1,38,-1
 307 323 l 2,39,40
 307 300 307 300 299.5 296.5 c 128,-1,41
 292 293 292 293 253.5 293 c 128,-1,42
 215 293 215 293 158 298 c 1,43,-1
 162 288 l 1,44,-1
 162 263 l 1,45,-1
 158 250 l 1,46,47
 225 245 225 245 253.5 245 c 128,-1,48
 282 245 282 245 291 247 c 1,49,-1
 304 245 l 1,50,-1
 304 224 l 2,51,52
 304 202 304 202 296.5 198 c 128,-1,53
 289 194 289 194 256.5 194 c 128,-1,54
 224 194 224 194 158 198 c 1,55,-1
 162 186 l 1,56,57
 164 109 164 109 178.5 78 c 128,-1,58
 193 47 193 47 235 47 c 2,59,-1
 334 47 l 1,60,-1
 334 1 l 1,61,-1
 235 -6 l 1,62,63
 155 -6 155 -6 130.5 36.5 c 128,-1,64
 106 79 106 79 104 191 c 1,65,-1
 109 203 l 1,0,1
EndSplineSet
EndChar

StartChar: trademark
Encoding: 8482 8482 232
Width: 540
GlyphClass: 2
Flags: W
LayerCount: 2
Fore
SplineSet
479 372 m 1,0,-1
 436 372 l 1,1,-1
 436 650 l 1,2,-1
 380 522 l 1,3,-1
 330 522 l 1,4,-1
 273 650 l 1,5,-1
 273 372 l 1,6,-1
 230 372 l 1,7,-1
 230 732 l 1,8,-1
 273 732 l 1,9,-1
 351 572 l 1,10,-1
 359 572 l 1,11,-1
 436 732 l 1,12,-1
 479 732 l 1,13,-1
 479 372 l 1,0,-1
144 372 m 1,14,-1
 99 372 l 1,15,-1
 99 667 l 1,16,-1
 101 685 l 1,17,-1
 46 685 l 1,18,-1
 46 732 l 1,19,-1
 197 732 l 1,20,-1
 197 685 l 1,21,-1
 142 685 l 1,22,-1
 144 667 l 1,23,-1
 144 372 l 1,14,-1
EndSplineSet
EndChar

StartChar: minus
Encoding: 8722 8722 236
Width: 336
GlyphClass: 2
Flags: W
LayerCount: 2
Fore
SplineSet
274 300 m 1,0,-1
 60 300 l 1,1,-1
 60 351 l 1,2,-1
 274 351 l 1,3,-1
 274 300 l 1,0,-1
EndSplineSet
EndChar

StartChar: fi
Encoding: 64257 64257 245
Width: 411
GlyphClass: 3
Flags: W
LayerCount: 2
Fore
SplineSet
34 483 m 1,0,-1
 34 537 l 1,1,-1
 87 537 l 1,2,-1
 83 562 l 1,3,-1
 83 578 l 2,4,5
 83 622 83 622 83.5 639.5 c 128,-1,6
 84 657 84 657 89.5 680 c 128,-1,7
 95 703 95 703 102.5 709 c 128,-1,8
 110 715 110 715 130 723 c 128,-1,9
 150 731 150 731 173.5 731.5 c 128,-1,10
 197 732 197 732 240 732 c 2,11,-1
 341 732 l 1,12,-1
 341 682 l 1,13,-1
 240 682 l 2,14,15
 167 682 167 682 155 669 c 128,-1,16
 143 656 143 656 143 578 c 2,17,-1
 143 562 l 1,18,-1
 139 537 l 1,19,-1
 291 537 l 2,20,21
 327 537 327 537 334 530.5 c 128,-1,22
 341 524 341 524 341 491 c 2,23,-1
 341 0 l 1,24,25
 297 0 297 0 289.5 6 c 128,-1,26
 282 12 282 12 282 46 c 2,27,-1
 282 483 l 1,28,-1
 138 483 l 1,29,-1
 142 458 l 1,30,-1
 142 -143 l 1,31,32
 141 -186 141 -186 133.5 -193 c 128,-1,33
 126 -200 126 -200 82 -200 c 1,34,-1
 83 458 l 1,35,-1
 87 483 l 1,36,-1
 34 483 l 1,0,-1
EndSplineSet
Ligature2: "'liga' Standard Ligatures in Latin lookup 0 subtable" f i
EndChar

StartChar: fl
Encoding: 64258 64258 246
Width: 405
GlyphClass: 3
Flags: W
LayerCount: 2
Fore
SplineSet
33 483 m 1,0,-1
 33 537 l 1,1,-1
 86 537 l 1,2,-1
 82 562 l 1,3,-1
 82 578 l 2,4,5
 82 622 82 622 82.5 639.5 c 128,-1,6
 83 657 83 657 88.5 680 c 128,-1,7
 94 703 94 703 101.5 709 c 128,-1,8
 109 715 109 715 129 723 c 128,-1,9
 149 731 149 731 172.5 731.5 c 128,-1,10
 196 732 196 732 239 732 c 2,11,-1
 281 732 l 2,12,13
 325 732 325 732 332.5 726 c 128,-1,14
 340 720 340 720 340 686 c 2,15,-1
 340 0 l 1,16,17
 296 0 296 0 288.5 6 c 128,-1,18
 281 12 281 12 281 46 c 2,19,-1
 281 682 l 1,20,-1
 239 682 l 2,21,22
 166 682 166 682 154 669 c 128,-1,23
 142 656 142 656 142 578 c 2,24,-1
 142 562 l 1,25,-1
 138 537 l 1,26,-1
 207 537 l 1,27,-1
 207 483 l 1,28,-1
 137 483 l 1,29,-1
 141 458 l 1,30,-1
 141 -143 l 1,31,32
 140 -186 140 -186 132.5 -193 c 128,-1,33
 125 -200 125 -200 81 -200 c 1,34,-1
 82 458 l 1,35,-1
 86 483 l 1,36,-1
 33 483 l 1,0,-1
EndSplineSet
Ligature2: "'liga' Standard Ligatures in Latin lookup 0 subtable" f l
EndChar

StartChar: f_f_i
Encoding: 64259 64259 247
Width: 642
GlyphClass: 3
Flags: W
LayerCount: 2
Fore
SplineSet
18 483 m 1,0,-1
 18 537 l 1,1,-1
 72 537 l 1,2,-1
 67 567 l 1,3,-1
 67 578 l 2,4,5
 67 582 67 582 67 603.5 c 128,-1,6
 67 625 67 625 67.5 639.5 c 128,-1,7
 68 654 68 654 72.5 674.5 c 128,-1,8
 77 695 77 695 86.5 702.5 c 128,-1,9
 96 710 96 710 114 718 c 0,10,11
 142 731 142 731 227 731 c 1,12,-1
 227 684 l 1,13,14
 157 684 157 684 140 670 c 0,15,16
 135 667 135 667 131 652.5 c 128,-1,17
 127 638 127 638 127 628 c 2,18,-1
 127 567 l 1,19,-1
 122 537 l 1,20,-1
 285 537 l 1,21,-1
 281 562 l 1,22,-1
 281 578 l 2,23,24
 281 622 281 622 281.5 639.5 c 128,-1,25
 282 657 282 657 287.5 680 c 128,-1,26
 293 703 293 703 300.5 709 c 128,-1,27
 308 715 308 715 328 723 c 128,-1,28
 348 731 348 731 371.5 731.5 c 128,-1,29
 395 732 395 732 438 732 c 2,30,-1
 539 732 l 1,31,-1
 539 682 l 1,32,-1
 438 682 l 2,33,34
 365 682 365 682 353 669 c 128,-1,35
 341 656 341 656 341 578 c 2,36,-1
 341 562 l 1,37,-1
 337 537 l 1,38,-1
 489 537 l 2,39,40
 525 537 525 537 532 530.5 c 128,-1,41
 539 524 539 524 539 491 c 2,42,-1
 539 0 l 1,43,44
 495 0 495 0 487.5 6 c 128,-1,45
 480 12 480 12 480 46 c 2,46,-1
 480 483 l 1,47,-1
 336 483 l 1,48,-1
 340 458 l 1,49,-1
 340 -143 l 1,50,51
 339 -186 339 -186 331.5 -193 c 128,-1,52
 324 -200 324 -200 280 -200 c 1,53,-1
 281 458 l 1,54,-1
 285 483 l 1,55,-1
 121 483 l 1,56,-1
 126 453 l 1,57,-1
 126 -143 l 1,58,59
 125 -186 125 -186 117.5 -193 c 128,-1,60
 110 -200 110 -200 66 -200 c 1,61,-1
 67 453 l 1,62,-1
 72 483 l 1,63,-1
 18 483 l 1,0,-1
EndSplineSet
Ligature2: "'liga' Standard Ligatures in Latin lookup 0 subtable" f f i
EndChar

StartChar: f_f_l
Encoding: 64260 64260 248
Width: 623
GlyphClass: 3
Flags: W
LayerCount: 2
Fore
SplineSet
18 483 m 1,0,-1
 18 537 l 1,1,-1
 72 537 l 1,2,-1
 67 567 l 1,3,-1
 67 578 l 2,4,5
 67 582 67 582 67 603.5 c 128,-1,6
 67 625 67 625 67.5 639.5 c 128,-1,7
 68 654 68 654 72.5 674.5 c 128,-1,8
 77 695 77 695 86.5 702.5 c 128,-1,9
 96 710 96 710 114 718 c 0,10,11
 142 731 142 731 227 731 c 1,12,-1
 227 684 l 1,13,14
 157 684 157 684 140 670 c 0,15,16
 135 667 135 667 131 652.5 c 128,-1,17
 127 638 127 638 127 628 c 2,18,-1
 127 567 l 1,19,-1
 122 537 l 1,20,-1
 288 537 l 1,21,-1
 284 562 l 1,22,-1
 284 578 l 2,23,24
 284 622 284 622 284.5 639.5 c 128,-1,25
 285 657 285 657 290.5 680 c 128,-1,26
 296 703 296 703 303.5 709 c 128,-1,27
 311 715 311 715 331 723 c 128,-1,28
 351 731 351 731 374.5 731.5 c 128,-1,29
 398 732 398 732 441 732 c 2,30,-1
 483 732 l 2,31,32
 527 732 527 732 534.5 726 c 128,-1,33
 542 720 542 720 542 686 c 2,34,-1
 542 0 l 1,35,36
 498 0 498 0 490.5 6 c 128,-1,37
 483 12 483 12 483 46 c 2,38,-1
 483 682 l 1,39,-1
 441 682 l 2,40,41
 368 682 368 682 356 669 c 128,-1,42
 344 656 344 656 344 578 c 2,43,-1
 344 562 l 1,44,-1
 340 537 l 1,45,-1
 409 537 l 1,46,-1
 409 483 l 1,47,-1
 339 483 l 1,48,-1
 343 458 l 1,49,-1
 343 -143 l 1,50,51
 342 -186 342 -186 334.5 -193 c 128,-1,52
 327 -200 327 -200 283 -200 c 1,53,-1
 284 458 l 1,54,-1
 288 483 l 1,55,-1
 121 483 l 1,56,-1
 126 453 l 1,57,-1
 126 -143 l 1,58,59
 125 -186 125 -186 117.5 -193 c 128,-1,60
 110 -200 110 -200 66 -200 c 1,61,-1
 67 453 l 1,62,-1
 72 483 l 1,63,-1
 18 483 l 1,0,-1
EndSplineSet
Ligature2: "'liga' Standard Ligatures in Latin lookup 0 subtable" f f l
EndChar

StartChar: f_t
Encoding: 65539 -1 249
Width: 415
GlyphClass: 3
Flags: W
LayerCount: 2
Fore
SplineSet
233 228 m 2,0,-1
 233 458 l 1,1,-1
 237 483 l 1,2,-1
 105 483 l 1,3,-1
 110 453 l 1,4,-1
 110 -143 l 1,5,6
 109 -186 109 -186 102 -193 c 128,-1,7
 95 -200 95 -200 51 -200 c 1,8,-1
 52 453 l 1,9,-1
 57 483 l 1,10,-1
 3 483 l 1,11,-1
 3 537 l 1,12,-1
 57 537 l 1,13,-1
 52 567 l 1,14,-1
 52 578 l 2,15,16
 52 662 52 662 59 675 c 128,-1,17
 66 688 66 688 74 699 c 128,-1,18
 82 710 82 710 94 714.5 c 128,-1,19
 106 719 106 719 124 724 c 0,20,21
 154 731 154 731 220 731 c 1,22,-1
 220 684 l 1,23,24
 142 684 142 684 126.5 668.5 c 128,-1,25
 111 653 111 653 111 578 c 2,26,-1
 111 567 l 1,27,-1
 106 537 l 1,28,-1
 237 537 l 1,29,-1
 233 572 l 1,30,-1
 233 616 l 1,31,32
 277 616 277 616 284.5 610 c 128,-1,33
 292 604 292 604 292 570 c 1,34,-1
 288 537 l 1,35,-1
 380 537 l 1,36,37
 380 500 380 500 373.5 491.5 c 128,-1,38
 367 483 367 483 332 483 c 2,39,-1
 288 483 l 1,40,-1
 292 458 l 1,41,-1
 292 228 l 2,42,43
 292 114 292 114 298 80 c 128,-1,44
 304 46 304 46 332 46 c 2,45,-1
 400 46 l 1,46,-1
 400 0 l 1,47,-1
 331 -5 l 1,48,49
 262 -5 262 -5 247.5 37.5 c 128,-1,50
 233 80 233 80 233 228 c 2,0,-1
EndSplineSet
Ligature2: "'liga' Standard Ligatures in Latin lookup 0 subtable" f t
EndChar

StartChar: f_u
Encoding: 65540 -1 250
Width: 579
GlyphClass: 3
Flags: W
LayerCount: 2
Fore
SplineSet
235 684 m 2,0,1
 157 684 157 684 141.5 668.5 c 128,-1,2
 126 653 126 653 126 578 c 2,3,-1
 126 567 l 1,4,-1
 121 537 l 1,5,-1
 261 537 l 2,6,7
 303 537 303 537 310.5 531 c 128,-1,8
 318 525 318 525 318 491 c 2,9,-1
 318 273 l 2,10,11
 318 157 318 157 324.5 114.5 c 128,-1,12
 331 72 331 72 344.5 59 c 128,-1,13
 358 46 358 46 381 46 c 1,14,-1
 480 92 l 1,15,-1
 475 117 l 1,16,-1
 475 537 l 1,17,18
 519 537 519 537 526.5 531.5 c 128,-1,19
 534 526 534 526 534 491 c 2,20,-1
 534 0 l 1,21,22
 490 0 490 0 482.5 5 c 128,-1,23
 475 10 475 10 475 40 c 1,24,-1
 385 -7 l 1,25,26
 322 -7 322 -7 286 32 c 0,27,28
 263 58 263 58 260 164 c 0,29,30
 259 197 259 197 259 271 c 2,31,-1
 259 483 l 1,32,-1
 120 483 l 1,33,-1
 125 453 l 1,34,-1
 125 -143 l 1,35,36
 124 -186 124 -186 117 -193 c 128,-1,37
 110 -200 110 -200 66 -200 c 1,38,-1
 67 453 l 1,39,-1
 72 483 l 1,40,-1
 18 483 l 1,41,-1
 18 537 l 1,42,-1
 72 537 l 1,43,-1
 67 567 l 1,44,-1
 67 578 l 2,45,46
 67 662 67 662 74 675 c 128,-1,47
 81 688 81 688 89 699 c 128,-1,48
 97 710 97 710 109 714.5 c 128,-1,49
 121 719 121 719 139 724 c 0,50,51
 169 731 169 731 235 731 c 2,52,-1
 280 731 l 1,53,-1
 280 684 l 1,54,-1
 235 684 l 2,0,1
EndSplineSet
Ligature2: "'liga' Standard Ligatures in Latin lookup 0 subtable" f u
EndChar

StartChar: x_t
Encoding: 65541 -1 251
Width: 566
GlyphClass: 3
Flags: W
LayerCount: 2
Fore
SplineSet
379 228 m 2,0,-1
 379 458 l 1,1,-1
 383 483 l 1,2,-1
 265 483 l 1,3,4
 247 424 247 424 193 281 c 1,5,-1
 298 0 l 1,6,-1
 241 0 l 1,7,-1
 162 226 l 1,8,-1
 150 226 l 1,9,-1
 72 0 l 1,10,11
 41 0 41 0 31 1.5 c 128,-1,12
 21 3 21 3 21 11 c 0,13,14
 21 12 21 12 33 46 c 2,15,-1
 120 292 l 1,16,-1
 31 537 l 1,17,18
 73 537 73 537 83 531.5 c 128,-1,19
 93 526 93 526 106 493 c 1,20,-1
 155 347 l 1,21,-1
 167 347 l 1,22,-1
 224 537 l 1,23,-1
 383 537 l 1,24,-1
 379 572 l 1,25,-1
 379 616 l 1,26,27
 423 616 423 616 430.5 610 c 128,-1,28
 438 604 438 604 438 570 c 1,29,-1
 434 537 l 1,30,-1
 526 537 l 1,31,32
 526 500 526 500 519.5 491.5 c 128,-1,33
 513 483 513 483 478 483 c 2,34,-1
 434 483 l 1,35,-1
 438 458 l 1,36,-1
 438 228 l 2,37,38
 438 114 438 114 444 80 c 128,-1,39
 450 46 450 46 478 46 c 2,40,-1
 546 46 l 1,41,-1
 546 0 l 1,42,-1
 477 -5 l 1,43,44
 408 -5 408 -5 393.5 37.5 c 128,-1,45
 379 80 379 80 379 228 c 2,0,-1
EndSplineSet
Ligature2: "'liga' Standard Ligatures in Latin lookup 0 subtable" x t
EndChar

StartChar: o_t
Encoding: 65542 -1 252
Width: 599
GlyphClass: 3
Flags: W
LayerCount: 2
Fore
SplineSet
426 228 m 2,0,-1
 426 458 l 1,1,-1
 430 490 l 1,2,-1
 293 490 l 1,3,4
 311 450 311 450 312 368 c 0,5,6
 313 337 313 337 313 304 c 2,7,-1
 313 267 l 2,8,9
 313 127 313 127 308 103 c 128,-1,10
 303 79 303 79 296.5 57.5 c 128,-1,11
 290 36 290 36 281 27.5 c 128,-1,12
 272 19 272 19 258 9 c 0,13,14
 236 -7 236 -7 182 -7 c 0,15,16
 112 -7 112 -7 89 22 c 0,17,18
 79 34 79 34 72.5 43 c 128,-1,19
 66 52 66 52 61.5 74 c 128,-1,20
 57 96 57 96 54.5 110 c 128,-1,21
 52 124 52 124 51 156.5 c 128,-1,22
 50 189 50 189 50 208 c 2,23,-1
 50 334 l 2,24,25
 50 406 50 406 53.5 425 c 128,-1,26
 57 444 57 444 61.5 466 c 128,-1,27
 66 488 66 488 72.5 496.5 c 128,-1,28
 79 505 79 505 89 517 c 128,-1,29
 99 529 99 529 112 533 c 0,30,31
 150 544 150 544 182 544 c 2,32,-1
 430 544 l 1,33,-1
 426 572 l 1,34,-1
 426 616 l 1,35,36
 470 616 470 616 477.5 610 c 128,-1,37
 485 604 485 604 485 570 c 1,38,-1
 481 544 l 1,39,-1
 573 544 l 1,40,41
 573 507 573 507 566.5 498.5 c 128,-1,42
 560 490 560 490 525 490 c 2,43,-1
 481 490 l 1,44,-1
 485 458 l 1,45,-1
 485 228 l 2,46,47
 485 114 485 114 491 80 c 128,-1,48
 497 46 497 46 525 46 c 2,49,-1
 593 46 l 1,50,-1
 593 0 l 1,51,-1
 524 -5 l 1,52,53
 455 -5 455 -5 440.5 37.5 c 128,-1,54
 426 80 426 80 426 228 c 2,0,-1
254 248 m 1,55,-1
 254 316 l 2,56,57
 254 425 254 425 244 453 c 0,58,59
 230 491 230 491 182 491 c 0,60,61
 155 491 155 491 140 482.5 c 128,-1,62
 125 474 125 474 118 445.5 c 128,-1,63
 111 417 111 417 110 391.5 c 128,-1,64
 109 366 109 366 109 328 c 2,65,-1
 109 282 l 2,66,67
 109 136 109 136 114 108 c 0,68,69
 123 55 123 55 162 48 c 0,70,71
 171 46 171 46 185.5 46 c 128,-1,72
 200 46 200 46 212.5 49.5 c 128,-1,73
 225 53 225 53 233 65.5 c 128,-1,74
 241 78 241 78 245 88.5 c 128,-1,75
 249 99 249 99 251 126 c 0,76,77
 254 168 254 168 254 206 c 2,78,-1
 254 248 l 1,55,-1
EndSplineSet
Ligature2: "'liga' Standard Ligatures in Latin lookup 0 subtable" o t
EndChar

StartChar: c_s
Encoding: 65543 -1 253
Width: 595
GlyphClass: 3
Flags: W
LayerCount: 2
Fore
SplineSet
50.5 201 m 128,-1,1
 50 223 50 223 50 278 c 128,-1,2
 50 333 50 333 50.5 360.5 c 128,-1,3
 51 388 51 388 54.5 427.5 c 128,-1,4
 58 467 58 467 65 482.5 c 128,-1,5
 72 498 72 498 85.5 515.5 c 128,-1,6
 99 533 99 533 120 538.5 c 128,-1,7
 141 544 141 544 171 544 c 1,8,-1
 254 531 l 1,9,10
 254 487 254 487 218 487 c 0,11,12
 211 487 211 487 204 488 c 2,13,-1
 171 491 l 1,14,15
 148 491 148 491 135 481.5 c 128,-1,16
 122 472 122 472 116 439 c 128,-1,17
 110 406 110 406 109 375.5 c 128,-1,18
 108 345 108 345 108 271.5 c 128,-1,19
 108 198 108 198 109 167 c 128,-1,20
 110 136 110 136 117 101.5 c 128,-1,21
 124 67 124 67 139 56.5 c 128,-1,22
 154 46 154 46 181 46 c 1,23,-1
 298 70 l 1,24,-1
 427 54 l 1,25,26
 483 54 483 54 483 158 c 0,27,28
 483 165 483 165 483 172 c 0,29,30
 482 204 482 204 421 250.5 c 128,-1,31
 360 297 360 297 331 332 c 128,-1,32
 302 367 302 367 302 403 c 128,-1,33
 302 439 302 439 303 453 c 128,-1,34
 304 467 304 467 310 488 c 128,-1,35
 316 509 316 509 328 518 c 0,36,37
 359 543 359 543 422 543 c 1,38,-1
 517 529 l 1,39,40
 517 485 517 485 481 485 c 0,41,42
 474 485 474 485 467 486 c 2,43,-1
 426 492 l 1,44,45
 377 492 377 492 366 470 c 0,46,47
 357 451 357 451 357 414.5 c 128,-1,48
 357 378 357 378 435 316 c 1,49,50
 471 289 471 289 489.5 273 c 128,-1,51
 508 257 508 257 525.5 231 c 128,-1,52
 543 205 543 205 543 180.5 c 128,-1,53
 543 156 543 156 542 138.5 c 128,-1,54
 541 121 541 121 537.5 97 c 128,-1,55
 534 73 534 73 526.5 57 c 128,-1,56
 519 41 519 41 507 26 c 0,57,58
 483 -4 483 -4 428 -4 c 1,59,-1
 301 14 l 1,60,-1
 181 -7 l 1,61,62
 127 -7 127 -7 109 6 c 128,-1,63
 91 19 91 19 82 27.5 c 128,-1,64
 73 36 73 36 66.5 58 c 128,-1,65
 60 80 60 80 57 95 c 128,-1,66
 54 110 54 110 52.5 144.5 c 128,-1,0
 51 179 51 179 50.5 201 c 128,-1,1
EndSplineSet
Ligature2: "'liga' Standard Ligatures in Latin lookup 0 subtable" c s
EndChar

StartChar: E_S
Encoding: 65544 -1 254
Width: 776
GlyphClass: 3
Flags: W
LayerCount: 2
Fore
SplineSet
75 0 m 1,0,-1
 75 720 l 1,1,-1
 318 720 l 1,2,-1
 318 667 l 1,3,-1
 137 667 l 1,4,-1
 141 642 l 1,5,-1
 141 443 l 1,6,-1
 137 418 l 1,7,-1
 304 418 l 1,8,-1
 304 361 l 1,9,-1
 137 361 l 1,10,-1
 141 336 l 1,11,-1
 141 84 l 1,12,-1
 137 59 l 1,13,-1
 509 59 l 2,14,15
 577 59 577 59 596 89 c 0,16,17
 603 101 603 101 607 108.5 c 128,-1,18
 611 116 611 116 612.5 134 c 128,-1,19
 614 152 614 152 614.5 160.5 c 128,-1,20
 615 169 615 169 614.5 191 c 128,-1,21
 614 213 614 213 614 221 c 0,22,23
 614 270 614 270 526 346 c 0,24,25
 490 377 490 377 453 410 c 128,-1,26
 416 443 416 443 390.5 484 c 128,-1,27
 365 525 365 525 365 560.5 c 128,-1,28
 365 596 365 596 365.5 608.5 c 128,-1,29
 366 621 366 621 368.5 643.5 c 128,-1,30
 371 666 371 666 377 675.5 c 128,-1,31
 383 685 383 685 394.5 699 c 128,-1,32
 406 713 406 713 424 718 c 0,33,34
 472 732 472 732 527 732 c 1,35,-1
 633 712 l 1,36,37
 633 674 633 674 613 671 c 0,38,39
 605 670 605 670 589 671 c 2,40,-1
 533 677 l 1,41,42
 461 677 461 677 444 646 c 1,43,44
 434 630 434 630 431.5 615 c 128,-1,45
 429 600 429 600 429 572.5 c 128,-1,46
 429 545 429 545 447.5 516.5 c 128,-1,47
 466 488 466 488 494 464.5 c 128,-1,48
 522 441 522 441 554 413 c 128,-1,49
 586 385 586 385 614 359.5 c 128,-1,50
 642 334 642 334 660.5 300.5 c 128,-1,51
 679 267 679 267 679 233 c 0,52,53
 679 130 679 130 670 95 c 0,54,55
 643 -7 643 -7 508 -7 c 1,56,-1
 349 0 l 1,57,-1
 75 0 l 1,0,-1
EndSplineSet
Ligature2: "'liga' Standard Ligatures in Latin lookup 0 subtable" E S
EndChar

StartChar: E_s
Encoding: 65545 -1 255
Width: 620
GlyphClass: 3
Flags: W
LayerCount: 2
Fore
SplineSet
75 0 m 1,0,-1
 75 720 l 1,1,-1
 328 720 l 1,2,-1
 328 667 l 1,3,-1
 137 667 l 1,4,-1
 141 642 l 1,5,-1
 141 443 l 1,6,-1
 137 418 l 1,7,-1
 284 418 l 1,8,-1
 284 361 l 1,9,-1
 137 361 l 1,10,-1
 141 336 l 1,11,-1
 141 82 l 1,12,-1
 137 57 l 1,13,-1
 348 57 l 1,14,-1
 468 54 l 1,15,16
 524 54 524 54 524 158 c 0,17,18
 524 165 524 165 524 172 c 0,19,20
 523 204 523 204 462 250.5 c 128,-1,21
 401 297 401 297 372 332 c 128,-1,22
 343 367 343 367 343 403 c 128,-1,23
 343 439 343 439 344 453 c 128,-1,24
 345 467 345 467 351 488 c 128,-1,25
 357 509 357 509 369 518 c 0,26,27
 400 543 400 543 463 543 c 1,28,-1
 558 529 l 1,29,30
 558 485 558 485 522 485 c 0,31,32
 515 485 515 485 508 486 c 2,33,-1
 467 492 l 1,34,35
 418 492 418 492 407 470 c 0,36,37
 398 451 398 451 398 414.5 c 128,-1,38
 398 378 398 378 476 316 c 1,39,40
 512 289 512 289 530.5 273 c 128,-1,41
 549 257 549 257 566.5 231 c 128,-1,42
 584 205 584 205 584 180.5 c 128,-1,43
 584 156 584 156 583 138.5 c 128,-1,44
 582 121 582 121 578.5 97 c 128,-1,45
 575 73 575 73 567.5 57 c 128,-1,46
 560 41 560 41 548 26 c 0,47,48
 524 -4 524 -4 469 -4 c 1,49,-1
 348 0 l 1,50,-1
 75 0 l 1,0,-1
EndSplineSet
Ligature2: "'liga' Standard Ligatures in Latin lookup 0 subtable" E s
EndChar

